<svg xmlns="http://www.w3.org/2000/svg" xmlns:xlink="http://www.w3.org/1999/xlink" width="56" zoomAndPan="magnify" viewBox="0 0 42 42" height="56" preserveAspectRatio="xMidYMid meet" version="1.0"><defs><clipPath id="56d5d743eb"><path d="M 1.648438 1 L 40.476562 1 L 40.476562 40.121094 L 1.648438 40.121094 Z M 1.648438 1 " clip-rule="nonzero"/></clipPath></defs><g clip-path="url(#56d5d743eb)"><path fill="#827fc6" d="M 13.769531 23.675781 L 13.769531 21.238281 C 13.769531 18.003906 16.398438 15.371094 19.632812 15.371094 C 21.007812 15.371094 22.324219 15.855469 23.378906 16.734375 C 23.34375 16.96875 23.363281 18.558594 23.363281 18.914062 L 21.386719 18.914062 C 20.605469 18.914062 19.972656 19.546875 19.972656 20.328125 L 19.972656 22.550781 C 19.972656 23.332031 20.605469 23.964844 21.386719 23.964844 L 23.363281 23.964844 L 23.363281 25.226562 L 15.320312 25.226562 C 14.464844 25.226562 13.769531 24.53125 13.769531 23.675781 Z M 16.535156 11.089844 C 16.535156 9.382812 17.925781 7.992188 19.632812 7.992188 C 21.339844 7.992188 22.730469 9.382812 22.730469 11.089844 C 22.730469 12.796875 21.339844 14.1875 19.632812 14.1875 C 17.925781 14.1875 16.535156 12.796875 16.535156 11.089844 Z M 24.546875 16.9375 L 24.546875 19.507812 C 24.546875 19.832031 24.28125 20.097656 23.953125 20.097656 L 21.386719 20.097656 C 21.261719 20.097656 21.152344 20.203125 21.152344 20.328125 L 21.152344 22.550781 C 21.152344 22.675781 21.261719 22.78125 21.386719 22.78125 L 23.953125 22.78125 C 24.28125 22.78125 24.546875 23.046875 24.546875 23.375 L 24.546875 25.945312 C 24.546875 26.070312 24.652344 26.175781 24.777344 26.175781 L 27 26.175781 C 27.125 26.175781 27.230469 26.070312 27.230469 25.945312 L 27.230469 23.375 C 27.230469 23.046875 27.496094 22.78125 27.824219 22.78125 L 30.394531 22.78125 C 30.519531 22.78125 30.625 22.675781 30.625 22.550781 L 30.625 20.328125 C 30.625 20.203125 30.519531 20.097656 30.394531 20.097656 L 27.824219 20.097656 C 27.496094 20.097656 27.230469 19.832031 27.230469 19.507812 L 27.230469 16.9375 C 27.230469 16.8125 27.125 16.707031 27 16.707031 L 24.777344 16.707031 C 24.652344 16.707031 24.546875 16.8125 24.546875 16.9375 Z M 24.777344 27.359375 L 27 27.359375 C 27.78125 27.359375 28.414062 26.722656 28.414062 25.945312 L 28.414062 23.964844 L 30.394531 23.964844 C 31.171875 23.964844 31.808594 23.332031 31.808594 22.550781 L 31.808594 20.328125 C 31.808594 19.546875 31.171875 18.914062 30.394531 18.914062 L 28.414062 18.914062 L 28.414062 16.9375 C 28.414062 16.15625 27.78125 15.523438 27 15.523438 L 24.777344 15.523438 C 24.503906 15.523438 24.246094 15.601562 24.03125 15.738281 C 23.429688 15.257812 22.761719 14.878906 22.054688 14.621094 C 23.175781 13.847656 23.914062 12.554688 23.914062 11.089844 C 23.914062 8.730469 21.996094 6.808594 19.632812 6.808594 C 17.273438 6.808594 15.351562 8.730469 15.351562 11.089844 C 15.351562 12.550781 16.089844 13.84375 17.210938 14.617188 C 14.515625 15.609375 12.585938 18.199219 12.585938 21.238281 L 12.585938 23.675781 C 12.585938 25.183594 13.8125 26.410156 15.320312 26.410156 L 23.445312 26.410156 C 23.636719 26.960938 24.160156 27.359375 24.777344 27.359375 Z M 39.125 16.84375 C 38.8125 20.574219 38.886719 26.132812 37.296875 28.976562 C 36.15625 31.015625 34.492188 31.816406 32.894531 33.554688 C 31.019531 35.589844 30.710938 36.601562 30.675781 38.800781 C 30.671875 39.058594 30.460938 39.265625 30.203125 39.265625 L 24.679688 39.265625 C 24.414062 39.265625 24.195312 39.050781 24.195312 38.785156 L 24.195312 35.164062 C 24.195312 33.859375 24.734375 32.738281 25.746094 31.914062 L 30.726562 27.882812 C 31.050781 27.621094 31.53125 27.671875 31.792969 27.996094 C 32.058594 28.320312 32.007812 28.800781 31.683594 29.066406 L 27.324219 32.59375 C 26.890625 32.945312 27.144531 33.644531 27.695312 33.644531 C 27.828125 33.644531 27.957031 33.601562 28.066406 33.515625 L 32.425781 29.984375 C 33.097656 29.441406 33.328125 28.515625 32.996094 27.726562 L 34.691406 26.070312 C 35.480469 25.296875 35.972656 24.4375 36.242188 23.367188 L 37.917969 16.65625 C 38.089844 15.972656 39.183594 16.117188 39.125 16.84375 Z M 21.023438 36.269531 C 21.710938 35.730469 22.386719 35.175781 23.039062 34.613281 C 23.175781 33.175781 23.847656 31.929688 25.003906 30.996094 L 29.980469 26.964844 C 30.628906 26.441406 31.53125 26.394531 32.226562 26.824219 L 33.863281 25.226562 C 34.5 24.601562 34.878906 23.941406 35.09375 23.078125 L 36.769531 16.367188 C 36.867188 15.980469 37.089844 15.652344 37.382812 15.417969 C 37.921875 10.457031 35.53125 5.460938 31.628906 3.457031 C 28.316406 1.757812 24.695312 2.503906 21.425781 5.558594 C 21.199219 5.773438 20.847656 5.773438 20.617188 5.558594 C 17.351562 2.503906 13.726562 1.757812 10.414062 3.457031 C 6.515625 5.460938 4.121094 10.457031 4.660156 15.417969 C 4.957031 15.652344 5.175781 15.980469 5.273438 16.367188 L 6.953125 23.078125 C 7.167969 23.941406 7.546875 24.601562 8.183594 25.226562 L 9.816406 26.824219 C 10.511719 26.394531 11.417969 26.441406 12.0625 26.964844 L 17.042969 30.996094 C 18.199219 31.929688 18.871094 33.175781 19.003906 34.613281 C 19.660156 35.175781 20.335938 35.730469 21.023438 36.269531 Z M 17.847656 38.785156 L 17.847656 35.164062 C 17.847656 33.859375 17.3125 32.738281 16.296875 31.914062 L 11.320312 27.882812 C 10.800781 27.464844 10.015625 27.875 10.085938 28.554688 C 10.109375 28.757812 10.207031 28.9375 10.363281 29.066406 L 14.722656 32.59375 C 14.976562 32.800781 15.015625 33.171875 14.808594 33.425781 C 14.601562 33.679688 14.230469 33.71875 13.976562 33.515625 L 9.617188 29.984375 C 8.949219 29.441406 8.71875 28.515625 9.046875 27.726562 L 7.355469 26.070312 C 6.566406 25.296875 6.070312 24.4375 5.804688 23.367188 L 4.125 16.65625 C 3.957031 15.972656 2.859375 16.117188 2.921875 16.84375 C 3.230469 20.570312 3.15625 26.132812 4.746094 28.972656 C 5.886719 31.015625 7.550781 31.816406 9.148438 33.550781 C 11.023438 35.589844 11.335938 36.601562 11.371094 38.800781 C 11.375 39.058594 11.585938 39.265625 11.84375 39.265625 L 17.367188 39.265625 C 17.632812 39.265625 17.847656 39.050781 17.847656 38.785156 Z M 39.84375 15.601562 C 39.527344 15.253906 39.078125 15.050781 38.605469 15.035156 C 38.792969 12.519531 38.328125 10.03125 37.238281 7.785156 C 36.078125 5.398438 34.277344 3.488281 32.167969 2.40625 C 28.574219 0.558594 24.535156 1.265625 21.023438 4.328125 C 17.507812 1.265625 13.472656 0.558594 9.875 2.40625 C 7.765625 3.488281 5.96875 5.398438 4.808594 7.785156 C 3.71875 10.03125 3.25 12.519531 3.4375 15.035156 C 2.433594 15.070312 1.660156 15.9375 1.742188 16.941406 C 1.800781 17.660156 1.847656 18.484375 1.894531 19.355469 C 2.082031 22.78125 2.316406 27.050781 3.714844 29.550781 C 4.996094 31.84375 6.660156 32.597656 8.277344 34.355469 C 10.003906 36.230469 10.160156 36.980469 10.1875 38.820312 C 10.203125 39.71875 10.945312 40.449219 11.84375 40.449219 L 17.367188 40.449219 C 18.285156 40.449219 19.03125 39.703125 19.03125 38.785156 L 19.03125 36.183594 C 19.566406 36.625 20.109375 37.0625 20.660156 37.488281 C 20.875 37.65625 21.171875 37.65625 21.386719 37.488281 C 21.9375 37.0625 22.480469 36.625 23.011719 36.183594 L 23.011719 38.785156 C 23.011719 39.703125 23.761719 40.449219 24.679688 40.449219 L 30.203125 40.449219 C 31.101562 40.449219 31.84375 39.71875 31.859375 38.820312 C 31.886719 36.980469 32.042969 36.230469 33.765625 34.355469 C 35.386719 32.597656 37.046875 31.84375 38.332031 29.550781 C 39.730469 27.050781 39.964844 22.78125 40.152344 19.355469 C 40.199219 18.484375 40.242188 17.660156 40.304688 16.941406 C 40.34375 16.449219 40.175781 15.960938 39.84375 15.601562 Z M 39.84375 15.601562 " fill-opacity="1" fill-rule="evenodd"/></g></svg>