<svg xmlns="http://www.w3.org/2000/svg" xmlns:xlink="http://www.w3.org/1999/xlink" width="56" zoomAndPan="magnify" viewBox="0 0 42 42" height="56" preserveAspectRatio="xMidYMid meet" version="1.0"><defs><clipPath id="de222ca783"><path d="M 1.367188 0.878906 L 40.925781 0.878906 L 40.925781 40.4375 L 1.367188 40.4375 Z M 1.367188 0.878906 " clip-rule="nonzero"/></clipPath></defs><g clip-path="url(#de222ca783)"><path fill="#827fc6" d="M 40.308594 18.007812 C 39.992188 17.457031 39.480469 17.0625 38.871094 16.902344 C 38.261719 16.738281 37.625 16.820312 37.074219 17.140625 C 36.523438 17.457031 36.132812 17.96875 35.96875 18.578125 L 35.734375 19.445312 C 34.597656 19.328125 33.496094 20.058594 33.191406 21.1875 L 32.925781 22.179688 C 31.828125 22.121094 30.808594 22.839844 30.515625 23.933594 L 29.734375 26.835938 C 29.734375 26.835938 29.734375 26.84375 29.734375 26.84375 C 29.019531 27.453125 28.316406 28.027344 27.371094 28.542969 C 24.660156 30.019531 23.277344 32.277344 23.382812 35.066406 C 23.4375 36.640625 23.234375 38.003906 22.71875 39.492188 C 22.667969 39.640625 22.691406 39.804688 22.78125 39.933594 C 22.875 40.0625 23.023438 40.140625 23.179688 40.140625 L 29.328125 40.140625 C 29.519531 40.140625 29.6875 40.03125 29.769531 39.863281 C 31.160156 36.976562 32.910156 34.582031 35.28125 32.332031 C 36.097656 31.554688 36.769531 30.652344 37.332031 29.566406 C 38.15625 27.972656 38.847656 26.144531 39.386719 24.136719 L 40.546875 19.804688 C 40.710938 19.195312 40.625 18.554688 40.308594 18.007812 Z M 34.136719 21.441406 C 34.300781 20.828125 34.867188 20.414062 35.476562 20.410156 L 34.375 24.519531 C 34.027344 24.441406 33.667969 24.433594 33.316406 24.496094 Z M 31.457031 24.183594 C 31.613281 23.613281 32.101562 23.21875 32.664062 23.160156 L 32.179688 24.96875 C 31.761719 25.226562 31.386719 25.492188 31.035156 25.765625 Z M 39.601562 19.550781 L 38.441406 23.882812 C 37.921875 25.824219 37.257812 27.582031 36.464844 29.117188 C 35.953125 30.101562 35.347656 30.921875 34.609375 31.621094 C 32.226562 33.886719 30.445312 36.289062 29.023438 39.160156 L 23.851562 39.160156 C 24.25 37.804688 24.410156 36.476562 24.359375 35.03125 C 24.25 32.003906 26.191406 30.300781 27.839844 29.402344 C 28.964844 28.785156 29.789062 28.085938 30.582031 27.40625 C 31.3125 26.78125 32.007812 26.191406 32.925781 25.660156 C 33.410156 25.382812 34.003906 25.355469 34.515625 25.59375 C 34.699219 25.675781 34.8125 25.8125 34.863281 26.003906 C 34.917969 26.199219 34.886719 26.375 34.769531 26.539062 C 34.207031 27.339844 33.667969 27.984375 32.96875 28.699219 C 32.730469 28.945312 32.472656 29.195312 32.226562 29.4375 C 31.25 30.386719 30.238281 31.375 29.636719 32.625 C 29.519531 32.867188 29.625 33.160156 29.867188 33.277344 C 30.109375 33.394531 30.402344 33.289062 30.519531 33.046875 C 31.042969 31.953125 31.992188 31.027344 32.90625 30.136719 C 33.160156 29.890625 33.421875 29.636719 33.667969 29.382812 C 34.394531 28.640625 34.980469 27.933594 35.570312 27.101562 C 35.847656 26.703125 35.933594 26.222656 35.808594 25.753906 C 35.71875 25.417969 35.535156 25.136719 35.277344 24.925781 L 36.910156 18.828125 C 37.007812 18.472656 37.238281 18.171875 37.5625 17.984375 C 37.886719 17.800781 38.261719 17.75 38.617188 17.84375 C 38.976562 17.941406 39.273438 18.171875 39.460938 18.496094 C 39.648438 18.820312 39.699219 19.191406 39.601562 19.550781 Z M 18.613281 35.066406 C 18.714844 32.277344 17.335938 30.019531 14.625 28.542969 C 13.679688 28.027344 12.976562 27.453125 12.261719 26.84375 C 12.261719 26.84375 12.261719 26.839844 12.257812 26.835938 L 11.480469 23.933594 C 11.1875 22.839844 10.167969 22.121094 9.070312 22.179688 L 8.804688 21.1875 C 8.5 20.058594 7.398438 19.324219 6.257812 19.445312 L 6.027344 18.578125 C 5.863281 17.96875 5.46875 17.457031 4.921875 17.140625 C 4.371094 16.820312 3.734375 16.738281 3.125 16.902344 C 2.515625 17.066406 2.003906 17.457031 1.6875 18.007812 C 1.367188 18.554688 1.285156 19.195312 1.449219 19.804688 L 2.609375 24.136719 C 3.144531 26.144531 3.839844 27.972656 4.664062 29.566406 C 5.226562 30.652344 5.894531 31.554688 6.714844 32.332031 C 9.085938 34.582031 10.835938 36.976562 12.226562 39.863281 C 12.304688 40.03125 12.476562 40.140625 12.664062 40.140625 L 18.8125 40.140625 C 18.972656 40.140625 19.121094 40.0625 19.210938 39.933594 C 19.304688 39.804688 19.328125 39.640625 19.277344 39.492188 C 18.761719 38.003906 18.558594 36.640625 18.613281 35.066406 Z M 10.535156 24.183594 L 10.960938 25.765625 C 10.609375 25.492188 10.234375 25.222656 9.816406 24.96875 L 9.332031 23.160156 C 9.890625 23.21875 10.382812 23.613281 10.535156 24.183594 Z M 7.859375 21.441406 L 8.679688 24.496094 C 8.328125 24.433594 7.96875 24.441406 7.621094 24.519531 L 6.519531 20.410156 C 7.132812 20.417969 7.695312 20.828125 7.859375 21.441406 Z M 12.972656 39.164062 C 11.550781 36.289062 9.769531 33.886719 7.386719 31.625 C 6.648438 30.921875 6.042969 30.105469 5.53125 29.117188 C 4.738281 27.585938 4.074219 25.824219 3.554688 23.882812 L 2.394531 19.550781 C 2.296875 19.195312 2.347656 18.820312 2.535156 18.496094 C 2.71875 18.171875 3.019531 17.941406 3.378906 17.847656 C 3.734375 17.75 4.109375 17.800781 4.433594 17.988281 C 4.757812 18.171875 4.988281 18.472656 5.082031 18.832031 L 6.714844 24.925781 C 6.460938 25.136719 6.277344 25.421875 6.1875 25.753906 C 6.0625 26.222656 6.144531 26.703125 6.425781 27.101562 C 7.015625 27.933594 7.601562 28.640625 8.328125 29.382812 C 8.574219 29.636719 8.835938 29.890625 9.085938 30.136719 C 10.003906 31.027344 10.953125 31.953125 11.476562 33.050781 C 11.59375 33.292969 11.886719 33.394531 12.128906 33.277344 C 12.371094 33.160156 12.476562 32.867188 12.359375 32.625 C 11.757812 31.375 10.746094 30.390625 9.769531 29.4375 C 9.519531 29.195312 9.265625 28.945312 9.023438 28.699219 C 8.328125 27.988281 7.789062 27.339844 7.226562 26.539062 C 7.109375 26.375 7.078125 26.199219 7.128906 26.007812 C 7.183594 25.8125 7.296875 25.675781 7.476562 25.59375 C 7.992188 25.355469 8.585938 25.382812 9.070312 25.660156 C 9.988281 26.191406 10.679688 26.785156 11.414062 27.410156 C 12.207031 28.085938 13.03125 28.789062 14.15625 29.402344 C 15.804688 30.300781 17.746094 32.003906 17.636719 35.03125 C 17.585938 36.476562 17.746094 37.808594 18.144531 39.164062 L 12.96875 39.164062 Z M 10.738281 19.617188 L 31.109375 19.617188 C 31.378906 19.617188 31.597656 19.398438 31.597656 19.128906 L 31.597656 12.714844 C 31.597656 12.445312 31.378906 12.226562 31.109375 12.226562 L 29.855469 12.226562 L 29.855469 6.949219 L 32.253906 5.976562 C 32.4375 5.902344 32.558594 5.722656 32.558594 5.523438 C 32.558594 5.324219 32.4375 5.144531 32.253906 5.070312 L 22.015625 0.914062 C 21.898438 0.867188 21.765625 0.867188 21.648438 0.914062 L 11.410156 5.070312 C 11.222656 5.144531 11.105469 5.324219 11.105469 5.523438 C 11.105469 5.722656 11.222656 5.902344 11.410156 5.976562 L 13.808594 6.949219 L 13.808594 12.226562 L 13.214844 12.226562 C 13.070312 12.226562 12.933594 12.289062 12.839844 12.402344 L 9.921875 15.925781 C 9.597656 16.316406 9.433594 16.769531 9.433594 17.277344 L 9.433594 18.316406 C 9.433594 19.035156 10.019531 19.617188 10.738281 19.617188 Z M 10.414062 18.316406 L 10.414062 17.277344 C 10.414062 17.242188 10.414062 17.210938 10.417969 17.179688 L 12.570312 17.179688 L 12.570312 18.640625 L 10.738281 18.640625 C 10.558594 18.640625 10.414062 18.496094 10.414062 18.316406 Z M 14.585938 17.179688 L 14.585938 18.640625 L 13.546875 18.640625 L 13.546875 17.179688 Z M 15.5625 18.640625 L 15.5625 17.179688 L 30.621094 17.179688 L 30.621094 18.640625 Z M 21.832031 1.894531 L 30.769531 5.523438 L 26.136719 7.402344 L 22.070312 5.097656 C 21.835938 4.964844 21.539062 5.046875 21.40625 5.28125 C 21.273438 5.515625 21.355469 5.816406 21.589844 5.949219 L 24.980469 7.871094 L 21.832031 9.152344 L 12.890625 5.523438 Z M 26.101562 10.515625 C 26.347656 10.515625 26.546875 10.714844 26.546875 10.960938 C 26.546875 11.207031 26.347656 11.40625 26.101562 11.40625 C 25.855469 11.40625 25.65625 11.207031 25.65625 10.960938 C 25.65625 10.714844 25.855469 10.515625 26.101562 10.515625 Z M 21.648438 10.128906 C 21.707031 10.152344 21.769531 10.167969 21.832031 10.167969 C 21.894531 10.167969 21.957031 10.152344 22.015625 10.128906 L 25.617188 8.671875 L 25.617188 9.625 C 25.070312 9.824219 24.679688 10.347656 24.679688 10.960938 C 24.679688 11.746094 25.320312 12.382812 26.105469 12.382812 C 26.886719 12.382812 27.527344 11.746094 27.527344 10.960938 C 27.527344 10.347656 27.136719 9.824219 26.59375 9.625 L 26.59375 8.273438 L 28.878906 7.34375 L 28.878906 12.589844 C 24.808594 14.980469 18.855469 14.980469 14.789062 12.589844 L 14.789062 7.34375 Z M 13.445312 13.203125 L 13.945312 13.203125 C 13.972656 13.230469 14.003906 13.257812 14.039062 13.28125 C 16.207031 14.625 18.976562 15.367188 21.832031 15.367188 C 24.691406 15.367188 27.457031 14.625 29.625 13.28125 C 29.660156 13.257812 29.691406 13.234375 29.71875 13.203125 L 30.621094 13.203125 L 30.621094 16.199219 L 10.964844 16.199219 L 13.449219 13.203125 Z M 13.445312 13.203125 " fill-opacity="1" fill-rule="nonzero"/></g></svg>