<svg xmlns="http://www.w3.org/2000/svg" xmlns:xlink="http://www.w3.org/1999/xlink" width="56" zoomAndPan="magnify" viewBox="0 0 42 42" height="56" preserveAspectRatio="xMidYMid meet" version="1.0"><defs><clipPath id="aba75fe7c6"><path d="M 1.476562 0.988281 L 40.304688 0.988281 L 40.304688 39.816406 L 1.476562 39.816406 Z M 1.476562 0.988281 " clip-rule="nonzero"/></clipPath></defs><path fill="#827fc6" d="M 13.914062 17.605469 L 11.660156 27.902344 C 11.507812 27.863281 11.351562 27.847656 11.1875 27.847656 C 11.15625 27.847656 11.132812 27.847656 11.109375 27.847656 C 10.097656 27.886719 9.285156 28.734375 9.285156 29.757812 C 9.285156 30.816406 10.148438 31.671875 11.199219 31.671875 C 12.238281 31.671875 13.09375 30.824219 13.109375 29.785156 C 13.109375 29.773438 13.109375 29.765625 13.109375 29.75 C 13.109375 29.359375 12.996094 28.996094 12.785156 28.691406 L 14.875 19.257812 C 14.546875 18.648438 14.207031 18.039062 13.914062 17.605469 Z M 12.5625 29.757812 C 12.5625 30.507812 11.953125 31.117188 11.207031 31.117188 C 10.457031 31.117188 9.847656 30.507812 9.847656 29.757812 C 9.847656 29.011719 10.457031 28.402344 11.207031 28.402344 C 11.238281 28.402344 11.269531 28.402344 11.3125 28.410156 C 11.320312 28.410156 11.328125 28.410156 11.335938 28.410156 L 11.34375 28.410156 C 12.027344 28.472656 12.5625 29.050781 12.5625 29.757812 Z M 12.5625 29.757812 " fill-opacity="1" fill-rule="nonzero"/><path fill="#827fc6" d="M 19.234375 27.847656 C 19.203125 27.847656 19.175781 27.847656 19.152344 27.847656 C 18.988281 27.847656 18.835938 27.863281 18.679688 27.902344 L 16.425781 17.605469 C 16.125 18.039062 15.785156 18.648438 15.460938 19.265625 L 17.550781 28.703125 C 17.347656 29.003906 17.226562 29.367188 17.226562 29.757812 C 17.226562 29.765625 17.226562 29.773438 17.226562 29.792969 C 17.242188 30.832031 18.09375 31.671875 19.136719 31.671875 C 20.195312 31.671875 21.046875 30.808594 21.046875 29.757812 C 21.0625 28.734375 20.25 27.886719 19.234375 27.847656 Z M 19.152344 31.117188 C 18.402344 31.117188 17.792969 30.507812 17.792969 29.757812 C 17.792969 29.042969 18.347656 28.457031 19.046875 28.402344 L 19.054688 28.402344 C 19.085938 28.390625 19.128906 28.390625 19.160156 28.390625 C 19.910156 28.390625 20.519531 29.003906 20.519531 29.75 C 20.511719 30.507812 19.902344 31.117188 19.152344 31.117188 Z M 19.152344 31.117188 " fill-opacity="1" fill-rule="nonzero"/><path fill="#827fc6" d="M 16.160156 16.738281 L 15.726562 15.890625 C 15.703125 15.851562 15.6875 15.800781 15.664062 15.753906 L 14.679688 15.753906 C 14.664062 15.792969 14.636719 15.839844 14.613281 15.890625 L 14.183594 16.738281 C 14.148438 16.800781 14.117188 16.867188 14.09375 16.929688 C 14.417969 17.3125 14.792969 17.941406 15.175781 18.648438 C 15.558594 17.949219 15.921875 17.320312 16.257812 16.929688 C 16.222656 16.867188 16.199219 16.800781 16.160156 16.738281 Z M 15.175781 17.28125 C 14.972656 17.28125 14.816406 17.117188 14.816406 16.921875 C 14.816406 16.71875 14.980469 16.566406 15.175781 16.566406 C 15.378906 16.566406 15.53125 16.726562 15.53125 16.921875 C 15.539062 17.117188 15.378906 17.28125 15.175781 17.28125 Z M 15.175781 17.28125 " fill-opacity="1" fill-rule="nonzero"/><path fill="#827fc6" d="M 15.550781 15.148438 L 15.550781 12.914062 C 15.550781 12.457031 15.515625 12.003906 15.441406 11.5625 C 15.371094 11.089844 15.28125 10.691406 15.167969 10.351562 C 15.054688 10.691406 14.964844 11.097656 14.890625 11.5625 C 14.824219 12.003906 14.785156 12.457031 14.785156 12.914062 L 14.785156 15.148438 C 14.785156 15.167969 14.785156 15.191406 14.785156 15.207031 L 15.53125 15.207031 C 15.550781 15.183594 15.550781 15.160156 15.550781 15.148438 Z M 15.550781 15.148438 " fill-opacity="1" fill-rule="nonzero"/><path fill="#827fc6" d="M 30.066406 26.382812 C 29.464844 26.382812 28.90625 26.585938 28.464844 26.929688 C 27.515625 25.429688 27.71875 23.96875 27.9375 22.285156 C 27.96875 22.070312 27.992188 21.84375 28.027344 21.617188 L 28.382812 19.511719 L 29.613281 12.296875 C 29.679688 11.90625 29.6875 11.523438 29.628906 11.164062 C 29.457031 10.066406 28.808594 9.457031 27.691406 9.34375 C 27.539062 9.328125 27.410156 9.441406 27.390625 9.585938 C 27.375 9.742188 27.488281 9.871094 27.636719 9.886719 C 28.492188 9.96875 28.945312 10.40625 29.085938 11.246094 C 29.132812 11.546875 29.125 11.863281 29.066406 12.199219 L 27.878906 19.167969 L 26.238281 19.167969 L 25.050781 12.199219 C 24.992188 11.863281 24.984375 11.546875 25.035156 11.246094 C 25.164062 10.398438 25.628906 9.96875 26.480469 9.886719 C 26.636719 9.871094 26.742188 9.734375 26.726562 9.585938 C 26.707031 9.433594 26.578125 9.328125 26.425781 9.34375 C 25.308594 9.449219 24.660156 10.066406 24.488281 11.164062 C 24.429688 11.523438 24.429688 11.90625 24.503906 12.296875 L 25.734375 19.511719 L 26.089844 21.617188 C 26.125 21.84375 26.148438 22.0625 26.179688 22.285156 C 26.40625 23.96875 26.609375 25.429688 25.652344 26.929688 C 25.203125 26.585938 24.652344 26.382812 24.050781 26.382812 C 22.59375 26.382812 21.40625 27.570312 21.40625 29.027344 C 21.40625 30.484375 22.59375 31.671875 24.050781 31.671875 C 25.503906 31.671875 26.691406 30.484375 26.691406 29.027344 C 26.691406 28.375 26.457031 27.773438 26.058594 27.308594 C 27.1875 25.617188 26.960938 23.960938 26.726562 22.210938 C 26.707031 22.097656 26.691406 21.972656 26.675781 21.851562 L 27.441406 21.851562 C 27.425781 21.964844 27.410156 22.089844 27.390625 22.210938 C 27.15625 23.960938 26.929688 25.609375 28.058594 27.308594 C 27.660156 27.773438 27.425781 28.375 27.425781 29.027344 C 27.425781 30.484375 28.613281 31.671875 30.066406 31.671875 C 31.523438 31.671875 32.710938 30.484375 32.710938 29.027344 C 32.710938 27.570312 31.523438 26.382812 30.066406 26.382812 Z M 26.15625 29.027344 C 26.15625 30.183594 25.210938 31.125 24.066406 31.125 C 22.910156 31.125 21.976562 30.183594 21.976562 29.027344 C 21.976562 27.871094 22.917969 26.9375 24.066406 26.9375 C 25.210938 26.929688 26.15625 27.871094 26.15625 29.027344 Z M 26.601562 21.308594 L 26.335938 19.730469 L 27.789062 19.730469 L 27.523438 21.308594 Z M 30.066406 31.117188 C 28.914062 31.117188 27.96875 30.171875 27.96875 29.019531 C 27.96875 27.863281 28.914062 26.929688 30.066406 26.929688 C 31.222656 26.929688 32.160156 27.871094 32.160156 29.019531 C 32.160156 30.183594 31.222656 31.117188 30.066406 31.117188 Z M 30.066406 31.117188 " fill-opacity="1" fill-rule="nonzero"/><g clip-path="url(#aba75fe7c6)"><path fill="#827fc6" d="M 38.984375 12.914062 C 38 10.585938 36.589844 8.503906 34.800781 6.707031 C 33.011719 4.917969 30.921875 3.511719 28.597656 2.527344 C 26.1875 1.507812 23.632812 0.988281 21 0.988281 C 18.363281 0.988281 15.808594 1.5 13.402344 2.527344 C 11.074219 3.511719 8.992188 4.917969 7.195312 6.707031 C 5.398438 8.496094 4 10.585938 3.015625 12.914062 C 1.996094 15.320312 1.476562 17.875 1.476562 20.511719 C 1.476562 23.144531 1.988281 25.699219 3.015625 28.109375 C 4 30.433594 5.40625 32.515625 7.195312 34.3125 C 8.984375 36.101562 11.074219 37.511719 13.402344 38.496094 C 15.808594 39.511719 18.363281 40.03125 21 40.03125 C 23.632812 40.03125 26.1875 39.519531 28.597656 38.496094 C 30.921875 37.511719 33.003906 36.101562 34.800781 34.3125 C 36.589844 32.523438 38 30.433594 38.984375 28.109375 C 40 25.699219 40.519531 23.144531 40.519531 20.511719 C 40.519531 17.875 40 15.320312 38.984375 12.914062 Z M 39.789062 20.511719 C 39.789062 30.875 31.351562 39.308594 20.992188 39.308594 C 10.628906 39.308594 2.191406 30.875 2.191406 20.511719 C 2.191406 10.148438 10.628906 1.710938 20.992188 1.710938 C 31.363281 1.710938 39.789062 10.148438 39.789062 20.511719 Z M 39.789062 20.511719 " fill-opacity="1" fill-rule="nonzero"/></g></svg>