<svg xmlns="http://www.w3.org/2000/svg" xmlns:xlink="http://www.w3.org/1999/xlink" width="56" zoomAndPan="magnify" viewBox="0 0 42 42" height="56" preserveAspectRatio="xMidYMid meet" version="1.0"><defs><clipPath id="f83b56b871"><path d="M 15 30 L 27 30 L 27 40.707031 L 15 40.707031 Z M 15 30 " clip-rule="nonzero"/></clipPath><clipPath id="58b22cbc95"><path d="M 4.246094 0.414062 L 37.941406 0.414062 L 37.941406 32 L 4.246094 32 Z M 4.246094 0.414062 " clip-rule="nonzero"/></clipPath></defs><path fill="#827fc6" d="M 20.996094 7.390625 C 18.355469 7.390625 16.191406 9.152344 16.191406 12.214844 C 16.191406 13.132812 16.390625 14.066406 16.742188 14.914062 C 17.53125 16.910156 19.144531 18.492188 20.996094 18.492188 C 22.847656 18.492188 24.480469 16.914062 25.269531 14.914062 C 25.621094 14.070312 25.800781 13.132812 25.800781 12.214844 C 25.800781 9.152344 23.65625 7.390625 20.996094 7.390625 Z M 20.996094 7.390625 " fill-opacity="1" fill-rule="nonzero"/><path fill="#827fc6" d="M 13.273438 35.335938 C 13.1875 35.066406 13.285156 34.769531 13.511719 34.601562 L 15.664062 33.042969 C 16.175781 32.667969 15.914062 31.855469 15.277344 31.855469 L 12.621094 31.855469 C 12.339844 31.855469 12.085938 31.671875 12 31.402344 L 11.179688 28.875 C 10.984375 28.269531 10.128906 28.269531 9.929688 28.875 L 9.109375 31.402344 C 9.023438 31.671875 8.769531 31.855469 8.484375 31.855469 L 5.832031 31.855469 C 5.195312 31.855469 4.929688 32.667969 5.445312 33.042969 L 7.59375 34.601562 C 7.824219 34.769531 7.921875 35.066406 7.835938 35.335938 L 7.015625 37.863281 C 6.820312 38.464844 7.507812 38.96875 8.027344 38.59375 L 10.175781 37.035156 C 10.40625 36.867188 10.71875 36.867188 10.945312 37.035156 L 13.097656 38.59375 C 13.609375 38.96875 14.304688 38.464844 14.105469 37.863281 L 13.289062 35.335938 Z M 13.273438 35.335938 " fill-opacity="1" fill-rule="nonzero"/><path fill="#827fc6" d="M 36.550781 33.042969 C 37.066406 32.667969 36.800781 31.855469 36.167969 31.855469 L 33.511719 31.855469 C 33.230469 31.855469 32.976562 31.671875 32.890625 31.402344 L 32.070312 28.875 C 31.875 28.269531 31.015625 28.269531 30.820312 28.875 L 30 31.402344 C 29.910156 31.671875 29.660156 31.855469 29.375 31.855469 L 26.722656 31.855469 C 26.085938 31.855469 25.820312 32.667969 26.335938 33.042969 L 28.484375 34.601562 C 28.714844 34.769531 28.8125 35.066406 28.722656 35.335938 L 27.902344 37.863281 C 27.707031 38.464844 28.398438 38.96875 28.914062 38.59375 L 31.066406 37.035156 C 31.292969 36.867188 31.605469 36.867188 31.835938 37.035156 L 33.984375 38.59375 C 34.5 38.96875 35.191406 38.464844 34.996094 37.863281 L 34.175781 35.335938 C 34.089844 35.066406 34.1875 34.769531 34.417969 34.601562 L 36.566406 33.042969 Z M 36.550781 33.042969 " fill-opacity="1" fill-rule="nonzero"/><g clip-path="url(#f83b56b871)"><path fill="#827fc6" d="M 25.71875 33.484375 L 23.066406 33.484375 C 22.78125 33.484375 22.53125 33.300781 22.441406 33.03125 L 21.621094 30.503906 C 21.425781 29.898438 20.570312 29.898438 20.371094 30.503906 L 19.550781 33.03125 C 19.464844 33.300781 19.210938 33.484375 18.929688 33.484375 L 16.273438 33.484375 C 15.636719 33.484375 15.371094 34.296875 15.890625 34.671875 L 18.039062 36.230469 C 18.269531 36.398438 18.363281 36.695312 18.277344 36.964844 L 17.457031 39.492188 C 17.261719 40.09375 17.953125 40.597656 18.46875 40.222656 L 20.617188 38.664062 C 20.847656 38.496094 21.160156 38.496094 21.390625 38.664062 L 23.539062 40.222656 C 24.054688 40.597656 24.746094 40.09375 24.550781 39.492188 L 23.730469 36.964844 C 23.640625 36.695312 23.738281 36.398438 23.96875 36.230469 L 26.117188 34.671875 C 26.632812 34.296875 26.367188 33.484375 25.734375 33.484375 Z M 25.71875 33.484375 " fill-opacity="1" fill-rule="nonzero"/></g><g clip-path="url(#58b22cbc95)"><path fill="#827fc6" d="M 8.089844 28.28125 C 8.4375 27.210938 9.425781 26.488281 10.550781 26.488281 C 11.679688 26.488281 12.664062 27.207031 13.011719 28.28125 L 13.546875 29.921875 L 15.277344 29.921875 C 16.34375 29.921875 17.277344 30.574219 17.671875 31.554688 L 18 31.554688 L 18.535156 29.910156 C 18.886719 28.835938 19.871094 28.117188 21 28.117188 C 22.125 28.117188 23.109375 28.832031 23.460938 29.910156 L 23.996094 31.554688 L 24.324219 31.554688 C 24.71875 30.574219 25.652344 29.921875 26.722656 29.921875 L 28.449219 29.921875 L 28.984375 28.28125 C 29.160156 27.742188 29.492188 27.300781 29.925781 26.984375 C 30.355469 26.667969 30.882812 26.488281 31.445312 26.488281 C 32.574219 26.488281 33.5625 27.207031 33.90625 28.28125 L 33.976562 28.5 C 36.324219 25.53125 37.734375 21.75 37.734375 17.632812 C 37.734375 8.132812 30.230469 0.40625 21.003906 0.40625 C 11.773438 0.40625 4.261719 8.132812 4.261719 17.632812 C 4.261719 21.75 5.671875 25.53125 8.019531 28.5 Z M 21 4.71875 C 27.84375 4.71875 33.417969 10.515625 33.417969 17.632812 C 33.417969 20.667969 32.402344 23.457031 30.710938 25.664062 L 30.234375 23.941406 C 30.085938 22.898438 29.59375 21.925781 28.859375 21.1875 C 28.363281 20.714844 27.78125 20.382812 27.152344 20.144531 L 25.226562 19.597656 C 24.84375 19.410156 24.363281 19.613281 24.234375 20.035156 L 22.125 25.28125 L 21.8125 22.363281 C 22.144531 22.308594 22.402344 22.015625 22.402344 21.667969 L 22.402344 21.023438 C 22.402344 20.621094 22.085938 20.308594 21.683594 20.308594 L 20.308594 20.308594 C 19.90625 20.308594 19.574219 20.621094 19.574219 21.023438 L 19.574219 21.667969 C 19.574219 22.015625 19.847656 22.308594 20.179688 22.363281 L 19.847656 25.246094 L 17.777344 20.015625 C 17.644531 19.597656 17.1875 19.394531 16.785156 19.574219 L 14.820312 20.144531 C 14.199219 20.382812 13.609375 20.714844 13.132812 21.1875 C 12.378906 21.925781 11.882812 22.898438 11.738281 23.941406 L 11.269531 25.660156 C 9.578125 23.453125 8.566406 20.667969 8.566406 17.632812 C 8.566406 10.515625 14.140625 4.71875 20.988281 4.71875 Z M 21 4.71875 " fill-opacity="1" fill-rule="nonzero"/></g></svg>