<svg width="48" height="48" viewBox="0 0 48 48" fill="none" xmlns="http://www.w3.org/2000/svg">
<path d="M16.0204 42.4038C18.3313 44.2202 20.8635 45.54 23.6151 46.4214L23.9999 46.5869L24.3847 46.4773C27.1361 45.5959 29.6684 44.2202 31.9793 42.4597C38.0326 37.7262 41.5 30.6283 41.5 23.0336V8.61638L24 2.56311L6.5 8.61638V23.0336C6.5 30.6283 9.96707 37.7262 16.0204 42.4038ZM9.19786 10.5427L23.9998 5.42446L38.8017 10.5427V23.0339C38.8017 29.8564 35.7191 36.1315 30.3816 40.3121C28.4555 41.8534 26.3102 43.0077 24.0531 43.7794C21.796 43.0099 19.6508 41.8534 17.7247 40.3121C12.2777 36.1311 9.19731 29.8025 9.19731 23.0339L9.19786 10.5427Z" fill="#e11d48"/>
<path d="M32.5856 20.3394L30.6595 18.4133L21.2484 27.8779L17.3404 23.9699L15.4143 25.8959L21.2486 31.6741L32.5856 20.3394Z" fill="#e11d48"/>
</svg>
