<svg width="48" height="48" viewBox="0 0 48 48" fill="none" xmlns="http://www.w3.org/2000/svg">
<path d="M22.5191 40.6515C22.9635 40.9283 23.4762 41.075 23.9993 41.075C24.5223 41.075 25.035 40.9283 25.4794 40.6515C29.0255 38.4756 40.6608 30.4732 41.4728 18.7791C41.5754 17.3555 41.3867 15.9258 40.9183 14.578C40.4499 13.2302 39.7117 11.9928 38.749 10.9418C37.9181 10.0367 36.9089 9.3146 35.7854 8.82113C34.6619 8.32765 33.4486 8.07357 32.2221 8.07496C30.5102 8.08686 28.8351 8.57515 27.3834 9.48547C25.9316 10.3958 24.7601 11.6924 23.9993 13.2311C23.2384 11.6924 22.0669 10.3958 20.6152 9.48547C19.1634 8.57515 17.4883 8.08686 15.7764 8.07496C14.5534 8.07642 13.344 8.33188 12.2242 8.82527C11.1045 9.31866 10.0986 10.0393 9.27007 10.9418C8.30374 11.9911 7.56174 13.2277 7.08976 14.5756C6.61778 15.9235 6.42582 17.354 6.5257 18.7791C7.3377 30.4732 18.973 38.4756 22.5191 40.6515ZM10.7707 12.3546C11.4063 11.657 12.1795 11.0997 13.0413 10.7181C13.903 10.3364 14.8344 10.1386 15.7764 10.1374C17.3762 10.1478 18.9269 10.6929 20.1834 11.6865C21.4399 12.68 22.3305 14.0654 22.7144 15.6235C22.7869 15.9075 22.9515 16.1591 23.1823 16.3389C23.413 16.5186 23.6969 16.6161 23.989 16.6161C24.2811 16.6161 24.5649 16.5186 24.7957 16.3389C25.0265 16.1591 25.1911 15.9075 25.2635 15.6235C25.6483 14.062 26.542 12.6741 27.8027 11.6801C29.0633 10.6862 30.6188 10.1433 32.2221 10.1374C33.1624 10.1401 34.0918 10.3385 34.9517 10.7201C35.8115 11.1018 36.5831 11.6583 37.2175 12.3546C37.9914 13.1978 38.5856 14.1906 38.9638 15.2723C39.342 16.3539 39.4963 17.5016 39.4171 18.645C38.6771 29.3389 27.7407 36.8462 24.4104 38.8984C24.2865 38.974 24.1443 39.0139 23.9993 39.0139C23.8543 39.0139 23.712 38.974 23.5881 38.8984C20.2579 36.8462 9.32147 29.3389 8.58141 18.645C8.50088 17.5023 8.6535 16.355 9.02993 15.2734C9.40636 14.1919 9.99871 13.1987 10.7707 12.3546Z" fill="#e11d48"/>
</svg>
