<svg width="57" height="57" viewBox="0 0 57 57" fill="none" xmlns="http://www.w3.org/2000/svg">
<mask id="path-1-outside-1_114_3" maskUnits="userSpaceOnUse" x="16.7521" y="1.16968" width="24" height="54" fill="black">
<rect fill="white" x="16.7521" y="1.16968" width="24" height="54"/>
<path d="M19.1864 10.6732C19.141 10.7121 19.1021 10.751 19.0632 10.7899C18.1882 11.6843 17.4947 13.3695 17.8447 14.6269C18.0457 15.3528 18.5836 15.8454 19.3873 16.0528C19.8604 16.1759 20.3401 16.1176 20.7743 15.8907C20.9688 15.7805 21.1438 15.6315 21.3058 15.4759C21.3836 15.4046 21.4613 15.3268 21.5391 15.2685C21.5067 15.5472 21.3771 15.9102 21.2928 16.1565L21.2345 16.3315C21.0595 16.837 20.8456 17.2907 20.5604 17.7444C20.3206 18.1333 20.0678 18.5416 19.7762 18.911C19.4132 19.4296 19.1475 19.9092 18.953 20.4212V20.4277C18.6808 20.8036 18.5123 21.2573 18.5123 21.7564V22.5989C18.4994 22.8906 18.4994 23.1628 18.5123 23.4415V32.0358C18.5123 33.2802 19.5299 34.2978 20.7743 34.2978H20.7808C20.7873 34.2978 20.7873 34.2978 20.7938 34.2978L21.4354 34.22C21.4873 34.7839 21.5197 35.3607 21.5067 35.9376C21.4419 38.5431 20.5928 40.332 19.8475 41.9069C18.953 43.78 18.1882 45.4004 19.0568 47.7402C19.7114 49.4966 21.578 52.4651 21.8502 52.8993V53.9752C21.8502 54.0854 21.941 54.1697 22.0447 54.1697H32.7843C32.888 54.1697 32.9722 54.0919 32.9787 53.9882C33.0695 53.016 33.2833 50.9873 33.6722 48.2587C33.7241 47.8957 33.763 47.5846 33.7954 47.3189C33.8602 46.7874 33.912 46.405 33.9898 46.2883C34.8324 44.9078 35.8176 44.1819 36.7703 43.4819C37.749 42.756 38.6758 42.0754 39.4018 40.7662C40.8925 38.0894 39.8036 34.3367 38.1638 31.984C37.8657 31.5238 37.5092 31.0831 37.0685 30.6423C36.4787 30.072 35.8176 29.5729 35.0981 29.1646C35.0722 29.1516 35.0528 29.1322 35.0333 29.1257C34.8518 28.6979 34.6509 28.16 34.5018 27.6998C34.5018 27.6933 34.5083 27.6933 34.5018 27.6868C34.5018 27.6803 34.4954 27.6803 34.4889 27.6739C34.3593 27.259 34.2685 26.9155 34.2944 26.7859C34.3074 26.7211 34.3268 26.6433 34.3528 26.5396C34.5213 25.8526 34.8454 24.5758 34.0935 23.8758C33.7176 23.5258 32.4408 22.748 31.0926 21.9249C29.8936 21.199 28.2538 20.1944 28.0983 19.961C27.839 19.5981 27.4436 18.8397 27.2751 18.5157L27.2427 18.4509C27.2427 18.4509 27.2427 18.4444 27.2427 18.4379L27.2622 18.3601C27.2881 18.1657 27.3399 17.9583 27.4242 17.725C27.4242 17.712 27.4307 17.699 27.4307 17.6861C27.4696 17.5759 27.5149 17.4787 27.5733 17.362C27.6446 17.2064 27.7288 17.0639 27.839 16.9083L27.8844 16.8435C27.9362 16.7722 28.0529 16.5972 28.0918 16.5713C28.1501 16.5713 28.3121 16.662 28.3834 16.7009L28.4936 16.7592C28.5908 16.7981 28.6881 16.837 28.7853 16.8824C28.889 16.9277 28.9862 16.9731 29.0899 17.012C29.5955 17.2259 29.9973 17.349 30.3797 17.4009C30.5352 17.4398 30.7102 17.4398 30.8593 17.4009C31.1639 17.3426 31.488 17.0768 31.6371 16.7592C31.7213 16.5518 31.6954 16.3509 31.676 16.1759C31.663 16.0592 31.65 15.9555 31.676 15.8065L31.8445 15.7805C32.026 15.7611 32.363 15.7157 32.4084 15.3722C32.4343 15.262 32.4213 15.1519 32.3889 15.0546C32.4667 15.0222 32.538 14.9704 32.5963 14.9056C32.726 14.7695 32.7843 14.588 32.7519 14.4195C32.7389 14.3482 32.7195 14.2898 32.6935 14.2315C32.6741 14.1796 32.6547 14.1343 32.6547 14.1148C32.6611 14.05 32.7713 13.9787 32.9009 13.9463L33.0241 13.9269C33.1861 13.9074 33.3741 13.8815 33.5361 13.7713C33.8278 13.5704 33.8796 13.188 33.8083 12.9028C33.75 12.6436 33.588 12.4232 33.4259 12.2093C33.2509 11.9889 33.0241 11.6584 33.0111 11.3278C33.0047 11.0556 33.1278 10.7899 33.2639 10.5177C33.3352 10.3751 33.4065 10.226 33.4519 10.0834C33.75 9.33807 33.6398 8.52142 33.5102 7.7631C33.4972 7.63347 33.4778 7.52329 33.4648 7.4131L33.4454 7.3094C33.387 6.93348 33.3287 6.5446 33.1472 6.14924C32.7519 5.24833 32.026 4.45112 30.9954 3.77706C30.2241 3.28447 29.3427 2.87615 28.3834 2.57152C27.6705 2.33171 26.964 2.20208 26.277 2.16968C26.2187 2.16968 26.1603 2.16968 26.102 2.16968C24.1057 2.16968 22.4335 3.30392 21.8113 5.09277C21.7724 5.20296 21.74 5.33258 21.7076 5.46221C21.6558 5.66313 21.6039 5.87054 21.5197 6.03905C21.4937 6.00665 21.4678 5.98072 21.4354 5.94831C21.3576 5.85757 21.2734 5.76035 21.1891 5.69554C20.9882 5.51406 20.7289 5.41036 20.4891 5.41036C19.8216 5.41036 19.2253 6.14924 18.8234 6.64182L18.7262 6.76497C18.0781 7.58162 17.8901 8.32049 18.1753 8.96215C18.279 9.23437 18.4605 9.47418 18.6808 9.66214C18.7716 9.75288 18.9077 9.82417 19.0503 9.89546C19.2382 9.99269 19.4845 10.1223 19.4975 10.2584C19.5169 10.3751 19.316 10.5566 19.1864 10.6732ZM39.0647 40.5783C38.3777 41.8097 37.4898 42.4708 36.5435 43.1708C35.5583 43.8967 34.5472 44.6485 33.6657 46.0874C33.5426 46.2819 33.5037 46.6124 33.4195 47.28C33.387 47.5392 33.3482 47.8503 33.2963 48.2133C32.9334 50.7929 32.7195 52.7503 32.6222 53.7808H22.2521V52.841C22.2521 52.8021 22.2391 52.7632 22.2197 52.7373C22.2002 52.7049 20.1132 49.4253 19.4327 47.6041C18.6225 45.4198 19.3225 43.9421 20.2104 42.0754C20.9752 40.4681 21.8437 38.6403 21.9086 35.9506C21.9215 35.3543 21.8891 34.758 21.8373 34.1747L37.911 32.308C39.4471 34.57 40.4582 38.0894 39.0647 40.5783ZM36.7962 30.934C37.1268 31.2645 37.4055 31.6016 37.6518 31.9451L21.6104 33.8117L20.7808 33.9024C19.7503 33.9024 18.9142 33.0663 18.9142 32.0358V23.4156C18.9012 23.1563 18.9012 22.8971 18.9142 22.6184V21.7564C18.9142 20.7258 19.7503 19.8897 20.7808 19.8897C21.3965 19.8897 21.8826 20.2397 22.1224 20.4471C23.4317 21.5943 23.49 23.7397 23.3733 26.1183C23.3669 26.1442 23.3539 26.1702 23.3669 26.1961C23.3669 26.1961 23.3733 26.1961 23.3733 26.2026C23.3539 26.5461 23.3345 26.9026 23.315 27.2526C23.2178 28.8275 23.0039 30.422 22.6669 31.9904C22.6409 32.0941 22.7122 32.2043 22.8159 32.2238C22.9261 32.2497 23.0298 32.1784 23.0493 32.0747C23.1919 31.4006 23.302 30.7201 23.4057 30.0396L34.9491 29.547C35.6231 29.9294 36.2518 30.396 36.7962 30.934ZM34.625 29.1581L23.4706 29.6377C23.5094 29.3396 23.5289 29.0414 23.5613 28.7498C24.6631 28.8729 25.7585 28.9377 26.8474 28.9377C29.3297 28.9377 31.7862 28.6136 34.1843 27.985C34.3333 28.4322 34.5148 28.8859 34.625 29.1581ZM30.8982 22.2749C32.175 23.0526 33.4908 23.8498 33.8343 24.1739C34.4176 24.7183 34.1324 25.8526 33.9833 26.4554C33.9574 26.5591 33.9315 26.6498 33.9185 26.7146C33.8796 26.8896 33.9509 27.2266 34.0611 27.6026C30.6584 28.4905 27.139 28.7433 23.5937 28.3544C23.6261 27.9979 23.678 27.635 23.6974 27.2785C23.7169 26.9415 23.7363 26.6109 23.7557 26.2804C26.4196 25.4572 28.7853 24.0897 30.788 22.2101C30.8334 22.2295 30.8593 22.2489 30.8982 22.2749ZM33.05 7.36773L33.063 7.47143C33.0759 7.58162 33.0954 7.6918 33.1084 7.82791C33.238 8.57327 33.3352 9.2927 33.0695 9.94732C33.0176 10.0834 32.9528 10.2131 32.8945 10.3492C32.7454 10.6603 32.5898 10.9779 32.6028 11.3473C32.6222 11.788 32.8945 12.1899 33.1084 12.4621C33.238 12.6371 33.3741 12.8121 33.413 12.9936C33.4519 13.1426 33.4389 13.35 33.3028 13.4408C33.2185 13.4991 33.0954 13.5121 32.9658 13.5315C32.9204 13.538 32.875 13.5445 32.8167 13.551C32.4861 13.6352 32.2787 13.8297 32.2593 14.0889C32.2593 14.1991 32.2917 14.2898 32.3241 14.3611C32.3371 14.4 32.3565 14.4389 32.3565 14.4713C32.3695 14.5361 32.3371 14.5945 32.3047 14.6269C32.2528 14.6787 32.175 14.7046 32.1167 14.7046C32.0389 14.6982 31.9612 14.7306 31.9223 14.7954C31.8834 14.8602 31.8834 14.9509 31.9287 15.0093C31.9871 15.0935 32.0195 15.2102 32.0065 15.2944C32 15.3333 31.9871 15.3528 31.7862 15.3787C31.7537 15.3852 31.7149 15.3852 31.7149 15.3917C31.5917 15.3917 31.4362 15.437 31.3519 15.5667C31.3001 15.6315 31.2676 15.7157 31.2676 15.7805C31.2417 15.9361 31.2612 16.0852 31.2741 16.2148C31.2936 16.3639 31.3065 16.4935 31.2676 16.5972C31.1769 16.7852 30.9565 16.9731 30.7686 17.012C30.6778 17.0314 30.5612 17.0314 30.451 17.0055C30.0816 16.9537 29.7121 16.837 29.2325 16.6361C29.1353 16.5972 29.0381 16.5583 28.9408 16.5129C28.8371 16.4676 28.7399 16.4222 28.6492 16.3898L28.5714 16.3509C28.3834 16.2472 28.1566 16.1241 27.9621 16.2018C27.7936 16.2796 27.6575 16.4741 27.5603 16.6166L27.5214 16.675C27.3983 16.85 27.301 17.0185 27.2233 17.1935C27.1585 17.3231 27.1066 17.4398 27.0612 17.5694C27.0548 17.5824 27.0548 17.5953 27.0548 17.6148C26.964 17.8675 26.9122 18.0879 26.8862 18.2759C26.8733 18.3083 26.8668 18.3407 26.8538 18.4185C26.8344 18.4703 26.8409 18.5286 26.8668 18.574L26.9381 18.7101C27.1261 19.0666 27.5214 19.8184 27.7872 20.1944C27.9557 20.4536 28.9214 21.0629 30.438 21.9897C28.5325 23.7526 26.29 25.0489 23.7752 25.8526C23.8789 23.4869 23.7687 21.3675 22.3752 20.1555C22.0965 19.9092 21.5132 19.5008 20.7743 19.5008C20.3854 19.5008 20.0225 19.611 19.6984 19.786C19.8151 19.5786 19.9447 19.3712 20.0938 19.1573C20.3984 18.7749 20.6512 18.3601 20.9104 17.9388C21.1956 17.4787 21.4225 16.999 21.6104 16.4611L21.6687 16.2926C21.7984 15.9102 21.9604 15.4176 21.928 15.0352C21.9734 14.9704 22.0187 14.9056 22.0641 14.8343C22.3298 14.4389 22.6021 14.0306 23.0169 14.0111C23.1335 13.9982 23.2437 14.0176 23.3604 14.0241C23.6391 14.05 23.9631 14.0759 24.2354 13.888C24.5724 13.6547 24.6242 13.2463 24.6696 12.8834C24.6826 12.7732 24.6955 12.663 24.715 12.5593C24.7928 12.1899 25.0131 11.8658 25.2529 11.5223C25.3826 11.3278 25.5187 11.1334 25.6289 10.9195C25.7261 10.738 25.7779 10.5566 25.8168 10.3751C25.8557 10.5047 25.8751 10.6538 25.9335 10.7704C26.1474 11.1982 26.5038 11.5158 26.9186 11.6584C26.977 11.6778 27.1066 11.7232 27.2362 11.7232C27.3399 11.7232 27.4501 11.6973 27.5344 11.613C27.6575 11.4964 27.6834 11.3019 27.6057 11.0556C27.5733 10.9519 27.4696 10.8936 27.3594 10.926C27.2557 10.9584 27.1973 11.0686 27.2298 11.1723C27.2622 11.2695 27.2622 11.3214 27.2622 11.3278C27.2362 11.3278 27.1779 11.3343 27.0483 11.289C26.7372 11.1853 26.4585 10.926 26.29 10.6019C26.102 10.2195 26.0307 9.73343 26.089 9.11122C26.1538 8.43716 26.3548 7.9705 26.6853 7.71773C26.7501 7.67236 26.9186 7.56217 27.0677 7.60106C27.2168 7.63995 27.301 7.82791 27.314 7.98346C27.3205 8.17142 27.2686 8.44364 27.1649 8.57327C27.0936 8.65753 27.1066 8.78067 27.1909 8.85197C27.2751 8.91678 27.3983 8.9103 27.4696 8.81956C27.5344 8.7353 27.5733 8.62512 27.6122 8.51493C27.8455 8.839 28.1047 9.15659 28.4677 9.37696C28.5714 9.43529 28.7334 9.51955 28.9149 9.51955C28.9279 9.51955 28.9344 9.51955 28.9473 9.51955C29.3816 9.49362 29.589 9.05937 29.7056 8.7353L29.8677 8.28809C29.8806 8.24272 29.9001 8.19087 29.926 8.16494C29.9584 8.13253 30.0427 8.12605 30.1529 8.1455L30.2436 8.16494C30.3667 8.19735 30.5028 8.22327 30.6454 8.20383C30.8334 8.17142 30.976 8.06124 31.0991 7.96402C31.1445 7.92513 31.1899 7.89272 31.2417 7.86032C31.3713 7.77606 31.5269 7.73717 31.7019 7.6918C31.7797 7.67236 31.851 7.65291 31.9223 7.62699C32.3371 7.49736 32.6806 7.23162 32.9658 6.91404C33.0047 7.06311 33.0306 7.21218 33.05 7.36773ZM19.4456 10.9714C19.653 10.7834 19.9382 10.5242 19.8864 10.2001C19.854 9.86306 19.5104 9.68158 19.2317 9.53899C19.1151 9.48066 18.9984 9.41584 18.9401 9.35751C18.7586 9.20196 18.6225 9.014 18.5382 8.79363C18.3114 8.28809 18.4799 7.68532 19.0308 6.9983L19.128 6.87515C19.4586 6.4733 20.003 5.79276 20.4827 5.79276C20.6317 5.79276 20.7873 5.85757 20.9299 5.9872C21.0012 6.03905 21.066 6.11683 21.1308 6.19461C21.2215 6.30479 21.3187 6.41497 21.4484 6.48627C21.5262 6.53164 21.6363 6.51867 21.6947 6.44738C21.915 6.20109 22.0058 5.85109 22.0835 5.54647C22.116 5.4298 22.1419 5.31314 22.1743 5.20944C22.7511 3.53076 24.378 2.48078 26.2511 2.55208C26.8992 2.58449 27.5733 2.70763 28.2473 2.93448C29.1806 3.22614 30.0297 3.6215 30.7686 4.09464C31.7343 4.72982 32.4084 5.46869 32.7778 6.29831C32.8037 6.35664 32.8102 6.40849 32.8361 6.46682C32.5769 6.8233 32.2204 7.102 31.7991 7.23162C31.7343 7.25107 31.663 7.27051 31.5917 7.28996C31.4038 7.34181 31.2028 7.39366 31.0214 7.51032C30.963 7.54921 30.9047 7.59458 30.8464 7.63347C30.7491 7.71124 30.6584 7.77606 30.5741 7.7955C30.5093 7.80847 30.4186 7.78902 30.3278 7.7631L30.2241 7.73717C29.9779 7.68532 29.7704 7.73069 29.6408 7.8668C29.5566 7.95106 29.5177 8.05476 29.4918 8.12605L29.3297 8.57327C29.2066 8.91678 29.0705 9.08529 28.9214 9.09178C28.8566 9.10474 28.7723 9.06585 28.6686 9.00752C28.2538 8.76123 27.9557 8.33346 27.7029 7.95106C27.7029 7.94457 27.7029 7.93809 27.7029 7.93161C27.6834 7.57514 27.4631 7.27051 27.1714 7.19274C26.9446 7.12792 26.6853 7.19274 26.4455 7.37421C26.0177 7.6918 25.765 8.25568 25.6937 9.04641C25.6872 9.12418 25.7002 9.18252 25.6937 9.26029V9.26677C25.5835 9.50658 25.5381 9.75288 25.4992 9.99269C25.4539 10.2519 25.4085 10.4982 25.2918 10.7251C25.1881 10.9195 25.065 11.0945 24.9354 11.289C24.6891 11.6519 24.4363 12.0214 24.3391 12.4686C24.3131 12.5852 24.3002 12.7019 24.2872 12.825C24.2483 13.1297 24.2159 13.4148 24.015 13.551C23.8594 13.6611 23.6456 13.6417 23.3993 13.6222C23.2632 13.6093 23.1335 13.6028 22.9974 13.6093C22.3817 13.6482 22.0252 14.1796 21.74 14.6139C21.7076 14.6658 21.6752 14.7111 21.6428 14.7565C21.4225 14.8472 21.228 15.0222 21.0465 15.1907C20.8975 15.3268 20.7484 15.463 20.5993 15.5472C20.2428 15.7287 19.8734 15.7676 19.491 15.6704C18.8169 15.4954 18.3957 15.113 18.2271 14.5167C17.916 13.4148 18.5642 11.8658 19.3419 11.0686C19.3743 11.0362 19.4067 11.0038 19.4456 10.9714Z"/>
</mask>
<path d="M19.1864 10.6732C19.141 10.7121 19.1021 10.751 19.0632 10.7899C18.1882 11.6843 17.4947 13.3695 17.8447 14.6269C18.0457 15.3528 18.5836 15.8454 19.3873 16.0528C19.8604 16.1759 20.3401 16.1176 20.7743 15.8907C20.9688 15.7805 21.1438 15.6315 21.3058 15.4759C21.3836 15.4046 21.4613 15.3268 21.5391 15.2685C21.5067 15.5472 21.3771 15.9102 21.2928 16.1565L21.2345 16.3315C21.0595 16.837 20.8456 17.2907 20.5604 17.7444C20.3206 18.1333 20.0678 18.5416 19.7762 18.911C19.4132 19.4296 19.1475 19.9092 18.953 20.4212V20.4277C18.6808 20.8036 18.5123 21.2573 18.5123 21.7564V22.5989C18.4994 22.8906 18.4994 23.1628 18.5123 23.4415V32.0358C18.5123 33.2802 19.5299 34.2978 20.7743 34.2978H20.7808C20.7873 34.2978 20.7873 34.2978 20.7938 34.2978L21.4354 34.22C21.4873 34.7839 21.5197 35.3607 21.5067 35.9376C21.4419 38.5431 20.5928 40.332 19.8475 41.9069C18.953 43.78 18.1882 45.4004 19.0568 47.7402C19.7114 49.4966 21.578 52.4651 21.8502 52.8993V53.9752C21.8502 54.0854 21.941 54.1697 22.0447 54.1697H32.7843C32.888 54.1697 32.9722 54.0919 32.9787 53.9882C33.0695 53.016 33.2833 50.9873 33.6722 48.2587C33.7241 47.8957 33.763 47.5846 33.7954 47.3189C33.8602 46.7874 33.912 46.405 33.9898 46.2883C34.8324 44.9078 35.8176 44.1819 36.7703 43.4819C37.749 42.756 38.6758 42.0754 39.4018 40.7662C40.8925 38.0894 39.8036 34.3367 38.1638 31.984C37.8657 31.5238 37.5092 31.0831 37.0685 30.6423C36.4787 30.072 35.8176 29.5729 35.0981 29.1646C35.0722 29.1516 35.0528 29.1322 35.0333 29.1257C34.8518 28.6979 34.6509 28.16 34.5018 27.6998C34.5018 27.6933 34.5083 27.6933 34.5018 27.6868C34.5018 27.6803 34.4954 27.6803 34.4889 27.6739C34.3593 27.259 34.2685 26.9155 34.2944 26.7859C34.3074 26.7211 34.3268 26.6433 34.3528 26.5396C34.5213 25.8526 34.8454 24.5758 34.0935 23.8758C33.7176 23.5258 32.4408 22.748 31.0926 21.9249C29.8936 21.199 28.2538 20.1944 28.0983 19.961C27.839 19.5981 27.4436 18.8397 27.2751 18.5157L27.2427 18.4509C27.2427 18.4509 27.2427 18.4444 27.2427 18.4379L27.2622 18.3601C27.2881 18.1657 27.3399 17.9583 27.4242 17.725C27.4242 17.712 27.4307 17.699 27.4307 17.6861C27.4696 17.5759 27.5149 17.4787 27.5733 17.362C27.6446 17.2064 27.7288 17.0639 27.839 16.9083L27.8844 16.8435C27.9362 16.7722 28.0529 16.5972 28.0918 16.5713C28.1501 16.5713 28.3121 16.662 28.3834 16.7009L28.4936 16.7592C28.5908 16.7981 28.6881 16.837 28.7853 16.8824C28.889 16.9277 28.9862 16.9731 29.0899 17.012C29.5955 17.2259 29.9973 17.349 30.3797 17.4009C30.5352 17.4398 30.7102 17.4398 30.8593 17.4009C31.1639 17.3426 31.488 17.0768 31.6371 16.7592C31.7213 16.5518 31.6954 16.3509 31.676 16.1759C31.663 16.0592 31.65 15.9555 31.676 15.8065L31.8445 15.7805C32.026 15.7611 32.363 15.7157 32.4084 15.3722C32.4343 15.262 32.4213 15.1519 32.3889 15.0546C32.4667 15.0222 32.538 14.9704 32.5963 14.9056C32.726 14.7695 32.7843 14.588 32.7519 14.4195C32.7389 14.3482 32.7195 14.2898 32.6935 14.2315C32.6741 14.1796 32.6547 14.1343 32.6547 14.1148C32.6611 14.05 32.7713 13.9787 32.9009 13.9463L33.0241 13.9269C33.1861 13.9074 33.3741 13.8815 33.5361 13.7713C33.8278 13.5704 33.8796 13.188 33.8083 12.9028C33.75 12.6436 33.588 12.4232 33.4259 12.2093C33.2509 11.9889 33.0241 11.6584 33.0111 11.3278C33.0047 11.0556 33.1278 10.7899 33.2639 10.5177C33.3352 10.3751 33.4065 10.226 33.4519 10.0834C33.75 9.33807 33.6398 8.52142 33.5102 7.7631C33.4972 7.63347 33.4778 7.52329 33.4648 7.4131L33.4454 7.3094C33.387 6.93348 33.3287 6.5446 33.1472 6.14924C32.7519 5.24833 32.026 4.45112 30.9954 3.77706C30.2241 3.28447 29.3427 2.87615 28.3834 2.57152C27.6705 2.33171 26.964 2.20208 26.277 2.16968C26.2187 2.16968 26.1603 2.16968 26.102 2.16968C24.1057 2.16968 22.4335 3.30392 21.8113 5.09277C21.7724 5.20296 21.74 5.33258 21.7076 5.46221C21.6558 5.66313 21.6039 5.87054 21.5197 6.03905C21.4937 6.00665 21.4678 5.98072 21.4354 5.94831C21.3576 5.85757 21.2734 5.76035 21.1891 5.69554C20.9882 5.51406 20.7289 5.41036 20.4891 5.41036C19.8216 5.41036 19.2253 6.14924 18.8234 6.64182L18.7262 6.76497C18.0781 7.58162 17.8901 8.32049 18.1753 8.96215C18.279 9.23437 18.4605 9.47418 18.6808 9.66214C18.7716 9.75288 18.9077 9.82417 19.0503 9.89546C19.2382 9.99269 19.4845 10.1223 19.4975 10.2584C19.5169 10.3751 19.316 10.5566 19.1864 10.6732ZM39.0647 40.5783C38.3777 41.8097 37.4898 42.4708 36.5435 43.1708C35.5583 43.8967 34.5472 44.6485 33.6657 46.0874C33.5426 46.2819 33.5037 46.6124 33.4195 47.28C33.387 47.5392 33.3482 47.8503 33.2963 48.2133C32.9334 50.7929 32.7195 52.7503 32.6222 53.7808H22.2521V52.841C22.2521 52.8021 22.2391 52.7632 22.2197 52.7373C22.2002 52.7049 20.1132 49.4253 19.4327 47.6041C18.6225 45.4198 19.3225 43.9421 20.2104 42.0754C20.9752 40.4681 21.8437 38.6403 21.9086 35.9506C21.9215 35.3543 21.8891 34.758 21.8373 34.1747L37.911 32.308C39.4471 34.57 40.4582 38.0894 39.0647 40.5783ZM36.7962 30.934C37.1268 31.2645 37.4055 31.6016 37.6518 31.9451L21.6104 33.8117L20.7808 33.9024C19.7503 33.9024 18.9142 33.0663 18.9142 32.0358V23.4156C18.9012 23.1563 18.9012 22.8971 18.9142 22.6184V21.7564C18.9142 20.7258 19.7503 19.8897 20.7808 19.8897C21.3965 19.8897 21.8826 20.2397 22.1224 20.4471C23.4317 21.5943 23.49 23.7397 23.3733 26.1183C23.3669 26.1442 23.3539 26.1702 23.3669 26.1961C23.3669 26.1961 23.3733 26.1961 23.3733 26.2026C23.3539 26.5461 23.3345 26.9026 23.315 27.2526C23.2178 28.8275 23.0039 30.422 22.6669 31.9904C22.6409 32.0941 22.7122 32.2043 22.8159 32.2238C22.9261 32.2497 23.0298 32.1784 23.0493 32.0747C23.1919 31.4006 23.302 30.7201 23.4057 30.0396L34.9491 29.547C35.6231 29.9294 36.2518 30.396 36.7962 30.934ZM34.625 29.1581L23.4706 29.6377C23.5094 29.3396 23.5289 29.0414 23.5613 28.7498C24.6631 28.8729 25.7585 28.9377 26.8474 28.9377C29.3297 28.9377 31.7862 28.6136 34.1843 27.985C34.3333 28.4322 34.5148 28.8859 34.625 29.1581ZM30.8982 22.2749C32.175 23.0526 33.4908 23.8498 33.8343 24.1739C34.4176 24.7183 34.1324 25.8526 33.9833 26.4554C33.9574 26.5591 33.9315 26.6498 33.9185 26.7146C33.8796 26.8896 33.9509 27.2266 34.0611 27.6026C30.6584 28.4905 27.139 28.7433 23.5937 28.3544C23.6261 27.9979 23.678 27.635 23.6974 27.2785C23.7169 26.9415 23.7363 26.6109 23.7557 26.2804C26.4196 25.4572 28.7853 24.0897 30.788 22.2101C30.8334 22.2295 30.8593 22.2489 30.8982 22.2749ZM33.05 7.36773L33.063 7.47143C33.0759 7.58162 33.0954 7.6918 33.1084 7.82791C33.238 8.57327 33.3352 9.2927 33.0695 9.94732C33.0176 10.0834 32.9528 10.2131 32.8945 10.3492C32.7454 10.6603 32.5898 10.9779 32.6028 11.3473C32.6222 11.788 32.8945 12.1899 33.1084 12.4621C33.238 12.6371 33.3741 12.8121 33.413 12.9936C33.4519 13.1426 33.4389 13.35 33.3028 13.4408C33.2185 13.4991 33.0954 13.5121 32.9658 13.5315C32.9204 13.538 32.875 13.5445 32.8167 13.551C32.4861 13.6352 32.2787 13.8297 32.2593 14.0889C32.2593 14.1991 32.2917 14.2898 32.3241 14.3611C32.3371 14.4 32.3565 14.4389 32.3565 14.4713C32.3695 14.5361 32.3371 14.5945 32.3047 14.6269C32.2528 14.6787 32.175 14.7046 32.1167 14.7046C32.0389 14.6982 31.9612 14.7306 31.9223 14.7954C31.8834 14.8602 31.8834 14.9509 31.9287 15.0093C31.9871 15.0935 32.0195 15.2102 32.0065 15.2944C32 15.3333 31.9871 15.3528 31.7862 15.3787C31.7537 15.3852 31.7149 15.3852 31.7149 15.3917C31.5917 15.3917 31.4362 15.437 31.3519 15.5667C31.3001 15.6315 31.2676 15.7157 31.2676 15.7805C31.2417 15.9361 31.2612 16.0852 31.2741 16.2148C31.2936 16.3639 31.3065 16.4935 31.2676 16.5972C31.1769 16.7852 30.9565 16.9731 30.7686 17.012C30.6778 17.0314 30.5612 17.0314 30.451 17.0055C30.0816 16.9537 29.7121 16.837 29.2325 16.6361C29.1353 16.5972 29.0381 16.5583 28.9408 16.5129C28.8371 16.4676 28.7399 16.4222 28.6492 16.3898L28.5714 16.3509C28.3834 16.2472 28.1566 16.1241 27.9621 16.2018C27.7936 16.2796 27.6575 16.4741 27.5603 16.6166L27.5214 16.675C27.3983 16.85 27.301 17.0185 27.2233 17.1935C27.1585 17.3231 27.1066 17.4398 27.0612 17.5694C27.0548 17.5824 27.0548 17.5953 27.0548 17.6148C26.964 17.8675 26.9122 18.0879 26.8862 18.2759C26.8733 18.3083 26.8668 18.3407 26.8538 18.4185C26.8344 18.4703 26.8409 18.5286 26.8668 18.574L26.9381 18.7101C27.1261 19.0666 27.5214 19.8184 27.7872 20.1944C27.9557 20.4536 28.9214 21.0629 30.438 21.9897C28.5325 23.7526 26.29 25.0489 23.7752 25.8526C23.8789 23.4869 23.7687 21.3675 22.3752 20.1555C22.0965 19.9092 21.5132 19.5008 20.7743 19.5008C20.3854 19.5008 20.0225 19.611 19.6984 19.786C19.8151 19.5786 19.9447 19.3712 20.0938 19.1573C20.3984 18.7749 20.6512 18.3601 20.9104 17.9388C21.1956 17.4787 21.4225 16.999 21.6104 16.4611L21.6687 16.2926C21.7984 15.9102 21.9604 15.4176 21.928 15.0352C21.9734 14.9704 22.0187 14.9056 22.0641 14.8343C22.3298 14.4389 22.6021 14.0306 23.0169 14.0111C23.1335 13.9982 23.2437 14.0176 23.3604 14.0241C23.6391 14.05 23.9631 14.0759 24.2354 13.888C24.5724 13.6547 24.6242 13.2463 24.6696 12.8834C24.6826 12.7732 24.6955 12.663 24.715 12.5593C24.7928 12.1899 25.0131 11.8658 25.2529 11.5223C25.3826 11.3278 25.5187 11.1334 25.6289 10.9195C25.7261 10.738 25.7779 10.5566 25.8168 10.3751C25.8557 10.5047 25.8751 10.6538 25.9335 10.7704C26.1474 11.1982 26.5038 11.5158 26.9186 11.6584C26.977 11.6778 27.1066 11.7232 27.2362 11.7232C27.3399 11.7232 27.4501 11.6973 27.5344 11.613C27.6575 11.4964 27.6834 11.3019 27.6057 11.0556C27.5733 10.9519 27.4696 10.8936 27.3594 10.926C27.2557 10.9584 27.1973 11.0686 27.2298 11.1723C27.2622 11.2695 27.2622 11.3214 27.2622 11.3278C27.2362 11.3278 27.1779 11.3343 27.0483 11.289C26.7372 11.1853 26.4585 10.926 26.29 10.6019C26.102 10.2195 26.0307 9.73343 26.089 9.11122C26.1538 8.43716 26.3548 7.9705 26.6853 7.71773C26.7501 7.67236 26.9186 7.56217 27.0677 7.60106C27.2168 7.63995 27.301 7.82791 27.314 7.98346C27.3205 8.17142 27.2686 8.44364 27.1649 8.57327C27.0936 8.65753 27.1066 8.78067 27.1909 8.85197C27.2751 8.91678 27.3983 8.9103 27.4696 8.81956C27.5344 8.7353 27.5733 8.62512 27.6122 8.51493C27.8455 8.839 28.1047 9.15659 28.4677 9.37696C28.5714 9.43529 28.7334 9.51955 28.9149 9.51955C28.9279 9.51955 28.9344 9.51955 28.9473 9.51955C29.3816 9.49362 29.589 9.05937 29.7056 8.7353L29.8677 8.28809C29.8806 8.24272 29.9001 8.19087 29.926 8.16494C29.9584 8.13253 30.0427 8.12605 30.1529 8.1455L30.2436 8.16494C30.3667 8.19735 30.5028 8.22327 30.6454 8.20383C30.8334 8.17142 30.976 8.06124 31.0991 7.96402C31.1445 7.92513 31.1899 7.89272 31.2417 7.86032C31.3713 7.77606 31.5269 7.73717 31.7019 7.6918C31.7797 7.67236 31.851 7.65291 31.9223 7.62699C32.3371 7.49736 32.6806 7.23162 32.9658 6.91404C33.0047 7.06311 33.0306 7.21218 33.05 7.36773ZM19.4456 10.9714C19.653 10.7834 19.9382 10.5242 19.8864 10.2001C19.854 9.86306 19.5104 9.68158 19.2317 9.53899C19.1151 9.48066 18.9984 9.41584 18.9401 9.35751C18.7586 9.20196 18.6225 9.014 18.5382 8.79363C18.3114 8.28809 18.4799 7.68532 19.0308 6.9983L19.128 6.87515C19.4586 6.4733 20.003 5.79276 20.4827 5.79276C20.6317 5.79276 20.7873 5.85757 20.9299 5.9872C21.0012 6.03905 21.066 6.11683 21.1308 6.19461C21.2215 6.30479 21.3187 6.41497 21.4484 6.48627C21.5262 6.53164 21.6363 6.51867 21.6947 6.44738C21.915 6.20109 22.0058 5.85109 22.0835 5.54647C22.116 5.4298 22.1419 5.31314 22.1743 5.20944C22.7511 3.53076 24.378 2.48078 26.2511 2.55208C26.8992 2.58449 27.5733 2.70763 28.2473 2.93448C29.1806 3.22614 30.0297 3.6215 30.7686 4.09464C31.7343 4.72982 32.4084 5.46869 32.7778 6.29831C32.8037 6.35664 32.8102 6.40849 32.8361 6.46682C32.5769 6.8233 32.2204 7.102 31.7991 7.23162C31.7343 7.25107 31.663 7.27051 31.5917 7.28996C31.4038 7.34181 31.2028 7.39366 31.0214 7.51032C30.963 7.54921 30.9047 7.59458 30.8464 7.63347C30.7491 7.71124 30.6584 7.77606 30.5741 7.7955C30.5093 7.80847 30.4186 7.78902 30.3278 7.7631L30.2241 7.73717C29.9779 7.68532 29.7704 7.73069 29.6408 7.8668C29.5566 7.95106 29.5177 8.05476 29.4918 8.12605L29.3297 8.57327C29.2066 8.91678 29.0705 9.08529 28.9214 9.09178C28.8566 9.10474 28.7723 9.06585 28.6686 9.00752C28.2538 8.76123 27.9557 8.33346 27.7029 7.95106C27.7029 7.94457 27.7029 7.93809 27.7029 7.93161C27.6834 7.57514 27.4631 7.27051 27.1714 7.19274C26.9446 7.12792 26.6853 7.19274 26.4455 7.37421C26.0177 7.6918 25.765 8.25568 25.6937 9.04641C25.6872 9.12418 25.7002 9.18252 25.6937 9.26029V9.26677C25.5835 9.50658 25.5381 9.75288 25.4992 9.99269C25.4539 10.2519 25.4085 10.4982 25.2918 10.7251C25.1881 10.9195 25.065 11.0945 24.9354 11.289C24.6891 11.6519 24.4363 12.0214 24.3391 12.4686C24.3131 12.5852 24.3002 12.7019 24.2872 12.825C24.2483 13.1297 24.2159 13.4148 24.015 13.551C23.8594 13.6611 23.6456 13.6417 23.3993 13.6222C23.2632 13.6093 23.1335 13.6028 22.9974 13.6093C22.3817 13.6482 22.0252 14.1796 21.74 14.6139C21.7076 14.6658 21.6752 14.7111 21.6428 14.7565C21.4225 14.8472 21.228 15.0222 21.0465 15.1907C20.8975 15.3268 20.7484 15.463 20.5993 15.5472C20.2428 15.7287 19.8734 15.7676 19.491 15.6704C18.8169 15.4954 18.3957 15.113 18.2271 14.5167C17.916 13.4148 18.5642 11.8658 19.3419 11.0686C19.3743 11.0362 19.4067 11.0038 19.4456 10.9714Z" fill="#E11D48"/>
<path d="M19.1864 10.6732C19.141 10.7121 19.1021 10.751 19.0632 10.7899C18.1882 11.6843 17.4947 13.3695 17.8447 14.6269C18.0457 15.3528 18.5836 15.8454 19.3873 16.0528C19.8604 16.1759 20.3401 16.1176 20.7743 15.8907C20.9688 15.7805 21.1438 15.6315 21.3058 15.4759C21.3836 15.4046 21.4613 15.3268 21.5391 15.2685C21.5067 15.5472 21.3771 15.9102 21.2928 16.1565L21.2345 16.3315C21.0595 16.837 20.8456 17.2907 20.5604 17.7444C20.3206 18.1333 20.0678 18.5416 19.7762 18.911C19.4132 19.4296 19.1475 19.9092 18.953 20.4212V20.4277C18.6808 20.8036 18.5123 21.2573 18.5123 21.7564V22.5989C18.4994 22.8906 18.4994 23.1628 18.5123 23.4415V32.0358C18.5123 33.2802 19.5299 34.2978 20.7743 34.2978H20.7808C20.7873 34.2978 20.7873 34.2978 20.7938 34.2978L21.4354 34.22C21.4873 34.7839 21.5197 35.3607 21.5067 35.9376C21.4419 38.5431 20.5928 40.332 19.8475 41.9069C18.953 43.78 18.1882 45.4004 19.0568 47.7402C19.7114 49.4966 21.578 52.4651 21.8502 52.8993V53.9752C21.8502 54.0854 21.941 54.1697 22.0447 54.1697H32.7843C32.888 54.1697 32.9722 54.0919 32.9787 53.9882C33.0695 53.016 33.2833 50.9873 33.6722 48.2587C33.7241 47.8957 33.763 47.5846 33.7954 47.3189C33.8602 46.7874 33.912 46.405 33.9898 46.2883C34.8324 44.9078 35.8176 44.1819 36.7703 43.4819C37.749 42.756 38.6758 42.0754 39.4018 40.7662C40.8925 38.0894 39.8036 34.3367 38.1638 31.984C37.8657 31.5238 37.5092 31.0831 37.0685 30.6423C36.4787 30.072 35.8176 29.5729 35.0981 29.1646C35.0722 29.1516 35.0528 29.1322 35.0333 29.1257C34.8518 28.6979 34.6509 28.16 34.5018 27.6998C34.5018 27.6933 34.5083 27.6933 34.5018 27.6868C34.5018 27.6803 34.4954 27.6803 34.4889 27.6739C34.3593 27.259 34.2685 26.9155 34.2944 26.7859C34.3074 26.7211 34.3268 26.6433 34.3528 26.5396C34.5213 25.8526 34.8454 24.5758 34.0935 23.8758C33.7176 23.5258 32.4408 22.748 31.0926 21.9249C29.8936 21.199 28.2538 20.1944 28.0983 19.961C27.839 19.5981 27.4436 18.8397 27.2751 18.5157L27.2427 18.4509C27.2427 18.4509 27.2427 18.4444 27.2427 18.4379L27.2622 18.3601C27.2881 18.1657 27.3399 17.9583 27.4242 17.725C27.4242 17.712 27.4307 17.699 27.4307 17.6861C27.4696 17.5759 27.5149 17.4787 27.5733 17.362C27.6446 17.2064 27.7288 17.0639 27.839 16.9083L27.8844 16.8435C27.9362 16.7722 28.0529 16.5972 28.0918 16.5713C28.1501 16.5713 28.3121 16.662 28.3834 16.7009L28.4936 16.7592C28.5908 16.7981 28.6881 16.837 28.7853 16.8824C28.889 16.9277 28.9862 16.9731 29.0899 17.012C29.5955 17.2259 29.9973 17.349 30.3797 17.4009C30.5352 17.4398 30.7102 17.4398 30.8593 17.4009C31.1639 17.3426 31.488 17.0768 31.6371 16.7592C31.7213 16.5518 31.6954 16.3509 31.676 16.1759C31.663 16.0592 31.65 15.9555 31.676 15.8065L31.8445 15.7805C32.026 15.7611 32.363 15.7157 32.4084 15.3722C32.4343 15.262 32.4213 15.1519 32.3889 15.0546C32.4667 15.0222 32.538 14.9704 32.5963 14.9056C32.726 14.7695 32.7843 14.588 32.7519 14.4195C32.7389 14.3482 32.7195 14.2898 32.6935 14.2315C32.6741 14.1796 32.6547 14.1343 32.6547 14.1148C32.6611 14.05 32.7713 13.9787 32.9009 13.9463L33.0241 13.9269C33.1861 13.9074 33.3741 13.8815 33.5361 13.7713C33.8278 13.5704 33.8796 13.188 33.8083 12.9028C33.75 12.6436 33.588 12.4232 33.4259 12.2093C33.2509 11.9889 33.0241 11.6584 33.0111 11.3278C33.0047 11.0556 33.1278 10.7899 33.2639 10.5177C33.3352 10.3751 33.4065 10.226 33.4519 10.0834C33.75 9.33807 33.6398 8.52142 33.5102 7.7631C33.4972 7.63347 33.4778 7.52329 33.4648 7.4131L33.4454 7.3094C33.387 6.93348 33.3287 6.5446 33.1472 6.14924C32.7519 5.24833 32.026 4.45112 30.9954 3.77706C30.2241 3.28447 29.3427 2.87615 28.3834 2.57152C27.6705 2.33171 26.964 2.20208 26.277 2.16968C26.2187 2.16968 26.1603 2.16968 26.102 2.16968C24.1057 2.16968 22.4335 3.30392 21.8113 5.09277C21.7724 5.20296 21.74 5.33258 21.7076 5.46221C21.6558 5.66313 21.6039 5.87054 21.5197 6.03905C21.4937 6.00665 21.4678 5.98072 21.4354 5.94831C21.3576 5.85757 21.2734 5.76035 21.1891 5.69554C20.9882 5.51406 20.7289 5.41036 20.4891 5.41036C19.8216 5.41036 19.2253 6.14924 18.8234 6.64182L18.7262 6.76497C18.0781 7.58162 17.8901 8.32049 18.1753 8.96215C18.279 9.23437 18.4605 9.47418 18.6808 9.66214C18.7716 9.75288 18.9077 9.82417 19.0503 9.89546C19.2382 9.99269 19.4845 10.1223 19.4975 10.2584C19.5169 10.3751 19.316 10.5566 19.1864 10.6732ZM39.0647 40.5783C38.3777 41.8097 37.4898 42.4708 36.5435 43.1708C35.5583 43.8967 34.5472 44.6485 33.6657 46.0874C33.5426 46.2819 33.5037 46.6124 33.4195 47.28C33.387 47.5392 33.3482 47.8503 33.2963 48.2133C32.9334 50.7929 32.7195 52.7503 32.6222 53.7808H22.2521V52.841C22.2521 52.8021 22.2391 52.7632 22.2197 52.7373C22.2002 52.7049 20.1132 49.4253 19.4327 47.6041C18.6225 45.4198 19.3225 43.9421 20.2104 42.0754C20.9752 40.4681 21.8437 38.6403 21.9086 35.9506C21.9215 35.3543 21.8891 34.758 21.8373 34.1747L37.911 32.308C39.4471 34.57 40.4582 38.0894 39.0647 40.5783ZM36.7962 30.934C37.1268 31.2645 37.4055 31.6016 37.6518 31.9451L21.6104 33.8117L20.7808 33.9024C19.7503 33.9024 18.9142 33.0663 18.9142 32.0358V23.4156C18.9012 23.1563 18.9012 22.8971 18.9142 22.6184V21.7564C18.9142 20.7258 19.7503 19.8897 20.7808 19.8897C21.3965 19.8897 21.8826 20.2397 22.1224 20.4471C23.4317 21.5943 23.49 23.7397 23.3733 26.1183C23.3669 26.1442 23.3539 26.1702 23.3669 26.1961C23.3669 26.1961 23.3733 26.1961 23.3733 26.2026C23.3539 26.5461 23.3345 26.9026 23.315 27.2526C23.2178 28.8275 23.0039 30.422 22.6669 31.9904C22.6409 32.0941 22.7122 32.2043 22.8159 32.2238C22.9261 32.2497 23.0298 32.1784 23.0493 32.0747C23.1919 31.4006 23.302 30.7201 23.4057 30.0396L34.9491 29.547C35.6231 29.9294 36.2518 30.396 36.7962 30.934ZM34.625 29.1581L23.4706 29.6377C23.5094 29.3396 23.5289 29.0414 23.5613 28.7498C24.6631 28.8729 25.7585 28.9377 26.8474 28.9377C29.3297 28.9377 31.7862 28.6136 34.1843 27.985C34.3333 28.4322 34.5148 28.8859 34.625 29.1581ZM30.8982 22.2749C32.175 23.0526 33.4908 23.8498 33.8343 24.1739C34.4176 24.7183 34.1324 25.8526 33.9833 26.4554C33.9574 26.5591 33.9315 26.6498 33.9185 26.7146C33.8796 26.8896 33.9509 27.2266 34.0611 27.6026C30.6584 28.4905 27.139 28.7433 23.5937 28.3544C23.6261 27.9979 23.678 27.635 23.6974 27.2785C23.7169 26.9415 23.7363 26.6109 23.7557 26.2804C26.4196 25.4572 28.7853 24.0897 30.788 22.2101C30.8334 22.2295 30.8593 22.2489 30.8982 22.2749ZM33.05 7.36773L33.063 7.47143C33.0759 7.58162 33.0954 7.6918 33.1084 7.82791C33.238 8.57327 33.3352 9.2927 33.0695 9.94732C33.0176 10.0834 32.9528 10.2131 32.8945 10.3492C32.7454 10.6603 32.5898 10.9779 32.6028 11.3473C32.6222 11.788 32.8945 12.1899 33.1084 12.4621C33.238 12.6371 33.3741 12.8121 33.413 12.9936C33.4519 13.1426 33.4389 13.35 33.3028 13.4408C33.2185 13.4991 33.0954 13.5121 32.9658 13.5315C32.9204 13.538 32.875 13.5445 32.8167 13.551C32.4861 13.6352 32.2787 13.8297 32.2593 14.0889C32.2593 14.1991 32.2917 14.2898 32.3241 14.3611C32.3371 14.4 32.3565 14.4389 32.3565 14.4713C32.3695 14.5361 32.3371 14.5945 32.3047 14.6269C32.2528 14.6787 32.175 14.7046 32.1167 14.7046C32.0389 14.6982 31.9612 14.7306 31.9223 14.7954C31.8834 14.8602 31.8834 14.9509 31.9287 15.0093C31.9871 15.0935 32.0195 15.2102 32.0065 15.2944C32 15.3333 31.9871 15.3528 31.7862 15.3787C31.7537 15.3852 31.7149 15.3852 31.7149 15.3917C31.5917 15.3917 31.4362 15.437 31.3519 15.5667C31.3001 15.6315 31.2676 15.7157 31.2676 15.7805C31.2417 15.9361 31.2612 16.0852 31.2741 16.2148C31.2936 16.3639 31.3065 16.4935 31.2676 16.5972C31.1769 16.7852 30.9565 16.9731 30.7686 17.012C30.6778 17.0314 30.5612 17.0314 30.451 17.0055C30.0816 16.9537 29.7121 16.837 29.2325 16.6361C29.1353 16.5972 29.0381 16.5583 28.9408 16.5129C28.8371 16.4676 28.7399 16.4222 28.6492 16.3898L28.5714 16.3509C28.3834 16.2472 28.1566 16.1241 27.9621 16.2018C27.7936 16.2796 27.6575 16.4741 27.5603 16.6166L27.5214 16.675C27.3983 16.85 27.301 17.0185 27.2233 17.1935C27.1585 17.3231 27.1066 17.4398 27.0612 17.5694C27.0548 17.5824 27.0548 17.5953 27.0548 17.6148C26.964 17.8675 26.9122 18.0879 26.8862 18.2759C26.8733 18.3083 26.8668 18.3407 26.8538 18.4185C26.8344 18.4703 26.8409 18.5286 26.8668 18.574L26.9381 18.7101C27.1261 19.0666 27.5214 19.8184 27.7872 20.1944C27.9557 20.4536 28.9214 21.0629 30.438 21.9897C28.5325 23.7526 26.29 25.0489 23.7752 25.8526C23.8789 23.4869 23.7687 21.3675 22.3752 20.1555C22.0965 19.9092 21.5132 19.5008 20.7743 19.5008C20.3854 19.5008 20.0225 19.611 19.6984 19.786C19.8151 19.5786 19.9447 19.3712 20.0938 19.1573C20.3984 18.7749 20.6512 18.3601 20.9104 17.9388C21.1956 17.4787 21.4225 16.999 21.6104 16.4611L21.6687 16.2926C21.7984 15.9102 21.9604 15.4176 21.928 15.0352C21.9734 14.9704 22.0187 14.9056 22.0641 14.8343C22.3298 14.4389 22.6021 14.0306 23.0169 14.0111C23.1335 13.9982 23.2437 14.0176 23.3604 14.0241C23.6391 14.05 23.9631 14.0759 24.2354 13.888C24.5724 13.6547 24.6242 13.2463 24.6696 12.8834C24.6826 12.7732 24.6955 12.663 24.715 12.5593C24.7928 12.1899 25.0131 11.8658 25.2529 11.5223C25.3826 11.3278 25.5187 11.1334 25.6289 10.9195C25.7261 10.738 25.7779 10.5566 25.8168 10.3751C25.8557 10.5047 25.8751 10.6538 25.9335 10.7704C26.1474 11.1982 26.5038 11.5158 26.9186 11.6584C26.977 11.6778 27.1066 11.7232 27.2362 11.7232C27.3399 11.7232 27.4501 11.6973 27.5344 11.613C27.6575 11.4964 27.6834 11.3019 27.6057 11.0556C27.5733 10.9519 27.4696 10.8936 27.3594 10.926C27.2557 10.9584 27.1973 11.0686 27.2298 11.1723C27.2622 11.2695 27.2622 11.3214 27.2622 11.3278C27.2362 11.3278 27.1779 11.3343 27.0483 11.289C26.7372 11.1853 26.4585 10.926 26.29 10.6019C26.102 10.2195 26.0307 9.73343 26.089 9.11122C26.1538 8.43716 26.3548 7.9705 26.6853 7.71773C26.7501 7.67236 26.9186 7.56217 27.0677 7.60106C27.2168 7.63995 27.301 7.82791 27.314 7.98346C27.3205 8.17142 27.2686 8.44364 27.1649 8.57327C27.0936 8.65753 27.1066 8.78067 27.1909 8.85197C27.2751 8.91678 27.3983 8.9103 27.4696 8.81956C27.5344 8.7353 27.5733 8.62512 27.6122 8.51493C27.8455 8.839 28.1047 9.15659 28.4677 9.37696C28.5714 9.43529 28.7334 9.51955 28.9149 9.51955C28.9279 9.51955 28.9344 9.51955 28.9473 9.51955C29.3816 9.49362 29.589 9.05937 29.7056 8.7353L29.8677 8.28809C29.8806 8.24272 29.9001 8.19087 29.926 8.16494C29.9584 8.13253 30.0427 8.12605 30.1529 8.1455L30.2436 8.16494C30.3667 8.19735 30.5028 8.22327 30.6454 8.20383C30.8334 8.17142 30.976 8.06124 31.0991 7.96402C31.1445 7.92513 31.1899 7.89272 31.2417 7.86032C31.3713 7.77606 31.5269 7.73717 31.7019 7.6918C31.7797 7.67236 31.851 7.65291 31.9223 7.62699C32.3371 7.49736 32.6806 7.23162 32.9658 6.91404C33.0047 7.06311 33.0306 7.21218 33.05 7.36773ZM19.4456 10.9714C19.653 10.7834 19.9382 10.5242 19.8864 10.2001C19.854 9.86306 19.5104 9.68158 19.2317 9.53899C19.1151 9.48066 18.9984 9.41584 18.9401 9.35751C18.7586 9.20196 18.6225 9.014 18.5382 8.79363C18.3114 8.28809 18.4799 7.68532 19.0308 6.9983L19.128 6.87515C19.4586 6.4733 20.003 5.79276 20.4827 5.79276C20.6317 5.79276 20.7873 5.85757 20.9299 5.9872C21.0012 6.03905 21.066 6.11683 21.1308 6.19461C21.2215 6.30479 21.3187 6.41497 21.4484 6.48627C21.5262 6.53164 21.6363 6.51867 21.6947 6.44738C21.915 6.20109 22.0058 5.85109 22.0835 5.54647C22.116 5.4298 22.1419 5.31314 22.1743 5.20944C22.7511 3.53076 24.378 2.48078 26.2511 2.55208C26.8992 2.58449 27.5733 2.70763 28.2473 2.93448C29.1806 3.22614 30.0297 3.6215 30.7686 4.09464C31.7343 4.72982 32.4084 5.46869 32.7778 6.29831C32.8037 6.35664 32.8102 6.40849 32.8361 6.46682C32.5769 6.8233 32.2204 7.102 31.7991 7.23162C31.7343 7.25107 31.663 7.27051 31.5917 7.28996C31.4038 7.34181 31.2028 7.39366 31.0214 7.51032C30.963 7.54921 30.9047 7.59458 30.8464 7.63347C30.7491 7.71124 30.6584 7.77606 30.5741 7.7955C30.5093 7.80847 30.4186 7.78902 30.3278 7.7631L30.2241 7.73717C29.9779 7.68532 29.7704 7.73069 29.6408 7.8668C29.5566 7.95106 29.5177 8.05476 29.4918 8.12605L29.3297 8.57327C29.2066 8.91678 29.0705 9.08529 28.9214 9.09178C28.8566 9.10474 28.7723 9.06585 28.6686 9.00752C28.2538 8.76123 27.9557 8.33346 27.7029 7.95106C27.7029 7.94457 27.7029 7.93809 27.7029 7.93161C27.6834 7.57514 27.4631 7.27051 27.1714 7.19274C26.9446 7.12792 26.6853 7.19274 26.4455 7.37421C26.0177 7.6918 25.765 8.25568 25.6937 9.04641C25.6872 9.12418 25.7002 9.18252 25.6937 9.26029V9.26677C25.5835 9.50658 25.5381 9.75288 25.4992 9.99269C25.4539 10.2519 25.4085 10.4982 25.2918 10.7251C25.1881 10.9195 25.065 11.0945 24.9354 11.289C24.6891 11.6519 24.4363 12.0214 24.3391 12.4686C24.3131 12.5852 24.3002 12.7019 24.2872 12.825C24.2483 13.1297 24.2159 13.4148 24.015 13.551C23.8594 13.6611 23.6456 13.6417 23.3993 13.6222C23.2632 13.6093 23.1335 13.6028 22.9974 13.6093C22.3817 13.6482 22.0252 14.1796 21.74 14.6139C21.7076 14.6658 21.6752 14.7111 21.6428 14.7565C21.4225 14.8472 21.228 15.0222 21.0465 15.1907C20.8975 15.3268 20.7484 15.463 20.5993 15.5472C20.2428 15.7287 19.8734 15.7676 19.491 15.6704C18.8169 15.4954 18.3957 15.113 18.2271 14.5167C17.916 13.4148 18.5642 11.8658 19.3419 11.0686C19.3743 11.0362 19.4067 11.0038 19.4456 10.9714Z" stroke="#E11D48" stroke-width="0.4" mask="url(#path-1-outside-1_114_3)"/>
<path d="M33.9768 40.1441C34.0157 40.1829 34.0675 40.2024 34.1194 40.2024C34.1712 40.2024 34.2231 40.1829 34.262 40.1441L35.9017 38.5043C36.6277 37.7978 36.8869 36.9617 36.5952 36.2682C36.3814 35.7562 35.8888 35.4127 35.3703 35.4127C35.3638 35.4127 35.3508 35.4127 35.3443 35.4127C34.8518 35.4256 34.4175 35.7238 34.1194 36.2488C33.8212 35.7238 33.387 35.4256 32.8944 35.4127C32.35 35.4127 31.8638 35.7432 31.6435 36.2682C31.3518 36.9617 31.6111 37.7978 32.337 38.5043L33.9768 40.1441ZM32.0064 36.4173C32.162 36.0478 32.5055 35.808 32.8685 35.808C32.8749 35.808 32.8814 35.808 32.8879 35.808C33.3286 35.8145 33.711 36.171 33.9379 36.7867C33.9962 36.9423 34.249 36.9423 34.3073 36.7867C34.5342 36.1775 34.9166 35.821 35.3573 35.808C35.3638 35.808 35.3703 35.808 35.3767 35.808C35.7397 35.808 36.0832 36.0543 36.2388 36.4173C36.4656 36.9682 36.2453 37.6228 35.6295 38.2191L34.1194 39.7228L32.6092 38.2126C32 37.6228 31.7731 36.9617 32.0064 36.4173Z" fill="#E11D48"/>
<path d="M34.12 41.894C36.3755 41.894 38.2097 40.0597 38.2097 37.8042C38.2097 35.5487 36.3755 33.7145 34.12 33.7145C31.8645 33.7145 30.0302 35.5487 30.0302 37.8042C30.0302 40.0597 31.8645 41.894 34.12 41.894ZM34.12 34.1098C36.1551 34.1098 37.8144 35.7691 37.8144 37.8042C37.8144 39.8394 36.1551 41.4986 34.12 41.4986C32.0848 41.4986 30.4256 39.8394 30.4256 37.8042C30.4256 35.7691 32.0784 34.1098 34.12 34.1098Z" fill="#E11D48"/>
</svg>
