<svg width="57" height="57" viewBox="0 0 57 57" fill="none" xmlns="http://www.w3.org/2000/svg">
<path d="M45.5981 41.1102L45.4415 40.952C44.443 39.9503 42.7723 38.273 43.0477 31.3188C43.3225 24.3873 43.6643 15.7602 40.0442 9.5993C38.5359 7.03158 35.0567 2.65592 28.7073 2.20286C24.2836 1.89073 20.3842 3.79857 18.3333 7.1736C17.473 7.29942 16.8175 7.67149 16.4308 8.25577C16.2056 8.59543 16.0863 8.9972 16.0658 9.44324C15.2536 9.90387 14.8222 10.9266 14.7595 11.7971C14.6823 12.8707 14.9987 13.8443 15.8514 15.1576C17.0751 17.0433 17.0189 18.4505 17.0184 18.4629C17.0086 18.6255 17.1123 18.774 17.2684 18.8204C17.3019 18.8301 17.3353 18.835 17.3688 18.835C17.4919 18.835 17.6097 18.7697 17.6734 18.6584C17.9218 18.2248 18.0897 17.7291 18.1794 17.2161C20.5624 22.2462 25.0385 25.1633 26.2881 25.7049C26.4566 25.7778 26.6358 25.8146 26.8254 25.8146C27.0668 25.8146 27.3243 25.7557 27.5965 25.6385C28.6036 25.2044 29.6712 24.0083 30.3408 23.006C31.126 24.6147 30.6967 27.2974 30.1216 28.3942C29.8159 28.9768 29.5146 29.4385 29.0691 29.7993C27.3179 30.2172 25.8712 31.4069 25.4127 31.9026C25.2945 32.0306 25.2059 32.1477 25.1379 32.2471C24.2679 31.1109 23.318 30.4035 22.1894 30.0514C23.5918 29.1108 23.8332 27.4681 23.317 26.3206C22.7575 25.0775 21.4583 24.5088 20.8842 24.2577C20.6915 24.1735 20.6423 24.092 20.3896 23.5654C20.2573 23.2895 20.0759 22.9115 19.7934 22.4028C19.5083 21.8887 18.836 21.5183 17.9482 21.386C16.3072 21.1424 14.5494 21.7564 13.2345 23.0276C12.37 23.863 11.8964 25.0283 11.9007 26.3076C11.905 27.6711 12.458 28.9779 13.4176 29.8932C14.233 30.6719 15.0463 31.0456 15.5841 31.2929C15.738 31.3631 15.9211 31.4474 16.0172 31.5073C15.9994 31.5564 15.9794 31.6104 15.9567 31.6704C15.7547 32.2098 15.3843 33.2089 15.3416 34.5751C15.2018 34.4438 15.0506 34.3385 14.8972 34.2818C14.6245 34.1809 14.3545 34.2257 14.1563 34.4033C13.8113 34.7117 12.9991 36.7524 13.4333 40.5956C13.7918 43.7665 14.8627 44.5139 18.4116 46.9898C19.2891 47.6021 20.2838 48.2955 21.475 49.1671C26.2492 52.6604 30.2069 54.1697 31.9084 54.1697C32.2276 54.1697 32.4668 54.1162 32.6175 54.0136C38.2227 50.1844 41.4573 43.5672 41.7025 40.5697C42.0125 40.783 42.3262 40.9936 42.6551 41.1988C43.5947 41.7852 44.7854 42.2448 45.3664 42.2448C45.7385 42.2448 45.874 42.0547 45.9216 41.9413C46.0522 41.6324 45.8173 41.3348 45.5981 41.1102ZM15.8773 30.6536C15.3524 30.4127 14.6331 30.0817 13.9025 29.384C13.0806 28.5999 12.6071 27.4772 12.6027 26.3038C12.5995 25.2173 12.9969 24.2329 13.7222 23.5309C15.4405 21.8693 17.3116 21.9994 17.8446 22.0794C18.485 22.1744 19.0083 22.4347 19.1789 22.7425C19.4511 23.2333 19.6271 23.6 19.7556 23.8684C20.0229 24.4262 20.1574 24.7059 20.6207 24.9084C21.1019 25.119 22.2278 25.6115 22.676 26.6073C23.0961 27.541 22.8504 28.9099 21.5668 29.607C21.4658 29.6621 21.4086 29.7604 21.3929 29.8657C20.7876 29.7723 20.1363 29.7561 19.4144 29.8322C19.2216 29.8527 19.0822 30.0255 19.1028 30.2188C19.1238 30.4116 19.3004 30.5482 19.4894 30.5304C21.7942 30.2815 23.2964 30.9376 24.6681 32.7898C24.7852 32.948 24.9289 33.1549 25.1794 33.1338C25.4138 33.1241 25.5267 32.9426 25.6179 32.7957C25.6838 32.6904 25.7734 32.5452 25.9284 32.3783C26.274 32.0036 27.6667 30.8188 29.3207 30.4564C29.3326 30.4532 29.344 30.4516 29.3553 30.4473C29.7452 30.3652 30.1496 30.3279 30.5579 30.3592C30.6519 30.3663 30.7264 30.3776 30.7831 30.3911C30.7415 30.4251 30.6848 30.4678 30.6076 30.5175C30.4926 30.5925 30.3802 30.6616 30.2701 30.7292C29.5778 31.1541 28.9233 31.5559 28.319 32.8859C28.1349 33.292 27.981 33.7715 27.8325 34.2354C27.4604 35.3975 27.0759 36.5995 26.2362 36.6751C24.8274 36.8042 22.9276 35.7512 21.0241 33.7904C20.8891 33.6517 20.6666 33.6479 20.5278 33.7834C20.3885 33.9184 20.3853 34.1404 20.5203 34.2797C22.4778 36.295 24.4094 37.3874 26.0003 37.3874C26.1012 37.3874 26.2006 37.3831 26.2983 37.3744C27.6019 37.2573 28.0793 35.7658 28.5005 34.4498C28.6495 33.9848 28.7899 33.5447 28.9573 33.1765C29.4725 32.0419 29.986 31.7265 30.6367 31.3275C30.7518 31.2567 30.8689 31.1844 30.9888 31.1066C31.1616 30.9948 31.6881 30.653 31.5699 30.1951C31.5137 29.9785 31.302 29.7096 30.607 29.6594C30.4607 29.6486 30.3154 29.6459 30.1707 29.6486C30.3937 29.3489 30.5773 29.0319 30.7415 28.7198C31.4181 27.4308 31.9738 24.1789 30.7539 22.3175C30.8382 22.1571 30.9051 22.0119 30.9499 21.8882C31.0158 21.7057 30.9213 21.5048 30.7393 21.4384C30.5552 21.3714 30.3554 21.4664 30.2895 21.649C29.986 22.486 28.5221 24.4743 27.3168 24.9938C27.0144 25.1234 26.7622 25.146 26.5651 25.0613C25.0785 24.4165 18.8041 20.2471 17.5697 13.0159C17.5373 12.8248 17.3559 12.6968 17.1647 12.7292C16.9735 12.7621 16.845 12.943 16.8779 13.1342C16.9941 13.8157 17.155 14.4707 17.3505 15.0998C17.3532 15.1155 17.351 15.1317 17.3569 15.1473C17.5573 15.7251 17.6005 16.3996 17.4973 17.0411C17.3197 16.4228 17.0032 15.6447 16.4395 14.7758C15.6678 13.5872 15.3929 12.7664 15.4588 11.8479C15.4988 11.2917 15.7369 10.6502 16.1322 10.2613C16.1603 10.4023 16.1938 10.5443 16.2386 10.6912C17.0913 13.4803 21.0079 15.7716 26.7158 16.8208C32.2821 17.8441 33.225 21.831 33.2914 24.1168C33.4059 28.0221 34.17 31.281 35.6615 34.0507C35.5886 34.1625 35.5151 34.2716 35.4476 34.3931C34.5539 36.0023 34.0604 37.8734 33.7439 40.8521C33.489 43.2562 32.1892 45.7926 30.9445 47.2393C29.7457 45.7181 27.7526 44.1213 21.9097 42.8231L21.6073 42.7583C21.5463 42.7459 21.475 42.7291 21.4107 42.7156C21.4469 42.6859 21.4842 42.6573 21.5074 42.613C21.5965 42.4413 21.5296 42.2291 21.3573 42.14C18.5412 40.682 15.9481 38.7671 16.0393 34.6625C16.0679 33.3763 16.4098 32.462 16.6139 31.9155C16.656 31.8032 16.6916 31.7071 16.7176 31.6283C16.8855 31.1163 16.373 30.8809 15.8773 30.6536ZM32.2254 53.4299C31.7799 53.6853 28.0609 53.1129 21.8903 48.599C20.6925 47.7226 19.6946 47.0265 18.8139 46.412C15.2909 43.9544 14.4539 43.3707 14.1315 40.5146C13.7227 36.8971 14.4782 35.0967 14.6126 34.9288C14.7406 34.9298 15.1991 35.3424 15.2628 35.8014C15.2768 35.9029 15.3341 35.9872 15.4124 36.0412C15.8347 39.3757 18.0703 41.1593 20.5743 42.5164C19.3485 42.1924 17.8937 41.6151 17.1334 40.3002C17.0362 40.1328 16.8218 40.0739 16.6538 40.1722C16.4859 40.2694 16.4287 40.4838 16.5253 40.6517C17.6739 42.639 20.138 43.1622 21.4621 43.4441L21.7585 43.5078C27.8584 44.8627 29.5286 46.4557 30.6664 48.0347C30.6697 48.0379 30.6708 48.0422 30.674 48.0455L30.6745 48.046C30.8182 48.2453 30.9537 48.4445 31.0882 48.6427L31.3047 48.9608C31.3728 49.0596 31.4824 49.1125 31.5942 49.1125C31.6627 49.1125 31.7324 49.092 31.7929 49.0504C31.9527 48.9403 31.9927 48.7221 31.8825 48.5623L31.6687 48.2491C31.5715 48.106 31.4737 47.9618 31.3717 47.816C32.7233 46.2996 34.1657 43.5386 34.4432 40.925C34.7483 38.05 35.2176 36.2561 36.0611 34.7365C37.2793 36.7648 38.9188 38.5225 41.0135 40.0723C41.1911 42.6039 37.7923 49.6277 32.2254 53.4299ZM43.0266 40.6026C40.0118 38.7201 37.8301 36.5612 36.3635 33.9254C36.3548 33.9092 36.3473 33.8941 36.3359 33.8795C34.8504 31.1887 34.1079 27.9994 33.9934 24.0952C33.9351 22.0842 33.1213 17.283 26.8432 16.1296C18.7739 14.6467 17.2003 11.4348 16.9103 10.4855C16.6798 9.7316 16.7165 9.09494 17.0151 8.64349C17.3083 8.20069 17.8505 7.92583 18.5827 7.84969C18.586 7.84969 18.5881 7.84699 18.5914 7.84645C18.5952 7.84645 18.5989 7.84753 18.6027 7.84699C20.3799 7.55808 26.3507 8.57491 29.8953 12.6903C29.9644 12.7708 30.0627 12.8123 30.161 12.8123C30.242 12.8123 30.3241 12.7843 30.3899 12.7275C30.5368 12.6012 30.5536 12.3792 30.4267 12.2324C27.0317 8.29033 21.6797 7.08072 19.2135 7.10556C21.0452 4.44226 24.1956 2.87192 27.7796 2.87192C28.069 2.87192 28.3617 2.88218 28.6571 2.90324C34.6862 3.33309 38.0002 7.5057 39.4393 9.95463C42.9553 15.9384 42.6178 24.4511 42.3467 31.2913C42.0589 38.5511 43.8658 40.3639 44.9447 41.4472L44.9733 41.4763C44.4614 41.3408 43.6795 41.0108 43.0266 40.6026Z" fill="#E11D48"/>
</svg>
