<svg width="57" height="57" viewBox="0 0 57 57" fill="none" xmlns="http://www.w3.org/2000/svg">
<path d="M29.6319 29.363C29.4433 29.2449 29.2472 29.296 29.1388 29.365C29.0402 29.4277 28.9221 29.5601 28.922 29.7566V37.5642C28.922 37.7356 28.9944 37.8954 29.1153 38.0085V38.0095L38.8419 47.2195H38.7716L39.6729 48.0085C39.8015 48.121 39.9923 48.176 40.1798 48.1199H41.1026L40.5636 47.6101C40.6025 46.5403 40.5799 45.4707 40.4972 44.405L40.4962 44.3982C39.9981 39.035 37.0807 34.1891 32.5685 31.2449C32.0097 30.8606 31.0276 30.2321 29.6329 29.3621L29.6319 29.363ZM17.9767 8.17065C17.6346 8.12303 17.3457 8.40465 17.3624 8.73608C17.2061 14.5818 19.8277 20.1602 24.4278 23.7712V23.7722C25.1893 24.3934 26.3421 25.2369 27.8751 26.3005C27.9131 26.3271 27.9732 26.3641 28.0509 26.3865C28.1312 26.4096 28.2663 26.4271 28.4083 26.3562C28.5522 26.2843 28.6208 26.163 28.6505 26.0798C28.6788 26.0005 28.6837 25.9272 28.6837 25.8796V25.0925C28.6837 24.8746 28.5862 24.6737 28.4249 24.5378L28.4151 24.53C27.7116 23.9698 26.9949 23.377 26.2618 22.7449L26.253 22.738L25.9532 22.4861C23.0694 20.0185 20.9898 16.7516 19.9767 13.1003C23.5942 14.7562 27.5479 15.5662 31.5313 15.4626C33.6543 15.5392 35.7633 15.152 37.7159 14.3318C36.2453 18.5461 32.8933 21.8051 29.2921 24.5007L29.2491 24.532C29.0449 24.6743 28.9167 24.8977 28.8927 25.1394L28.8888 25.2332V25.8884C28.8888 25.9457 28.894 26.0253 28.9229 26.1091C28.953 26.1959 29.0203 26.317 29.1593 26.3943C29.2992 26.472 29.4389 26.4648 29.5304 26.4431C29.6178 26.4223 29.6881 26.3825 29.7364 26.3513C32.8568 24.3544 35.9402 21.9856 37.9552 18.7205L38.0226 18.6121V18.6033C39.8399 15.6107 40.7295 12.1457 40.5733 8.64722H40.5714C40.5672 8.55046 40.5344 8.4257 40.4317 8.323C40.3385 8.22979 40.2145 8.17847 40.0841 8.17847H40.0675L40.0518 8.17944C32.7012 8.71195 25.3247 8.70891 17.9767 8.17065ZM15.8204 48.0964C15.8008 46.872 15.8108 45.8571 15.8526 45.0583C16.2047 38.2987 19.7361 33.0077 25.3839 29.3757L25.3849 29.3767C26.367 28.7479 26.9632 28.3603 27.1329 28.2312L27.3829 28.0408L27.337 27.8914C27.3668 27.6985 27.29 27.4917 27.1036 27.3718L27.0948 27.3669L26.419 26.9412C24.856 25.9288 23.3868 24.7792 22.0265 23.5037H22.0255C17.8436 19.5743 15.6038 14.0008 15.8985 8.26733L15.8995 8.25562V8.2439C15.8994 7.99213 15.7373 7.74602 15.4698 7.66577L15.4513 7.65991L15.4317 7.65601L15.2022 7.59448C14.6787 7.42082 14.2449 7.03953 14.0079 6.53589C13.7394 5.9584 13.7562 5.28854 14.0587 4.72632L14.0636 4.71558C14.361 4.12587 14.9211 3.76211 15.6446 3.52808C16.2679 3.3265 16.9636 3.2363 17.6251 3.16772L17.9601 3.13745C23.7683 2.59845 29.6063 2.48144 35.4278 2.78198H35.4288C36.8904 2.8536 38.8142 3.00687 41.1974 3.24585C41.9863 3.32509 42.7806 3.54851 43.3683 3.94995C43.9385 4.33957 44.3136 4.89162 44.3272 5.68726V5.7478C44.3146 6.62831 43.7109 7.38596 42.8673 7.59644L42.6964 7.63159C42.3841 7.67628 42.1526 7.95047 42.1622 8.27026H42.1593C42.1593 8.38508 42.1446 8.80842 42.1143 9.54858H42.1026L42.0938 9.98999C42.0042 14.6873 40.1496 19.1769 36.9005 22.5671C35.2841 24.1807 33.507 25.6237 31.5968 26.8738L30.7696 27.3972L30.7618 27.4021C30.4404 27.6087 30.4404 28.0802 30.7618 28.2869L30.7735 28.2947L30.7862 28.3025C33.3814 29.7436 35.705 31.6203 37.6554 33.8513L38.0401 34.3025C40.4594 37.3812 41.8561 41.1366 42.0352 45.0486V45.0554C42.0769 45.7481 42.0936 46.8275 42.087 48.2986L42.0851 48.7507H42.3126C42.3689 48.7927 42.432 48.8253 42.5001 48.8435L42.504 48.8445C43.3009 49.0498 43.885 49.7329 43.9679 50.5525L43.9698 50.5652C44.0603 51.267 43.7766 51.8453 43.2813 52.2839C42.7763 52.7311 42.0647 53.0154 41.3819 53.0828H41.38C33.4901 53.8822 25.5423 53.9293 17.6446 53.2214L16.0655 53.0701C15.4042 53.0022 14.6833 52.6995 14.172 52.2292C13.6843 51.7807 13.4098 51.2059 13.506 50.5339L13.5167 50.4832C13.6971 49.57 14.4188 48.8621 15.3351 48.698L15.3575 48.6941L15.379 48.6873C15.6411 48.6124 15.8202 48.3737 15.8204 48.1042V48.0964ZM28.7237 29.9216C28.7218 29.8766 28.7147 29.8062 28.6847 29.7302C28.6673 29.6864 28.6382 29.6345 28.5948 29.5847L28.5509 29.1296L27.9395 29.4998C26.7136 30.242 25.5263 31.0504 24.3858 31.9255C20.618 34.7683 18.1322 38.9972 17.4796 43.6736L17.4786 43.6794C17.3246 44.8949 17.2747 46.1203 17.3282 47.3455V47.3464C17.3308 47.404 17.339 47.4856 17.3702 47.5691C17.4006 47.6505 17.4784 47.7985 17.6583 47.8699C17.8381 47.9413 17.9962 47.8868 18.0743 47.8484C18.1519 47.8102 18.2114 47.7574 18.253 47.7175L18.254 47.7185L28.4806 38.0388L28.4815 38.0398L28.4903 38.031C28.6235 37.8978 28.7237 37.7049 28.7237 37.4792V29.9216Z" stroke="#E11D48" stroke-width="0.9"/>
</svg>
