<svg width="57" height="57" viewBox="0 0 57 57" fill="none" xmlns="http://www.w3.org/2000/svg">
<path d="M23.1507 10.649C23.2511 10.0913 23.524 10.8507 24.6954 9.63569C25.2437 9.07795 25.7663 9.8635 26.4407 8.95228C26.8887 8.29503 27.9107 8.80041 28.2351 7.96507C28.6083 6.95172 28.7087 8.14313 29.8054 7.48327C31.1002 6.6977 30.2533 8.39452 31.1749 8.49662C31.9961 8.57255 31.5997 9.45761 32.0476 9.63565C32.771 9.88965 32.0476 11.2827 32.9203 11.3324C33.4686 11.61 33.1185 13.2308 33.0438 13.7624C33.5922 13.8121 33.6411 13.003 34.0144 12.825C34.5627 12.571 34.2384 11.432 34.4623 11.0261C35.0107 10.0651 34.0891 10.2929 34.712 9.4314C35.2604 8.67204 34.0633 8.85009 34.4881 7.48058C34.8871 6.21586 33.5175 6.92284 33.3657 6.03781C33.116 4.56884 32.5445 5.60838 32.3694 4.5191C32.2459 3.68379 31.5714 4.11323 30.9252 3.63405C30.0526 2.95064 29.8286 3.78592 28.8323 3.20462C28.2093 2.85112 28.3097 3.43242 27.2877 2.85112C26.9891 2.67307 26.415 3.38268 25.792 3.25699C24.8704 3.05537 24.3967 4.21799 23.748 4.44577C22.6771 4.7757 23.2254 5.66076 22.3527 6.57201C21.7554 7.20569 22.278 7.66131 21.6293 8.52283C21.1813 9.13033 21.8275 9.58592 21.5804 10.9031C21.4053 11.9164 21.7786 11.6886 22.0798 12.5501C22.1544 12.8276 22.2548 13.1078 23.0503 13.1838L23.1507 10.649ZM21.1814 33.0082C21.4311 33.0082 21.6293 33.0841 21.8043 33.236L22.8753 31.6648C20.2829 29.2087 17.5181 23.5866 21.4053 21.9161C21.3796 19.8894 21.4053 18.8787 21.9536 17.0299C16.4729 19.816 12.6838 25.7913 10.5162 31.7405C12.2359 34.1705 15.9481 34.778 18.7646 34.3983C18.0181 32.4999 17.9666 28.6009 18.8393 28.8025C19.6373 29.0041 17.2946 33.2854 21.1072 36.5771C23.8978 38.9835 25.7668 37.944 28.9562 36.6033C29.2291 35.692 31.1239 28.9312 31.7957 28.9808L41.9876 29.7402C42.711 29.79 41.4882 33.3616 41.1896 34.3488C42.8088 34.7023 45.3265 34.375 46.6214 33.4114C45.4011 25.9405 40.3169 20.5228 33.889 17.1061C34.4862 19.6879 34.8106 21.589 34.7617 24.2727C36.6796 24.5764 36.556 27.6898 34.4373 27.6898C32.3186 27.6898 32.1951 24.5765 34.1129 24.2727C34.1619 21.9422 33.9147 20.1957 33.4411 18.0197C32.8438 20.07 30.7998 23.4898 29.3299 24.2491C27.1134 25.4144 23.2262 18.3758 22.5775 17.1844C22.0549 18.9834 22.0034 19.8684 22.0291 21.6909C27.2113 20.6016 25.2187 28.3498 23.6484 31.5154C24.4696 32.225 25.3165 32.6806 26.0657 32.7042C26.5883 31.6149 28.3079 32.3245 27.8342 33.5657C27.4841 34.4272 26.1661 34.3513 25.991 33.3379C25.144 33.2881 24.2224 32.8063 23.3498 32.0967C22.9507 32.8299 22.5286 33.44 22.1295 33.7934C22.4539 35.5164 19.6376 35.2362 20.2863 33.6154C20.4098 33.2619 20.711 33.0079 21.1822 33.0079L21.1814 33.0082ZM21.48 33.8435C21.1814 33.1103 20.3576 34.3488 21.1814 34.3488C21.48 34.3488 21.5546 34.0451 21.48 33.8435ZM27.2362 33.0082C26.9633 32.2985 26.1138 33.5135 26.9376 33.5135C27.2362 33.5135 27.3108 33.2098 27.2362 33.0082ZM34.4367 25.1344C35.5076 25.1344 35.5076 26.805 34.4367 26.805C33.3658 26.805 33.3658 25.1344 34.4367 25.1344ZM35.4073 25.5141C34.9078 24.2729 32.9153 25.0087 33.4637 26.4253C33.9631 27.6665 35.9556 26.9569 35.4073 25.5141ZM10.8407 43.7962C10.591 45.0871 9.96803 52.8089 11.0158 53.1655C13.1344 53.8489 44.5022 53.6709 45.9238 51.8746C46.745 50.8612 45.5737 44.0242 45.3754 43.189C40.7159 45.9751 28.6065 44.2783 26.439 42.3799C21.5297 45.3415 15.9743 48.3815 10.8411 43.7991L10.8407 43.7962ZM45.9234 42.754C46.1731 43.7412 47.468 50.9315 46.4228 52.2748C44.7031 54.4272 12.761 54.477 10.8175 53.7438C9.17253 53.1625 9.92165 44.5528 10.3181 43.2852C5.53502 38.3729 11.5898 26.9537 14.2311 23.1308C16.149 20.3709 20.1366 16.6238 23.5991 15.6867C23.3752 15.1054 23.2259 14.4717 23.1255 13.8118C21.3569 13.7097 21.6298 12.7985 21.3311 12.4188C20.5099 11.4316 21.1561 10.7718 21.0068 10.0648C20.5331 7.91239 21.2797 8.56959 21.3801 7.40702C21.5036 6.04013 22.0777 6.37007 22.2759 5.40646C22.675 3.7097 23.6455 3.88775 23.7201 3.75944C24.5181 2.39256 25.7126 2.79845 26.3871 2.44236C27.6331 1.75895 27.5327 2.59423 28.2304 2.44236C29.0774 2.29049 28.9769 2.89798 29.8496 2.74611C31.0467 2.54448 30.8459 3.12579 31.819 3.30385C33.3146 3.55785 32.7663 4.4691 33.1138 4.56857C34.2105 4.92207 33.6132 5.8333 34.1358 5.93546C35.9044 6.28896 34.8593 7.88628 35.0574 8.13766C36.028 9.3029 35.0832 9.86063 35.1063 9.91036C35.405 10.4681 35.1553 11.4056 34.957 11.3034C35.3818 12.4686 34.334 13.304 34.2336 13.5317C34.0097 13.9612 33.6853 14.5687 32.9388 14.4168C32.8384 14.8724 32.7405 15.328 32.5887 15.7339C39.9895 19.1772 45.9933 25.1293 47.2909 33.5608C47.7157 36.3469 47.9885 40.8038 45.9214 42.7518L45.9234 42.754ZM21.9282 22.3717C21.6553 22.5995 19.3358 23.0551 20.3579 26.5247C20.8573 28.1717 21.9514 29.8659 23.1741 31.0835C24.2451 28.8552 26.737 21.1826 21.9282 22.3745V22.3717ZM22.9502 16.5744C23.2488 17.1059 27.5608 24.8041 29.1286 23.6391C30.8482 22.322 32.8665 18.9284 33.0648 16.6997L32.3697 16.3462C30.825 20.1431 25.9416 21.0045 23.8228 16.2965L22.9502 16.5744ZM46.7213 34.1211C45.2513 35.0324 42.7594 35.3623 41.0166 34.9564C40.3936 37.0827 39.9457 38.7795 37.8271 40.0469C36.4061 40.8822 32.8947 41.6415 31.5226 39.9447C30.3513 38.502 31.5483 40.5025 29.2804 39.6672C28.3098 39.3137 27.5607 39.2377 26.7884 40.3506C25.4936 42.2255 28.9071 42.8329 30.0784 43.1105C33.891 43.9956 41.1916 44.8335 45.0041 42.6811C47.3467 41.3378 47.0712 36.6297 46.7237 34.1235L46.7213 34.1211ZM28.3074 38.7559C28.3821 38.5019 28.5314 38.0227 28.7065 37.389C25.1436 38.9078 23.7483 39.4917 20.7078 37.0591C19.9613 36.4778 19.4361 35.7682 19.0397 35.0088C16.0741 35.4644 12.2616 34.8569 10.2687 32.4505C8.997 36.2238 8.25046 40.6045 11.2161 43.2624C16.0738 47.6432 21.3822 44.6817 26.0158 41.8694C25.3182 40.6806 26.8143 38.68 28.3074 38.7559ZM39.82 36.7554L41.6889 30.3505L31.8727 29.6409L28.9329 38.8815L30.2792 39.1852C31.7749 37.69 31.4016 40.1462 33.5178 40.2745C36.6584 40.4264 38.5017 39.413 39.8223 36.7553L39.82 36.7554ZM23.7226 11.005C23.2489 14.0686 24.6699 18.9807 28.032 18.8553C31.7185 18.7035 32.4161 14.9564 32.568 11.9924C31.6721 11.8667 31.8703 10.2458 31.8214 10.2197C31.098 9.94213 31.1984 9.13039 31.098 9.13039C30.1764 9.02827 30.076 8.49672 30.0503 8.0673C29.3784 8.44699 29.0026 8.39724 28.7786 8.29511C28.3049 9.38441 27.1336 9.05447 26.9353 9.30846C26.0395 10.5732 25.5143 9.71433 24.9917 10.2459C24.5927 10.6753 24.3688 10.9031 23.72 11.0052L23.7226 11.005ZM30.076 7.83919C30.0503 7.78944 30.0503 7.813 30.076 7.86537V7.83919Z" fill="#E11D48"/>
</svg>
