<svg width="390" height="58" viewBox="0 0 390 58" fill="none" xmlns="http://www.w3.org/2000/svg">
<path d="M7.852 52.084C7.11467 52.084 6.43333 51.9627 5.808 51.72C5.18267 51.468 4.64133 51.118 4.184 50.67C3.72667 50.222 3.36733 49.6947 3.106 49.088C2.854 48.4813 2.728 47.8187 2.728 47.1C2.728 46.3813 2.854 45.7187 3.106 45.112C3.36733 44.5053 3.72667 43.978 4.184 43.53C4.65067 43.082 5.19667 42.7367 5.822 42.494C6.44733 42.242 7.12867 42.116 7.866 42.116C8.57533 42.116 9.24267 42.2373 9.868 42.48C10.4933 42.7133 11.0207 43.068 11.45 43.544L10.792 44.202C10.3907 43.7913 9.94733 43.4973 9.462 43.32C8.97667 43.1333 8.454 43.04 7.894 43.04C7.306 43.04 6.76 43.1427 6.256 43.348C5.752 43.544 5.31333 43.8287 4.94 44.202C4.56667 44.566 4.27267 44.9953 4.058 45.49C3.85267 45.9753 3.75 46.512 3.75 47.1C3.75 47.688 3.85267 48.2293 4.058 48.724C4.27267 49.2093 4.56667 49.6387 4.94 50.012C5.31333 50.376 5.752 50.6607 6.256 50.866C6.76 51.062 7.306 51.16 7.894 51.16C8.454 51.16 8.97667 51.0667 9.462 50.88C9.94733 50.6933 10.3907 50.3947 10.792 49.984L11.45 50.642C11.0207 51.118 10.4933 51.4773 9.868 51.72C9.24267 51.9627 8.57067 52.084 7.852 52.084ZM16.1164 52.07C15.407 52.07 14.7677 51.9113 14.1984 51.594C13.6384 51.2673 13.195 50.824 12.8684 50.264C12.5417 49.6947 12.3784 49.046 12.3784 48.318C12.3784 47.5807 12.5417 46.932 12.8684 46.372C13.195 45.812 13.6384 45.3733 14.1984 45.056C14.7584 44.7387 15.3977 44.58 16.1164 44.58C16.8444 44.58 17.4884 44.7387 18.0484 45.056C18.6177 45.3733 19.061 45.812 19.3784 46.372C19.705 46.932 19.8684 47.5807 19.8684 48.318C19.8684 49.046 19.705 49.6947 19.3784 50.264C19.061 50.824 18.6177 51.2673 18.0484 51.594C17.479 51.9113 16.835 52.07 16.1164 52.07ZM16.1164 51.188C16.6484 51.188 17.1197 51.0713 17.5304 50.838C17.941 50.5953 18.263 50.2593 18.4964 49.83C18.739 49.3913 18.8604 48.8873 18.8604 48.318C18.8604 47.7393 18.739 47.2353 18.4964 46.806C18.263 46.3767 17.941 46.0453 17.5304 45.812C17.1197 45.5693 16.653 45.448 16.1304 45.448C15.6077 45.448 15.141 45.5693 14.7304 45.812C14.3197 46.0453 13.993 46.3767 13.7504 46.806C13.5077 47.2353 13.3864 47.7393 13.3864 48.318C13.3864 48.8873 13.5077 49.3913 13.7504 49.83C13.993 50.2593 14.3197 50.5953 14.7304 50.838C15.141 51.0713 15.603 51.188 16.1164 51.188ZM25.6497 44.58C26.2471 44.58 26.7697 44.6967 27.2177 44.93C27.6751 45.154 28.0297 45.4993 28.2817 45.966C28.5431 46.4327 28.6737 47.0207 28.6737 47.73V52H27.6797V47.828C27.6797 47.0533 27.4837 46.47 27.0917 46.078C26.7091 45.6767 26.1677 45.476 25.4677 45.476C24.9451 45.476 24.4877 45.5833 24.0957 45.798C23.7131 46.0033 23.4144 46.3067 23.1997 46.708C22.9944 47.1 22.8917 47.576 22.8917 48.136V52H21.8977V44.65H22.8497V46.666L22.6957 46.288C22.9291 45.756 23.3024 45.3407 23.8157 45.042C24.3291 44.734 24.9404 44.58 25.6497 44.58ZM33.3327 52.07C32.726 52.07 32.152 51.986 31.6107 51.818C31.0693 51.6407 30.6447 51.4213 30.3367 51.16L30.7847 50.376C31.0833 50.6 31.466 50.796 31.9327 50.964C32.3993 51.1227 32.8893 51.202 33.4027 51.202C34.1027 51.202 34.6067 51.0947 34.9147 50.88C35.2227 50.656 35.3767 50.362 35.3767 49.998C35.3767 49.7273 35.288 49.5173 35.1107 49.368C34.9427 49.2093 34.7187 49.0927 34.4387 49.018C34.1587 48.934 33.846 48.864 33.5007 48.808C33.1553 48.752 32.81 48.6867 32.4647 48.612C32.1287 48.5373 31.8207 48.43 31.5407 48.29C31.2607 48.1407 31.032 47.94 30.8547 47.688C30.6867 47.436 30.6027 47.1 30.6027 46.68C30.6027 46.2787 30.7147 45.9193 30.9387 45.602C31.1627 45.2847 31.4893 45.0373 31.9187 44.86C32.3573 44.6733 32.8893 44.58 33.5147 44.58C33.9907 44.58 34.4667 44.6453 34.9427 44.776C35.4187 44.8973 35.8107 45.0607 36.1187 45.266L35.6847 46.064C35.358 45.84 35.008 45.6813 34.6347 45.588C34.2613 45.4853 33.888 45.434 33.5147 45.434C32.852 45.434 32.362 45.5507 32.0447 45.784C31.7367 46.008 31.5827 46.2973 31.5827 46.652C31.5827 46.932 31.6667 47.1513 31.8347 47.31C32.012 47.4687 32.2407 47.5947 32.5207 47.688C32.81 47.772 33.1227 47.842 33.4587 47.898C33.804 47.954 34.1447 48.024 34.4807 48.108C34.826 48.1827 35.1387 48.29 35.4187 48.43C35.708 48.5607 35.9367 48.752 36.1047 49.004C36.282 49.2467 36.3707 49.5687 36.3707 49.97C36.3707 50.3993 36.2493 50.7727 36.0067 51.09C35.7733 51.398 35.428 51.6407 34.9707 51.818C34.5227 51.986 33.9767 52.07 33.3327 52.07ZM41.2326 52.07C40.6073 52.07 40.0613 51.9533 39.5946 51.72C39.1279 51.4867 38.7639 51.1367 38.5026 50.67C38.2506 50.2033 38.1246 49.62 38.1246 48.92V44.65H39.1186V48.808C39.1186 49.592 39.3099 50.1847 39.6926 50.586C40.0846 50.978 40.6306 51.174 41.3306 51.174C41.8439 51.174 42.2873 51.0713 42.6606 50.866C43.0433 50.6513 43.3326 50.3433 43.5286 49.942C43.7339 49.5407 43.8366 49.06 43.8366 48.5V44.65H44.8306V52H43.8786V49.984L44.0326 50.348C43.7993 50.8893 43.4353 51.314 42.9406 51.622C42.4553 51.9207 41.8859 52.07 41.2326 52.07ZM47.6008 52V41.612H48.5948V52H47.6008ZM53.7256 52.07C53.035 52.07 52.503 51.8833 52.1296 51.51C51.7563 51.1367 51.5696 50.6093 51.5696 49.928V43.026H52.5636V49.872C52.5636 50.3013 52.671 50.6327 52.8856 50.866C53.1096 51.0993 53.427 51.216 53.8376 51.216C54.2763 51.216 54.6403 51.09 54.9296 50.838L55.2796 51.552C55.0836 51.7293 54.8456 51.86 54.5656 51.944C54.295 52.028 54.015 52.07 53.7256 52.07ZM50.2536 45.476V44.65H54.8036V45.476H50.2536ZM61.6951 52V50.376L61.6531 50.11V47.394C61.6531 46.7687 61.4758 46.288 61.1211 45.952C60.7758 45.616 60.2578 45.448 59.5671 45.448C59.0911 45.448 58.6385 45.5273 58.2091 45.686C57.7798 45.8447 57.4158 46.0547 57.1171 46.316L56.6691 45.574C57.0425 45.2567 57.4905 45.014 58.0131 44.846C58.5358 44.6687 59.0865 44.58 59.6651 44.58C60.6171 44.58 61.3498 44.818 61.8631 45.294C62.3858 45.7607 62.6471 46.4747 62.6471 47.436V52H61.6951ZM59.1611 52.07C58.6105 52.07 58.1298 51.9813 57.7191 51.804C57.3178 51.6173 57.0098 51.3653 56.7951 51.048C56.5805 50.7213 56.4731 50.348 56.4731 49.928C56.4731 49.5453 56.5618 49.2 56.7391 48.892C56.9258 48.5747 57.2245 48.3227 57.6351 48.136C58.0551 47.94 58.6151 47.842 59.3151 47.842H61.8491V48.584H59.3431C58.6338 48.584 58.1391 48.71 57.8591 48.962C57.5885 49.214 57.4531 49.5267 57.4531 49.9C57.4531 50.32 57.6165 50.656 57.9431 50.908C58.2698 51.16 58.7271 51.286 59.3151 51.286C59.8751 51.286 60.3558 51.16 60.7571 50.908C61.1678 50.6467 61.4665 50.2733 61.6531 49.788L61.8771 50.474C61.6905 50.9593 61.3638 51.3467 60.8971 51.636C60.4398 51.9253 59.8611 52.07 59.1611 52.07ZM69.0989 44.58C69.6963 44.58 70.2189 44.6967 70.6669 44.93C71.1243 45.154 71.4789 45.4993 71.7309 45.966C71.9923 46.4327 72.1229 47.0207 72.1229 47.73V52H71.1289V47.828C71.1289 47.0533 70.9329 46.47 70.5409 46.078C70.1583 45.6767 69.6169 45.476 68.9169 45.476C68.3943 45.476 67.9369 45.5833 67.5449 45.798C67.1623 46.0033 66.8636 46.3067 66.6489 46.708C66.4436 47.1 66.3409 47.576 66.3409 48.136V52H65.3469V44.65H66.2989V46.666L66.1449 46.288C66.3783 45.756 66.7516 45.3407 67.2649 45.042C67.7783 44.734 68.3896 44.58 69.0989 44.58ZM77.1319 52.07C76.4412 52.07 75.9092 51.8833 75.5359 51.51C75.1625 51.1367 74.9759 50.6093 74.9759 49.928V43.026H75.9699V49.872C75.9699 50.3013 76.0772 50.6327 76.2919 50.866C76.5159 51.0993 76.8332 51.216 77.2439 51.216C77.6825 51.216 78.0465 51.09 78.3359 50.838L78.6859 51.552C78.4899 51.7293 78.2519 51.86 77.9719 51.944C77.7012 52.028 77.4212 52.07 77.1319 52.07ZM73.6599 45.476V44.65H78.2099V45.476H73.6599ZM88.6534 52.084C87.9161 52.084 87.2301 51.9627 86.5954 51.72C85.9701 51.468 85.4241 51.118 84.9574 50.67C84.5001 50.2127 84.1408 49.6853 83.8794 49.088C83.6274 48.4813 83.5014 47.8187 83.5014 47.1C83.5014 46.3813 83.6274 45.7233 83.8794 45.126C84.1408 44.5193 84.5001 43.992 84.9574 43.544C85.4241 43.0867 85.9701 42.7367 86.5954 42.494C87.2208 42.242 87.9068 42.116 88.6534 42.116C89.3908 42.116 90.0721 42.242 90.6974 42.494C91.3228 42.7367 91.8641 43.082 92.3214 43.53C92.7881 43.978 93.1474 44.5053 93.3994 45.112C93.6608 45.7187 93.7914 46.3813 93.7914 47.1C93.7914 47.8187 93.6608 48.4813 93.3994 49.088C93.1474 49.6947 92.7881 50.222 92.3214 50.67C91.8641 51.118 91.3228 51.468 90.6974 51.72C90.0721 51.9627 89.3908 52.084 88.6534 52.084ZM88.6534 51.16C89.2414 51.16 89.7828 51.062 90.2774 50.866C90.7814 50.6607 91.2154 50.376 91.5794 50.012C91.9528 49.6387 92.2421 49.2093 92.4474 48.724C92.6528 48.2293 92.7554 47.688 92.7554 47.1C92.7554 46.512 92.6528 45.9753 92.4474 45.49C92.2421 44.9953 91.9528 44.566 91.5794 44.202C91.2154 43.8287 90.7814 43.544 90.2774 43.348C89.7828 43.1427 89.2414 43.04 88.6534 43.04C88.0654 43.04 87.5194 43.1427 87.0154 43.348C86.5114 43.544 86.0728 43.8287 85.6994 44.202C85.3354 44.566 85.0461 44.9953 84.8314 45.49C84.6261 45.9753 84.5234 46.512 84.5234 47.1C84.5234 47.6787 84.6261 48.2153 84.8314 48.71C85.0461 49.2047 85.3354 49.6387 85.6994 50.012C86.0728 50.376 86.5114 50.6607 87.0154 50.866C87.5194 51.062 88.0654 51.16 88.6534 51.16ZM99.6976 52.07C99.0536 52.07 98.4749 51.9253 97.9616 51.636C97.4482 51.3373 97.0422 50.908 96.7436 50.348C96.4449 49.788 96.2956 49.1113 96.2956 48.318C96.2956 47.5153 96.4449 46.8387 96.7436 46.288C97.0516 45.728 97.4622 45.3033 97.9756 45.014C98.4889 44.7247 99.0629 44.58 99.6976 44.58C100.398 44.58 101.023 44.7387 101.574 45.056C102.134 45.364 102.572 45.798 102.89 46.358C103.207 46.918 103.366 47.5713 103.366 48.318C103.366 49.0553 103.207 49.7087 102.89 50.278C102.572 50.838 102.134 51.2767 101.574 51.594C101.023 51.9113 100.398 52.07 99.6976 52.07ZM95.9036 52V41.612H96.8976V46.82L96.7576 48.304L96.8556 49.788V52H95.9036ZM99.6276 51.188C100.15 51.188 100.617 51.0713 101.028 50.838C101.438 50.5953 101.765 50.2593 102.008 49.83C102.25 49.3913 102.372 48.8873 102.372 48.318C102.372 47.7393 102.25 47.2353 102.008 46.806C101.765 46.3767 101.438 46.0453 101.028 45.812C100.617 45.5693 100.15 45.448 99.6276 45.448C99.1049 45.448 98.6336 45.5693 98.2136 45.812C97.8029 46.0453 97.4762 46.3767 97.2336 46.806C97.0002 47.2353 96.8836 47.7393 96.8836 48.318C96.8836 48.8873 97.0002 49.3913 97.2336 49.83C97.4762 50.2593 97.8029 50.5953 98.2136 50.838C98.6336 51.0713 99.1049 51.188 99.6276 51.188ZM107.366 52.07C106.759 52.07 106.185 51.986 105.644 51.818C105.103 51.6407 104.678 51.4213 104.37 51.16L104.818 50.376C105.117 50.6 105.499 50.796 105.966 50.964C106.433 51.1227 106.923 51.202 107.436 51.202C108.136 51.202 108.64 51.0947 108.948 50.88C109.256 50.656 109.41 50.362 109.41 49.998C109.41 49.7273 109.321 49.5173 109.144 49.368C108.976 49.2093 108.752 49.0927 108.472 49.018C108.192 48.934 107.879 48.864 107.534 48.808C107.189 48.752 106.843 48.6867 106.498 48.612C106.162 48.5373 105.854 48.43 105.574 48.29C105.294 48.1407 105.065 47.94 104.888 47.688C104.72 47.436 104.636 47.1 104.636 46.68C104.636 46.2787 104.748 45.9193 104.972 45.602C105.196 45.2847 105.523 45.0373 105.952 44.86C106.391 44.6733 106.923 44.58 107.548 44.58C108.024 44.58 108.5 44.6453 108.976 44.776C109.452 44.8973 109.844 45.0607 110.152 45.266L109.718 46.064C109.391 45.84 109.041 45.6813 108.668 45.588C108.295 45.4853 107.921 45.434 107.548 45.434C106.885 45.434 106.395 45.5507 106.078 45.784C105.77 46.008 105.616 46.2973 105.616 46.652C105.616 46.932 105.7 47.1513 105.868 47.31C106.045 47.4687 106.274 47.5947 106.554 47.688C106.843 47.772 107.156 47.842 107.492 47.898C107.837 47.954 108.178 48.024 108.514 48.108C108.859 48.1827 109.172 48.29 109.452 48.43C109.741 48.5607 109.97 48.752 110.138 49.004C110.315 49.2467 110.404 49.5687 110.404 49.97C110.404 50.3993 110.283 50.7727 110.04 51.09C109.807 51.398 109.461 51.6407 109.004 51.818C108.556 51.986 108.01 52.07 107.366 52.07ZM114.552 52.07C113.861 52.07 113.329 51.8833 112.956 51.51C112.582 51.1367 112.396 50.6093 112.396 49.928V43.026H113.39V49.872C113.39 50.3013 113.497 50.6327 113.712 50.866C113.936 51.0993 114.253 51.216 114.664 51.216C115.102 51.216 115.466 51.09 115.756 50.838L116.106 51.552C115.91 51.7293 115.672 51.86 115.392 51.944C115.121 52.028 114.841 52.07 114.552 52.07ZM111.08 45.476V44.65H115.63V45.476H111.08ZM120.778 52.07C120.012 52.07 119.34 51.9113 118.762 51.594C118.183 51.2673 117.73 50.824 117.404 50.264C117.077 49.6947 116.914 49.046 116.914 48.318C116.914 47.59 117.068 46.946 117.376 46.386C117.693 45.826 118.122 45.3873 118.664 45.07C119.214 44.7433 119.83 44.58 120.512 44.58C121.202 44.58 121.814 44.7387 122.346 45.056C122.887 45.364 123.312 45.8027 123.62 46.372C123.928 46.932 124.082 47.5807 124.082 48.318C124.082 48.3647 124.077 48.416 124.068 48.472C124.068 48.5187 124.068 48.57 124.068 48.626H117.67V47.884H123.536L123.144 48.178C123.144 47.646 123.027 47.1747 122.794 46.764C122.57 46.344 122.262 46.0173 121.87 45.784C121.478 45.5507 121.025 45.434 120.512 45.434C120.008 45.434 119.555 45.5507 119.154 45.784C118.752 46.0173 118.44 46.344 118.216 46.764C117.992 47.184 117.88 47.6647 117.88 48.206V48.36C117.88 48.92 118.001 49.4147 118.244 49.844C118.496 50.264 118.841 50.5953 119.28 50.838C119.728 51.0713 120.236 51.188 120.806 51.188C121.254 51.188 121.669 51.1087 122.052 50.95C122.444 50.7913 122.78 50.5487 123.06 50.222L123.62 50.866C123.293 51.258 122.882 51.5567 122.388 51.762C121.902 51.9673 121.366 52.07 120.778 52.07ZM128.429 52.07C127.738 52.07 127.206 51.8833 126.833 51.51C126.459 51.1367 126.273 50.6093 126.273 49.928V43.026H127.267V49.872C127.267 50.3013 127.374 50.6327 127.589 50.866C127.813 51.0993 128.13 51.216 128.541 51.216C128.979 51.216 129.343 51.09 129.633 50.838L129.983 51.552C129.787 51.7293 129.549 51.86 129.269 51.944C128.998 52.028 128.718 52.07 128.429 52.07ZM124.957 45.476V44.65H129.507V45.476H124.957ZM131.792 52V44.65H132.744V46.652L132.646 46.302C132.852 45.742 133.197 45.3173 133.682 45.028C134.168 44.7293 134.77 44.58 135.488 44.58V45.546C135.451 45.546 135.414 45.546 135.376 45.546C135.339 45.5367 135.302 45.532 135.264 45.532C134.49 45.532 133.883 45.77 133.444 46.246C133.006 46.7127 132.786 47.38 132.786 48.248V52H131.792ZM137.302 52V44.65H138.296V52H137.302ZM137.806 43.026C137.601 43.026 137.428 42.956 137.288 42.816C137.148 42.676 137.078 42.508 137.078 42.312C137.078 42.116 137.148 41.9527 137.288 41.822C137.428 41.682 137.601 41.612 137.806 41.612C138.011 41.612 138.184 41.6773 138.324 41.808C138.464 41.9387 138.534 42.102 138.534 42.298C138.534 42.5033 138.464 42.676 138.324 42.816C138.193 42.956 138.021 43.026 137.806 43.026ZM144.114 52.07C143.386 52.07 142.732 51.9113 142.154 51.594C141.584 51.2673 141.136 50.824 140.81 50.264C140.483 49.6947 140.32 49.046 140.32 48.318C140.32 47.5807 140.483 46.932 140.81 46.372C141.136 45.812 141.584 45.3733 142.154 45.056C142.732 44.7387 143.386 44.58 144.114 44.58C144.739 44.58 145.304 44.7013 145.808 44.944C146.312 45.1867 146.708 45.5507 146.998 46.036L146.256 46.54C146.004 46.1667 145.691 45.8913 145.318 45.714C144.944 45.5367 144.538 45.448 144.1 45.448C143.577 45.448 143.106 45.5693 142.686 45.812C142.266 46.0453 141.934 46.3767 141.692 46.806C141.449 47.2353 141.328 47.7393 141.328 48.318C141.328 48.8967 141.449 49.4007 141.692 49.83C141.934 50.2593 142.266 50.5953 142.686 50.838C143.106 51.0713 143.577 51.188 144.1 51.188C144.538 51.188 144.944 51.0993 145.318 50.922C145.691 50.7447 146.004 50.474 146.256 50.11L146.998 50.614C146.708 51.09 146.312 51.454 145.808 51.706C145.304 51.9487 144.739 52.07 144.114 52.07ZM148.841 52V44.65H149.835V52H148.841ZM149.345 43.026C149.14 43.026 148.967 42.956 148.827 42.816C148.687 42.676 148.617 42.508 148.617 42.312C148.617 42.116 148.687 41.9527 148.827 41.822C148.967 41.682 149.14 41.612 149.345 41.612C149.55 41.612 149.723 41.6773 149.863 41.808C150.003 41.9387 150.073 42.102 150.073 42.298C150.073 42.5033 150.003 42.676 149.863 42.816C149.732 42.956 149.56 43.026 149.345 43.026ZM157.207 52V50.376L157.165 50.11V47.394C157.165 46.7687 156.988 46.288 156.633 45.952C156.288 45.616 155.77 45.448 155.079 45.448C154.603 45.448 154.15 45.5273 153.721 45.686C153.292 45.8447 152.928 46.0547 152.629 46.316L152.181 45.574C152.554 45.2567 153.002 45.014 153.525 44.846C154.048 44.6687 154.598 44.58 155.177 44.58C156.129 44.58 156.862 44.818 157.375 45.294C157.898 45.7607 158.159 46.4747 158.159 47.436V52H157.207ZM154.673 52.07C154.122 52.07 153.642 51.9813 153.231 51.804C152.83 51.6173 152.522 51.3653 152.307 51.048C152.092 50.7213 151.985 50.348 151.985 49.928C151.985 49.5453 152.074 49.2 152.251 48.892C152.438 48.5747 152.736 48.3227 153.147 48.136C153.567 47.94 154.127 47.842 154.827 47.842H157.361V48.584H154.855C154.146 48.584 153.651 48.71 153.371 48.962C153.1 49.214 152.965 49.5267 152.965 49.9C152.965 50.32 153.128 50.656 153.455 50.908C153.782 51.16 154.239 51.286 154.827 51.286C155.387 51.286 155.868 51.16 156.269 50.908C156.68 50.6467 156.978 50.2733 157.165 49.788L157.389 50.474C157.202 50.9593 156.876 51.3467 156.409 51.636C155.952 51.9253 155.373 52.07 154.673 52.07ZM164.611 44.58C165.208 44.58 165.731 44.6967 166.179 44.93C166.636 45.154 166.991 45.4993 167.243 45.966C167.504 46.4327 167.635 47.0207 167.635 47.73V52H166.641V47.828C166.641 47.0533 166.445 46.47 166.053 46.078C165.67 45.6767 165.129 45.476 164.429 45.476C163.906 45.476 163.449 45.5833 163.057 45.798C162.674 46.0033 162.375 46.3067 162.161 46.708C161.955 47.1 161.853 47.576 161.853 48.136V52H160.859V44.65H161.811V46.666L161.657 46.288C161.89 45.756 162.263 45.3407 162.777 45.042C163.29 44.734 163.901 44.58 164.611 44.58ZM176.574 52.084C175.939 52.084 175.374 51.9813 174.88 51.776C174.385 51.5613 173.993 51.2673 173.704 50.894C173.424 50.5207 173.284 50.0867 173.284 49.592C173.284 49.172 173.377 48.7893 173.564 48.444C173.75 48.0893 174.049 47.744 174.46 47.408C174.88 47.0627 175.435 46.7033 176.126 46.33C176.714 46.0033 177.171 45.7233 177.498 45.49C177.834 45.2473 178.072 45.0187 178.212 44.804C178.352 44.58 178.422 44.342 178.422 44.09C178.422 43.726 178.296 43.432 178.044 43.208C177.801 42.984 177.451 42.872 176.994 42.872C176.499 42.872 176.116 42.998 175.846 43.25C175.575 43.4927 175.44 43.81 175.44 44.202C175.44 44.398 175.468 44.5847 175.524 44.762C175.589 44.9393 175.706 45.1353 175.874 45.35C176.051 45.5647 176.294 45.8353 176.602 46.162L181.782 51.496L181.208 52.154L175.804 46.596C175.477 46.2507 175.216 45.952 175.02 45.7C174.833 45.4387 174.702 45.1913 174.628 44.958C174.553 44.7247 174.516 44.4773 174.516 44.216C174.516 43.796 174.614 43.432 174.81 43.124C175.015 42.8067 175.304 42.564 175.678 42.396C176.051 42.2187 176.49 42.13 176.994 42.13C177.451 42.13 177.848 42.2093 178.184 42.368C178.529 42.5173 178.795 42.7367 178.982 43.026C179.178 43.3153 179.276 43.6653 179.276 44.076C179.276 44.4307 179.187 44.762 179.01 45.07C178.842 45.378 178.562 45.6813 178.17 45.98C177.778 46.2693 177.246 46.596 176.574 46.96C175.986 47.2867 175.519 47.5853 175.174 47.856C174.838 48.1267 174.6 48.3927 174.46 48.654C174.32 48.906 174.25 49.186 174.25 49.494C174.25 49.8487 174.348 50.1613 174.544 50.432C174.749 50.6933 175.029 50.8987 175.384 51.048C175.748 51.188 176.163 51.258 176.63 51.258C177.283 51.258 177.866 51.1227 178.38 50.852C178.893 50.5813 179.322 50.1707 179.668 49.62C180.022 49.0693 180.279 48.3787 180.438 47.548L181.236 47.8C181.058 48.7333 180.755 49.5173 180.326 50.152C179.896 50.7867 179.364 51.2673 178.73 51.594C178.095 51.9207 177.376 52.084 176.574 52.084ZM191.479 52.084C190.742 52.084 190.06 51.9627 189.435 51.72C188.81 51.468 188.268 51.118 187.811 50.67C187.354 50.222 186.994 49.6947 186.733 49.088C186.481 48.4813 186.355 47.8187 186.355 47.1C186.355 46.3813 186.481 45.7187 186.733 45.112C186.994 44.5053 187.354 43.978 187.811 43.53C188.278 43.082 188.824 42.7367 189.449 42.494C190.074 42.242 190.756 42.116 191.493 42.116C192.202 42.116 192.87 42.2373 193.495 42.48C194.12 42.7133 194.648 43.068 195.077 43.544L194.419 44.202C194.018 43.7913 193.574 43.4973 193.089 43.32C192.604 43.1333 192.081 43.04 191.521 43.04C190.933 43.04 190.387 43.1427 189.883 43.348C189.379 43.544 188.94 43.8287 188.567 44.202C188.194 44.566 187.9 44.9953 187.685 45.49C187.48 45.9753 187.377 46.512 187.377 47.1C187.377 47.688 187.48 48.2293 187.685 48.724C187.9 49.2093 188.194 49.6387 188.567 50.012C188.94 50.376 189.379 50.6607 189.883 50.866C190.387 51.062 190.933 51.16 191.521 51.16C192.081 51.16 192.604 51.0667 193.089 50.88C193.574 50.6933 194.018 50.3947 194.419 49.984L195.077 50.642C194.648 51.118 194.12 51.4773 193.495 51.72C192.87 51.9627 192.198 52.084 191.479 52.084ZM199.743 52.07C199.034 52.07 198.395 51.9113 197.825 51.594C197.265 51.2673 196.822 50.824 196.495 50.264C196.169 49.6947 196.005 49.046 196.005 48.318C196.005 47.5807 196.169 46.932 196.495 46.372C196.822 45.812 197.265 45.3733 197.825 45.056C198.385 44.7387 199.025 44.58 199.743 44.58C200.471 44.58 201.115 44.7387 201.675 45.056C202.245 45.3733 202.688 45.812 203.005 46.372C203.332 46.932 203.495 47.5807 203.495 48.318C203.495 49.046 203.332 49.6947 203.005 50.264C202.688 50.824 202.245 51.2673 201.675 51.594C201.106 51.9113 200.462 52.07 199.743 52.07ZM199.743 51.188C200.275 51.188 200.747 51.0713 201.157 50.838C201.568 50.5953 201.89 50.2593 202.123 49.83C202.366 49.3913 202.487 48.8873 202.487 48.318C202.487 47.7393 202.366 47.2353 202.123 46.806C201.89 46.3767 201.568 46.0453 201.157 45.812C200.747 45.5693 200.28 45.448 199.757 45.448C199.235 45.448 198.768 45.5693 198.357 45.812C197.947 46.0453 197.62 46.3767 197.377 46.806C197.135 47.2353 197.013 47.7393 197.013 48.318C197.013 48.8873 197.135 49.3913 197.377 49.83C197.62 50.2593 197.947 50.5953 198.357 50.838C198.768 51.0713 199.23 51.188 199.743 51.188ZM207.499 52.07C206.892 52.07 206.318 51.986 205.777 51.818C205.235 51.6407 204.811 51.4213 204.503 51.16L204.951 50.376C205.249 50.6 205.632 50.796 206.099 50.964C206.565 51.1227 207.055 51.202 207.569 51.202C208.269 51.202 208.773 51.0947 209.081 50.88C209.389 50.656 209.543 50.362 209.543 49.998C209.543 49.7273 209.454 49.5173 209.277 49.368C209.109 49.2093 208.885 49.0927 208.605 49.018C208.325 48.934 208.012 48.864 207.667 48.808C207.321 48.752 206.976 48.6867 206.631 48.612C206.295 48.5373 205.987 48.43 205.707 48.29C205.427 48.1407 205.198 47.94 205.021 47.688C204.853 47.436 204.769 47.1 204.769 46.68C204.769 46.2787 204.881 45.9193 205.105 45.602C205.329 45.2847 205.655 45.0373 206.085 44.86C206.523 44.6733 207.055 44.58 207.681 44.58C208.157 44.58 208.633 44.6453 209.109 44.776C209.585 44.8973 209.977 45.0607 210.285 45.266L209.851 46.064C209.524 45.84 209.174 45.6813 208.801 45.588C208.427 45.4853 208.054 45.434 207.681 45.434C207.018 45.434 206.528 45.5507 206.211 45.784C205.903 46.008 205.749 46.2973 205.749 46.652C205.749 46.932 205.833 47.1513 206.001 47.31C206.178 47.4687 206.407 47.5947 206.687 47.688C206.976 47.772 207.289 47.842 207.625 47.898C207.97 47.954 208.311 48.024 208.647 48.108C208.992 48.1827 209.305 48.29 209.585 48.43C209.874 48.5607 210.103 48.752 210.271 49.004C210.448 49.2467 210.537 49.5687 210.537 49.97C210.537 50.3993 210.415 50.7727 210.173 51.09C209.939 51.398 209.594 51.6407 209.137 51.818C208.689 51.986 208.143 52.07 207.499 52.07ZM221.545 44.58C222.142 44.58 222.66 44.6967 223.099 44.93C223.547 45.154 223.892 45.4993 224.135 45.966C224.387 46.4327 224.513 47.0207 224.513 47.73V52H223.519V47.828C223.519 47.0533 223.332 46.47 222.959 46.078C222.595 45.6767 222.077 45.476 221.405 45.476C220.901 45.476 220.462 45.5833 220.089 45.798C219.725 46.0033 219.44 46.3067 219.235 46.708C219.039 47.1 218.941 47.576 218.941 48.136V52H217.947V47.828C217.947 47.0533 217.76 46.47 217.387 46.078C217.013 45.6767 216.491 45.476 215.819 45.476C215.324 45.476 214.89 45.5833 214.517 45.798C214.143 46.0033 213.854 46.3067 213.649 46.708C213.453 47.1 213.355 47.576 213.355 48.136V52H212.361V44.65H213.313V46.638L213.159 46.288C213.383 45.756 213.742 45.3407 214.237 45.042C214.741 44.734 215.333 44.58 216.015 44.58C216.733 44.58 217.345 44.762 217.849 45.126C218.353 45.4807 218.679 46.0173 218.829 46.736L218.437 46.582C218.651 45.9847 219.029 45.504 219.571 45.14C220.121 44.7667 220.779 44.58 221.545 44.58ZM230.33 52.07C229.565 52.07 228.893 51.9113 228.314 51.594C227.736 51.2673 227.283 50.824 226.956 50.264C226.63 49.6947 226.466 49.046 226.466 48.318C226.466 47.59 226.62 46.946 226.928 46.386C227.246 45.826 227.675 45.3873 228.216 45.07C228.767 44.7433 229.383 44.58 230.064 44.58C230.755 44.58 231.366 44.7387 231.898 45.056C232.44 45.364 232.864 45.8027 233.172 46.372C233.48 46.932 233.634 47.5807 233.634 48.318C233.634 48.3647 233.63 48.416 233.62 48.472C233.62 48.5187 233.62 48.57 233.62 48.626H227.222V47.884H233.088L232.696 48.178C232.696 47.646 232.58 47.1747 232.346 46.764C232.122 46.344 231.814 46.0173 231.422 45.784C231.03 45.5507 230.578 45.434 230.064 45.434C229.56 45.434 229.108 45.5507 228.706 45.784C228.305 46.0173 227.992 46.344 227.768 46.764C227.544 47.184 227.432 47.6647 227.432 48.206V48.36C227.432 48.92 227.554 49.4147 227.796 49.844C228.048 50.264 228.394 50.5953 228.832 50.838C229.28 51.0713 229.789 51.188 230.358 51.188C230.806 51.188 231.222 51.1087 231.604 50.95C231.996 50.7913 232.332 50.5487 232.612 50.222L233.172 50.866C232.846 51.258 232.435 51.5567 231.94 51.762C231.455 51.9673 230.918 52.07 230.33 52.07ZM237.981 52.07C237.291 52.07 236.759 51.8833 236.385 51.51C236.012 51.1367 235.825 50.6093 235.825 49.928V43.026H236.819V49.872C236.819 50.3013 236.927 50.6327 237.141 50.866C237.365 51.0993 237.683 51.216 238.093 51.216C238.532 51.216 238.896 51.09 239.185 50.838L239.535 51.552C239.339 51.7293 239.101 51.86 238.821 51.944C238.551 52.028 238.271 52.07 237.981 52.07ZM234.509 45.476V44.65H239.059V45.476H234.509ZM241.345 52V44.65H242.339V52H241.345ZM241.849 43.026C241.644 43.026 241.471 42.956 241.331 42.816C241.191 42.676 241.121 42.508 241.121 42.312C241.121 42.116 241.191 41.9527 241.331 41.822C241.471 41.682 241.644 41.612 241.849 41.612C242.054 41.612 242.227 41.6773 242.367 41.808C242.507 41.9387 242.577 42.102 242.577 42.298C242.577 42.5033 242.507 42.676 242.367 42.816C242.236 42.956 242.064 43.026 241.849 43.026ZM248.157 52.07C247.429 52.07 246.775 51.9113 246.197 51.594C245.627 51.2673 245.179 50.824 244.853 50.264C244.526 49.6947 244.363 49.046 244.363 48.318C244.363 47.5807 244.526 46.932 244.853 46.372C245.179 45.812 245.627 45.3733 246.197 45.056C246.775 44.7387 247.429 44.58 248.157 44.58C248.782 44.58 249.347 44.7013 249.851 44.944C250.355 45.1867 250.751 45.5507 251.041 46.036L250.299 46.54C250.047 46.1667 249.734 45.8913 249.361 45.714C248.987 45.5367 248.581 45.448 248.143 45.448C247.62 45.448 247.149 45.5693 246.729 45.812C246.309 46.0453 245.977 46.3767 245.735 46.806C245.492 47.2353 245.371 47.7393 245.371 48.318C245.371 48.8967 245.492 49.4007 245.735 49.83C245.977 50.2593 246.309 50.5953 246.729 50.838C247.149 51.0713 247.62 51.188 248.143 51.188C248.581 51.188 248.987 51.0993 249.361 50.922C249.734 50.7447 250.047 50.474 250.299 50.11L251.041 50.614C250.751 51.09 250.355 51.454 249.851 51.706C249.347 51.9487 248.782 52.07 248.157 52.07ZM261.165 52.084C260.419 52.084 259.728 51.9627 259.093 51.72C258.468 51.468 257.922 51.118 257.455 50.67C256.998 50.222 256.639 49.6947 256.377 49.088C256.125 48.4813 255.999 47.8187 255.999 47.1C255.999 46.3813 256.125 45.7187 256.377 45.112C256.639 44.5053 257.003 43.978 257.469 43.53C257.936 43.082 258.482 42.7367 259.107 42.494C259.742 42.242 260.433 42.116 261.179 42.116C261.926 42.116 262.607 42.2327 263.223 42.466C263.849 42.6993 264.381 43.054 264.819 43.53L264.175 44.188C263.765 43.7773 263.312 43.4833 262.817 43.306C262.323 43.1287 261.791 43.04 261.221 43.04C260.615 43.04 260.055 43.1427 259.541 43.348C259.037 43.544 258.594 43.8287 258.211 44.202C257.838 44.566 257.544 44.9953 257.329 45.49C257.124 45.9753 257.021 46.512 257.021 47.1C257.021 47.6787 257.124 48.2153 257.329 48.71C257.544 49.2047 257.838 49.6387 258.211 50.012C258.594 50.376 259.037 50.6607 259.541 50.866C260.055 51.062 260.61 51.16 261.207 51.16C261.767 51.16 262.295 51.076 262.789 50.908C263.293 50.74 263.755 50.4553 264.175 50.054L264.763 50.838C264.297 51.2487 263.751 51.5613 263.125 51.776C262.5 51.9813 261.847 52.084 261.165 52.084ZM263.769 50.712V47.1H264.763V50.838L263.769 50.712ZM267.542 54.786C267.196 54.786 266.865 54.73 266.548 54.618C266.24 54.506 265.974 54.338 265.75 54.114L266.212 53.372C266.398 53.5493 266.599 53.6847 266.814 53.778C267.038 53.8807 267.285 53.932 267.556 53.932C267.882 53.932 268.162 53.8387 268.396 53.652C268.638 53.4747 268.867 53.1573 269.082 52.7L269.558 51.622L269.67 51.468L272.694 44.65H273.674L269.992 52.882C269.786 53.358 269.558 53.736 269.306 54.016C269.063 54.296 268.797 54.492 268.508 54.604C268.218 54.7253 267.896 54.786 267.542 54.786ZM269.502 52.21L266.114 44.65H267.15L270.146 51.398L269.502 52.21ZM278.826 44.58C279.423 44.58 279.946 44.6967 280.394 44.93C280.851 45.154 281.206 45.4993 281.458 45.966C281.719 46.4327 281.85 47.0207 281.85 47.73V52H280.856V47.828C280.856 47.0533 280.66 46.47 280.268 46.078C279.885 45.6767 279.344 45.476 278.644 45.476C278.121 45.476 277.664 45.5833 277.272 45.798C276.889 46.0033 276.59 46.3067 276.376 46.708C276.17 47.1 276.068 47.576 276.068 48.136V52H275.074V44.65H276.026V46.666L275.872 46.288C276.105 45.756 276.478 45.3407 276.992 45.042C277.505 44.734 278.116 44.58 278.826 44.58ZM289.14 52V50.376L289.098 50.11V47.394C289.098 46.7687 288.921 46.288 288.566 45.952C288.221 45.616 287.703 45.448 287.012 45.448C286.536 45.448 286.084 45.5273 285.654 45.686C285.225 45.8447 284.861 46.0547 284.562 46.316L284.114 45.574C284.488 45.2567 284.936 45.014 285.458 44.846C285.981 44.6687 286.532 44.58 287.11 44.58C288.062 44.58 288.795 44.818 289.308 45.294C289.831 45.7607 290.092 46.4747 290.092 47.436V52H289.14ZM286.606 52.07C286.056 52.07 285.575 51.9813 285.164 51.804C284.763 51.6173 284.455 51.3653 284.24 51.048C284.026 50.7213 283.918 50.348 283.918 49.928C283.918 49.5453 284.007 49.2 284.184 48.892C284.371 48.5747 284.67 48.3227 285.08 48.136C285.5 47.94 286.06 47.842 286.76 47.842H289.294V48.584H286.788C286.079 48.584 285.584 48.71 285.304 48.962C285.034 49.214 284.898 49.5267 284.898 49.9C284.898 50.32 285.062 50.656 285.388 50.908C285.715 51.16 286.172 51.286 286.76 51.286C287.32 51.286 287.801 51.16 288.202 50.908C288.613 50.6467 288.912 50.2733 289.098 49.788L289.322 50.474C289.136 50.9593 288.809 51.3467 288.342 51.636C287.885 51.9253 287.306 52.07 286.606 52.07ZM295.914 52.07C295.149 52.07 294.477 51.9113 293.898 51.594C293.32 51.2673 292.867 50.824 292.54 50.264C292.214 49.6947 292.05 49.046 292.05 48.318C292.05 47.59 292.204 46.946 292.512 46.386C292.83 45.826 293.259 45.3873 293.8 45.07C294.351 44.7433 294.967 44.58 295.648 44.58C296.339 44.58 296.95 44.7387 297.482 45.056C298.024 45.364 298.448 45.8027 298.756 46.372C299.064 46.932 299.218 47.5807 299.218 48.318C299.218 48.3647 299.214 48.416 299.204 48.472C299.204 48.5187 299.204 48.57 299.204 48.626H292.806V47.884H298.672L298.28 48.178C298.28 47.646 298.164 47.1747 297.93 46.764C297.706 46.344 297.398 46.0173 297.006 45.784C296.614 45.5507 296.162 45.434 295.648 45.434C295.144 45.434 294.692 45.5507 294.29 45.784C293.889 46.0173 293.576 46.344 293.352 46.764C293.128 47.184 293.016 47.6647 293.016 48.206V48.36C293.016 48.92 293.138 49.4147 293.38 49.844C293.632 50.264 293.978 50.5953 294.416 50.838C294.864 51.0713 295.373 51.188 295.942 51.188C296.39 51.188 296.806 51.1087 297.188 50.95C297.58 50.7913 297.916 50.5487 298.196 50.222L298.756 50.866C298.43 51.258 298.019 51.5567 297.524 51.762C297.039 51.9673 296.502 52.07 295.914 52.07ZM304.293 52.07C303.565 52.07 302.912 51.9113 302.333 51.594C301.764 51.2673 301.316 50.824 300.989 50.264C300.663 49.6947 300.499 49.046 300.499 48.318C300.499 47.5807 300.663 46.932 300.989 46.372C301.316 45.812 301.764 45.3733 302.333 45.056C302.912 44.7387 303.565 44.58 304.293 44.58C304.919 44.58 305.483 44.7013 305.987 44.944C306.491 45.1867 306.888 45.5507 307.177 46.036L306.435 46.54C306.183 46.1667 305.871 45.8913 305.497 45.714C305.124 45.5367 304.718 45.448 304.279 45.448C303.757 45.448 303.285 45.5693 302.865 45.812C302.445 46.0453 302.114 46.3767 301.871 46.806C301.629 47.2353 301.507 47.7393 301.507 48.318C301.507 48.8967 301.629 49.4007 301.871 49.83C302.114 50.2593 302.445 50.5953 302.865 50.838C303.285 51.0713 303.757 51.188 304.279 51.188C304.718 51.188 305.124 51.0993 305.497 50.922C305.871 50.7447 306.183 50.474 306.435 50.11L307.177 50.614C306.888 51.09 306.491 51.454 305.987 51.706C305.483 51.9487 304.919 52.07 304.293 52.07ZM312.003 52.07C311.294 52.07 310.654 51.9113 310.085 51.594C309.525 51.2673 309.082 50.824 308.755 50.264C308.428 49.6947 308.265 49.046 308.265 48.318C308.265 47.5807 308.428 46.932 308.755 46.372C309.082 45.812 309.525 45.3733 310.085 45.056C310.645 44.7387 311.284 44.58 312.003 44.58C312.731 44.58 313.375 44.7387 313.935 45.056C314.504 45.3733 314.948 45.812 315.265 46.372C315.592 46.932 315.755 47.5807 315.755 48.318C315.755 49.046 315.592 49.6947 315.265 50.264C314.948 50.824 314.504 51.2673 313.935 51.594C313.366 51.9113 312.722 52.07 312.003 52.07ZM312.003 51.188C312.535 51.188 313.006 51.0713 313.417 50.838C313.828 50.5953 314.15 50.2593 314.383 49.83C314.626 49.3913 314.747 48.8873 314.747 48.318C314.747 47.7393 314.626 47.2353 314.383 46.806C314.15 46.3767 313.828 46.0453 313.417 45.812C313.006 45.5693 312.54 45.448 312.017 45.448C311.494 45.448 311.028 45.5693 310.617 45.812C310.206 46.0453 309.88 46.3767 309.637 46.806C309.394 47.2353 309.273 47.7393 309.273 48.318C309.273 48.8873 309.394 49.3913 309.637 49.83C309.88 50.2593 310.206 50.5953 310.617 50.838C311.028 51.0713 311.49 51.188 312.003 51.188ZM317.784 52V41.612H318.778V52H317.784ZM324.54 52.07C323.831 52.07 323.192 51.9113 322.622 51.594C322.062 51.2673 321.619 50.824 321.292 50.264C320.966 49.6947 320.802 49.046 320.802 48.318C320.802 47.5807 320.966 46.932 321.292 46.372C321.619 45.812 322.062 45.3733 322.622 45.056C323.182 44.7387 323.822 44.58 324.54 44.58C325.268 44.58 325.912 44.7387 326.472 45.056C327.042 45.3733 327.485 45.812 327.802 46.372C328.129 46.932 328.292 47.5807 328.292 48.318C328.292 49.046 328.129 49.6947 327.802 50.264C327.485 50.824 327.042 51.2673 326.472 51.594C325.903 51.9113 325.259 52.07 324.54 52.07ZM324.54 51.188C325.072 51.188 325.544 51.0713 325.954 50.838C326.365 50.5953 326.687 50.2593 326.92 49.83C327.163 49.3913 327.284 48.8873 327.284 48.318C327.284 47.7393 327.163 47.2353 326.92 46.806C326.687 46.3767 326.365 46.0453 325.954 45.812C325.544 45.5693 325.077 45.448 324.554 45.448C324.032 45.448 323.565 45.5693 323.154 45.812C322.744 46.0453 322.417 46.3767 322.174 46.806C321.932 47.2353 321.81 47.7393 321.81 48.318C321.81 48.8873 321.932 49.3913 322.174 49.83C322.417 50.2593 322.744 50.5953 323.154 50.838C323.565 51.0713 324.027 51.188 324.54 51.188ZM333.458 54.786C332.786 54.786 332.142 54.688 331.526 54.492C330.91 54.296 330.41 54.016 330.028 53.652L330.532 52.896C330.877 53.204 331.302 53.4467 331.806 53.624C332.319 53.8107 332.86 53.904 333.43 53.904C334.363 53.904 335.049 53.6847 335.488 53.246C335.926 52.8167 336.146 52.1447 336.146 51.23V49.396L336.286 48.136L336.188 46.876V44.65H337.14V51.104C337.14 52.3733 336.827 53.302 336.202 53.89C335.586 54.4873 334.671 54.786 333.458 54.786ZM333.276 51.72C332.576 51.72 331.946 51.5707 331.386 51.272C330.826 50.964 330.382 50.5393 330.056 49.998C329.738 49.4567 329.58 48.836 329.58 48.136C329.58 47.436 329.738 46.82 330.056 46.288C330.382 45.7467 330.826 45.3267 331.386 45.028C331.946 44.7293 332.576 44.58 333.276 44.58C333.929 44.58 334.517 44.7153 335.04 44.986C335.562 45.2567 335.978 45.658 336.286 46.19C336.594 46.722 336.748 47.3707 336.748 48.136C336.748 48.9013 336.594 49.55 336.286 50.082C335.978 50.614 335.562 51.02 335.04 51.3C334.517 51.58 333.929 51.72 333.276 51.72ZM333.374 50.838C333.915 50.838 334.396 50.726 334.816 50.502C335.236 50.2687 335.567 49.9513 335.81 49.55C336.052 49.1393 336.174 48.668 336.174 48.136C336.174 47.604 336.052 47.1373 335.81 46.736C335.567 46.3347 335.236 46.022 334.816 45.798C334.396 45.5647 333.915 45.448 333.374 45.448C332.842 45.448 332.361 45.5647 331.932 45.798C331.512 46.022 331.18 46.3347 330.938 46.736C330.704 47.1373 330.588 47.604 330.588 48.136C330.588 48.668 330.704 49.1393 330.938 49.55C331.18 49.9513 331.512 50.2687 331.932 50.502C332.361 50.726 332.842 50.838 333.374 50.838ZM339.906 52V44.65H340.9V52H339.906ZM340.41 43.026C340.204 43.026 340.032 42.956 339.892 42.816C339.752 42.676 339.682 42.508 339.682 42.312C339.682 42.116 339.752 41.9527 339.892 41.822C340.032 41.682 340.204 41.612 340.41 41.612C340.615 41.612 340.788 41.6773 340.928 41.808C341.068 41.9387 341.138 42.102 341.138 42.298C341.138 42.5033 341.068 42.676 340.928 42.816C340.797 42.956 340.624 43.026 340.41 43.026ZM345.639 52.07C345.033 52.07 344.459 51.986 343.917 51.818C343.376 51.6407 342.951 51.4213 342.643 51.16L343.091 50.376C343.39 50.6 343.773 50.796 344.239 50.964C344.706 51.1227 345.196 51.202 345.709 51.202C346.409 51.202 346.913 51.0947 347.221 50.88C347.529 50.656 347.683 50.362 347.683 49.998C347.683 49.7273 347.595 49.5173 347.417 49.368C347.249 49.2093 347.025 49.0927 346.745 49.018C346.465 48.934 346.153 48.864 345.807 48.808C345.462 48.752 345.117 48.6867 344.771 48.612C344.435 48.5373 344.127 48.43 343.847 48.29C343.567 48.1407 343.339 47.94 343.161 47.688C342.993 47.436 342.909 47.1 342.909 46.68C342.909 46.2787 343.021 45.9193 343.245 45.602C343.469 45.2847 343.796 45.0373 344.225 44.86C344.664 44.6733 345.196 44.58 345.821 44.58C346.297 44.58 346.773 44.6453 347.249 44.776C347.725 44.8973 348.117 45.0607 348.425 45.266L347.991 46.064C347.665 45.84 347.315 45.6813 346.941 45.588C346.568 45.4853 346.195 45.434 345.821 45.434C345.159 45.434 344.669 45.5507 344.351 45.784C344.043 46.008 343.889 46.2973 343.889 46.652C343.889 46.932 343.973 47.1513 344.141 47.31C344.319 47.4687 344.547 47.5947 344.827 47.688C345.117 47.772 345.429 47.842 345.765 47.898C346.111 47.954 346.451 48.024 346.787 48.108C347.133 48.1827 347.445 48.29 347.725 48.43C348.015 48.5607 348.243 48.752 348.411 49.004C348.589 49.2467 348.677 49.5687 348.677 49.97C348.677 50.3993 348.556 50.7727 348.313 51.09C348.08 51.398 347.735 51.6407 347.277 51.818C346.829 51.986 346.283 52.07 345.639 52.07ZM352.825 52.07C352.135 52.07 351.603 51.8833 351.229 51.51C350.856 51.1367 350.669 50.6093 350.669 49.928V43.026H351.663V49.872C351.663 50.3013 351.771 50.6327 351.985 50.866C352.209 51.0993 352.527 51.216 352.937 51.216C353.376 51.216 353.74 51.09 354.029 50.838L354.379 51.552C354.183 51.7293 353.945 51.86 353.665 51.944C353.395 52.028 353.115 52.07 352.825 52.07ZM349.353 45.476V44.65H353.903V45.476H349.353Z" fill="#A3A3A3"/>
<path d="M10.9091 29H4.00852V8.63636H11.0483C13.0701 8.63636 14.8068 9.04403 16.2585 9.85938C17.7169 10.6681 18.8371 11.8314 19.6193 13.3494C20.4015 14.8674 20.7926 16.6837 20.7926 18.7983C20.7926 20.9195 20.3982 22.7424 19.6094 24.267C18.8272 25.7917 17.697 26.9616 16.2188 27.777C14.7472 28.5923 12.9773 29 10.9091 29ZM7.69744 25.8082H10.7301C12.1487 25.8082 13.3319 25.5497 14.2798 25.0327C15.2277 24.509 15.9403 23.7301 16.4176 22.696C16.8949 21.6553 17.1335 20.3561 17.1335 18.7983C17.1335 17.2405 16.8949 15.9479 16.4176 14.9205C15.9403 13.8864 15.2344 13.1141 14.2997 12.6037C13.3717 12.0866 12.2183 11.8281 10.8395 11.8281H7.69744V25.8082ZM24.1385 29V13.7273H27.6286V16.2727H27.7876C28.0661 15.3911 28.5433 14.7116 29.2195 14.2344C29.9022 13.7505 30.6811 13.5085 31.5561 13.5085C31.755 13.5085 31.977 13.5185 32.2223 13.5384C32.4742 13.5516 32.683 13.5748 32.8487 13.608V16.919C32.6963 16.866 32.4543 16.8196 32.1229 16.7798C31.7981 16.7334 31.4832 16.7102 31.1783 16.7102C30.522 16.7102 29.9321 16.8527 29.4084 17.1378C28.8913 17.4162 28.4837 17.804 28.1854 18.3011C27.8871 18.7983 27.7379 19.3717 27.7379 20.0213V29H24.1385ZM35.7074 29.2188C35.1042 29.2188 34.5871 29.0066 34.1562 28.5824C33.7254 28.1581 33.5133 27.6411 33.5199 27.0312C33.5133 26.4347 33.7254 25.9242 34.1562 25.5C34.5871 25.0758 35.1042 24.8636 35.7074 24.8636C36.2907 24.8636 36.7978 25.0758 37.2287 25.5C37.6662 25.9242 37.8883 26.4347 37.8949 27.0312C37.8883 27.4356 37.7822 27.8035 37.5767 28.1349C37.3778 28.4664 37.1127 28.7315 36.7812 28.9304C36.4564 29.1226 36.0985 29.2188 35.7074 29.2188ZM61.7287 15.1392C61.563 14.6023 61.3343 14.1217 61.0426 13.6974C60.7576 13.2666 60.4129 12.8987 60.0085 12.5938C59.6108 12.2888 59.1534 12.0601 58.6364 11.9077C58.1193 11.7486 57.5559 11.669 56.946 11.669C55.8523 11.669 54.8778 11.9441 54.0227 12.4943C53.1676 13.0445 52.4948 13.8532 52.0043 14.9205C51.5204 15.9811 51.2784 17.2737 51.2784 18.7983C51.2784 20.3362 51.5204 21.6387 52.0043 22.706C52.4882 23.7732 53.161 24.5852 54.0227 25.142C54.8845 25.6922 55.8854 25.9673 57.0256 25.9673C58.0597 25.9673 58.9545 25.7685 59.7102 25.3707C60.4725 24.973 61.0592 24.4096 61.4702 23.6804C61.8812 22.9446 62.0866 22.0829 62.0866 21.0952L62.9219 21.2244H57.3935V18.3409H65.6562V20.7869C65.6562 22.5303 65.285 24.0384 64.5426 25.3111C63.8002 26.5838 62.7794 27.5649 61.4801 28.2543C60.1809 28.937 58.6894 29.2784 57.0057 29.2784C55.1297 29.2784 53.4825 28.8575 52.0639 28.0156C50.652 27.1671 49.5483 25.964 48.7528 24.4062C47.964 22.8419 47.5696 20.9858 47.5696 18.8381C47.5696 17.1941 47.8016 15.7259 48.2656 14.4332C48.7363 13.1406 49.3925 12.0436 50.2344 11.142C51.0762 10.2339 52.0639 9.54451 53.1974 9.07386C54.331 8.59659 55.5639 8.35795 56.8963 8.35795C58.0232 8.35795 59.0739 8.52367 60.0483 8.85511C61.0227 9.17992 61.8878 9.64394 62.6435 10.2472C63.4058 10.8504 64.0322 11.5663 64.5227 12.3949C65.0133 13.2235 65.3348 14.1383 65.4872 15.1392H61.7287ZM71.2816 29.2188C70.6784 29.2188 70.1613 29.0066 69.7305 28.5824C69.2996 28.1581 69.0875 27.6411 69.0941 27.0312C69.0875 26.4347 69.2996 25.9242 69.7305 25.5C70.1613 25.0758 70.6784 24.8636 71.2816 24.8636C71.8649 24.8636 72.372 25.0758 72.8029 25.5C73.2404 25.9242 73.4625 26.4347 73.4691 27.0312C73.4625 27.4356 73.3564 27.8035 73.1509 28.1349C72.9521 28.4664 72.6869 28.7315 72.3555 28.9304C72.0307 29.1226 71.6727 29.2188 71.2816 29.2188ZM100.395 8.63636V29H97.114L87.5188 15.1293H87.3498V29H83.6609V8.63636H86.962L96.5472 22.517H96.7262V8.63636H100.395ZM104.256 29V13.7273H107.855V29H104.256ZM106.065 11.5597C105.495 11.5597 105.005 11.3707 104.594 10.9929C104.183 10.6084 103.977 10.1477 103.977 9.61079C103.977 9.06723 104.183 8.60653 104.594 8.22869C105.005 7.84422 105.495 7.65199 106.065 7.65199C106.642 7.65199 107.133 7.84422 107.537 8.22869C107.948 8.60653 108.153 9.06723 108.153 9.61079C108.153 10.1477 107.948 10.6084 107.537 10.9929C107.133 11.3707 106.642 11.5597 106.065 11.5597ZM114.838 24.2074L114.828 19.8622H115.404L120.893 13.7273H125.099L118.348 21.2443H117.602L114.838 24.2074ZM111.556 29V8.63636H115.156V29H111.556ZM121.142 29L116.17 22.0497L118.596 19.5142L125.447 29H121.142ZM127.498 29V13.7273H131.097V29H127.498ZM129.308 11.5597C128.737 11.5597 128.247 11.3707 127.836 10.9929C127.425 10.6084 127.219 10.1477 127.219 9.61079C127.219 9.06723 127.425 8.60653 127.836 8.22869C128.247 7.84422 128.737 7.65199 129.308 7.65199C129.884 7.65199 130.375 7.84422 130.779 8.22869C131.19 8.60653 131.396 9.06723 131.396 9.61079C131.396 10.1477 131.19 10.6084 130.779 10.9929C130.375 11.3707 129.884 11.5597 129.308 11.5597ZM138.398 8.63636V29H134.799V8.63636H138.398ZM146.494 29.3082C145.527 29.3082 144.655 29.1359 143.879 28.7912C143.11 28.4399 142.5 27.9228 142.05 27.2401C141.606 26.5573 141.384 25.7154 141.384 24.7145C141.384 23.8527 141.543 23.1402 141.861 22.5767C142.179 22.0133 142.613 21.5625 143.163 21.2244C143.714 20.8864 144.333 20.6312 145.023 20.4588C145.719 20.2798 146.438 20.1506 147.18 20.071C148.075 19.9782 148.801 19.8954 149.358 19.8224C149.915 19.7429 150.319 19.6236 150.571 19.4645C150.83 19.2988 150.959 19.0436 150.959 18.6989V18.6392C150.959 17.8902 150.737 17.3101 150.293 16.8991C149.848 16.4882 149.209 16.2827 148.374 16.2827C147.492 16.2827 146.793 16.4749 146.276 16.8594C145.765 17.2438 145.42 17.6979 145.241 18.2216L141.881 17.7443C142.146 16.8163 142.583 16.0407 143.193 15.4176C143.803 14.7879 144.549 14.3172 145.43 14.0057C146.312 13.6875 147.286 13.5284 148.354 13.5284C149.089 13.5284 149.822 13.6146 150.551 13.7869C151.28 13.9593 151.946 14.2443 152.55 14.642C153.153 15.0331 153.637 15.5668 154.001 16.2429C154.373 16.919 154.558 17.7642 154.558 18.7784V29H151.098V26.902H150.979C150.76 27.3262 150.452 27.724 150.054 28.0952C149.663 28.4598 149.169 28.7547 148.572 28.9801C147.982 29.1989 147.29 29.3082 146.494 29.3082ZM147.429 26.6634C148.152 26.6634 148.778 26.5208 149.308 26.2358C149.839 25.9441 150.246 25.5597 150.531 25.0824C150.823 24.6051 150.969 24.0848 150.969 23.5213V21.7216C150.856 21.8144 150.664 21.9006 150.392 21.9801C150.127 22.0597 149.829 22.1293 149.497 22.1889C149.166 22.2486 148.838 22.3016 148.513 22.348C148.188 22.3944 147.906 22.4342 147.668 22.4673C147.131 22.5402 146.65 22.6596 146.226 22.8253C145.802 22.991 145.467 23.223 145.222 23.5213C144.976 23.813 144.854 24.1908 144.854 24.6548C144.854 25.3177 145.096 25.8182 145.58 26.1562C146.063 26.4943 146.68 26.6634 147.429 26.6634ZM165.282 29V8.63636H172.918C174.483 8.63636 175.795 8.90814 176.856 9.4517C177.923 9.99526 178.728 10.7576 179.272 11.7386C179.822 12.7131 180.097 13.8499 180.097 15.1491C180.097 16.455 179.819 17.5885 179.262 18.5497C178.712 19.5043 177.9 20.2434 176.826 20.767C175.752 21.2841 174.433 21.5426 172.869 21.5426H167.43V18.4801H172.371C173.286 18.4801 174.035 18.3542 174.619 18.1023C175.202 17.8437 175.633 17.4692 175.911 16.9787C176.196 16.4815 176.339 15.8717 176.339 15.1491C176.339 14.4266 176.196 13.8101 175.911 13.2997C175.626 12.7827 175.192 12.3916 174.609 12.1264C174.025 11.8546 173.273 11.7188 172.352 11.7188H168.971V29H165.282ZM175.802 19.7727L180.843 29H176.727L171.775 19.7727H175.802ZM189.876 29.2983C188.345 29.2983 187.023 28.9801 185.909 28.3438C184.802 27.7008 183.95 26.7926 183.354 25.6193C182.757 24.4394 182.459 23.0507 182.459 21.4531C182.459 19.8821 182.757 18.5033 183.354 17.3168C183.957 16.1236 184.799 15.1955 185.879 14.5327C186.96 13.8632 188.229 13.5284 189.688 13.5284C190.629 13.5284 191.517 13.6809 192.352 13.9858C193.194 14.2841 193.937 14.7481 194.58 15.3778C195.229 16.0076 195.74 16.8097 196.111 17.7841C196.482 18.7519 196.668 19.9053 196.668 21.2443V22.348H184.149V19.9219H193.217C193.211 19.2325 193.062 18.6193 192.77 18.0824C192.478 17.5388 192.071 17.1113 191.547 16.7997C191.03 16.4882 190.427 16.3324 189.737 16.3324C189.001 16.3324 188.355 16.5114 187.798 16.8693C187.241 17.2206 186.807 17.6847 186.496 18.2614C186.191 18.8314 186.035 19.4579 186.028 20.1406V22.2585C186.028 23.1468 186.191 23.9091 186.516 24.5455C186.84 25.1752 187.295 25.6591 187.878 25.9972C188.461 26.3286 189.144 26.4943 189.926 26.4943C190.45 26.4943 190.924 26.4214 191.348 26.2756C191.772 26.1231 192.14 25.901 192.452 25.6094C192.763 25.3177 192.999 24.9564 193.158 24.5256L196.518 24.9034C196.306 25.7917 195.902 26.5672 195.305 27.2301C194.715 27.8864 193.96 28.3968 193.038 28.7614C192.117 29.1193 191.063 29.2983 189.876 29.2983ZM205.38 29.2685C204.181 29.2685 203.107 28.9602 202.159 28.3438C201.211 27.7273 200.462 26.8324 199.912 25.6591C199.361 24.4858 199.086 23.0606 199.086 21.3835C199.086 19.6866 199.365 18.2547 199.922 17.0881C200.485 15.9148 201.244 15.0298 202.199 14.4332C203.153 13.83 204.217 13.5284 205.39 13.5284C206.285 13.5284 207.021 13.6809 207.598 13.9858C208.174 14.2841 208.632 14.6454 208.97 15.0696C209.308 15.4872 209.57 15.8816 209.755 16.2528H209.904V8.63636H213.514V29H209.974V26.5938H209.755C209.57 26.965 209.301 27.3594 208.95 27.777C208.599 28.188 208.135 28.5393 207.558 28.831C206.981 29.1226 206.255 29.2685 205.38 29.2685ZM206.385 26.3153C207.147 26.3153 207.797 26.1098 208.333 25.6989C208.87 25.2812 209.278 24.7012 209.556 23.9588C209.835 23.2164 209.974 22.3513 209.974 21.3636C209.974 20.3759 209.835 19.5175 209.556 18.7884C209.285 18.0592 208.88 17.4924 208.343 17.0881C207.813 16.6837 207.16 16.4815 206.385 16.4815C205.583 16.4815 204.913 16.6903 204.376 17.108C203.839 17.5256 203.435 18.1023 203.163 18.8381C202.891 19.5739 202.755 20.4157 202.755 21.3636C202.755 22.3182 202.891 23.17 203.163 23.919C203.441 24.6615 203.849 25.2481 204.386 25.679C204.93 26.1032 205.596 26.3153 206.385 26.3153ZM223.017 29.2685C221.817 29.2685 220.743 28.9602 219.795 28.3438C218.848 27.7273 218.098 26.8324 217.548 25.6591C216.998 24.4858 216.723 23.0606 216.723 21.3835C216.723 19.6866 217.001 18.2547 217.558 17.0881C218.122 15.9148 218.881 15.0298 219.835 14.4332C220.79 13.83 221.854 13.5284 223.027 13.5284C223.922 13.5284 224.658 13.6809 225.234 13.9858C225.811 14.2841 226.268 14.6454 226.607 15.0696C226.945 15.4872 227.206 15.8816 227.392 16.2528H227.541V8.63636H231.151V29H227.611V26.5938H227.392C227.206 26.965 226.938 27.3594 226.587 27.777C226.235 28.188 225.771 28.5393 225.195 28.831C224.618 29.1226 223.892 29.2685 223.017 29.2685ZM224.021 26.3153C224.784 26.3153 225.433 26.1098 225.97 25.6989C226.507 25.2812 226.915 24.7012 227.193 23.9588C227.472 23.2164 227.611 22.3513 227.611 21.3636C227.611 20.3759 227.472 19.5175 227.193 18.7884C226.921 18.0592 226.517 17.4924 225.98 17.0881C225.45 16.6837 224.797 16.4815 224.021 16.4815C223.219 16.4815 222.55 16.6903 222.013 17.108C221.476 17.5256 221.071 18.1023 220.8 18.8381C220.528 19.5739 220.392 20.4157 220.392 21.3636C220.392 22.3182 220.528 23.17 220.8 23.919C221.078 24.6615 221.486 25.2481 222.023 25.679C222.566 26.1032 223.232 26.3153 224.021 26.3153ZM237.223 34.7273C236.733 34.7273 236.279 34.6875 235.861 34.608C235.45 34.535 235.122 34.4489 234.877 34.3494L235.712 31.5455C236.236 31.6979 236.703 31.7708 237.114 31.7642C237.525 31.7576 237.886 31.6283 238.198 31.3764C238.516 31.1312 238.784 30.7202 239.003 30.1435L239.311 29.3182L233.773 13.7273H237.591L241.111 25.2614H241.27L244.8 13.7273H248.628L242.513 30.8494C242.228 31.6581 241.85 32.3509 241.38 32.9276C240.909 33.5109 240.332 33.955 239.65 34.2599C238.973 34.5715 238.165 34.7273 237.223 34.7273Z" fill="white"/>
</svg>
