<svg width="390" height="58" viewBox="0 0 390 58" fill="none" xmlns="http://www.w3.org/2000/svg">
<path d="M11.4261 45H10.1932C10.1203 44.6454 9.99266 44.3338 9.81037 44.0653C9.63139 43.7969 9.41264 43.5715 9.15412 43.3892C8.89891 43.2036 8.61553 43.0644 8.30398 42.9716C7.99242 42.8788 7.66761 42.8324 7.32955 42.8324C6.71307 42.8324 6.15459 42.9882 5.65412 43.2997C5.15696 43.6113 4.76089 44.0703 4.46591 44.6768C4.17424 45.2834 4.02841 46.0275 4.02841 46.9091C4.02841 47.7907 4.17424 48.5348 4.46591 49.1413C4.76089 49.7479 5.15696 50.2069 5.65412 50.5185C6.15459 50.83 6.71307 50.9858 7.32955 50.9858C7.66761 50.9858 7.99242 50.9394 8.30398 50.8466C8.61553 50.7538 8.89891 50.6162 9.15412 50.4339C9.41264 50.2483 9.63139 50.0213 9.81037 49.7528C9.99266 49.4811 10.1203 49.1695 10.1932 48.8182H11.4261C11.3333 49.3385 11.1643 49.8042 10.919 50.2152C10.6738 50.6262 10.3688 50.9759 10.0043 51.2642C9.63968 51.5492 9.23035 51.7663 8.77628 51.9155C8.32552 52.0646 7.84328 52.1392 7.32955 52.1392C6.46117 52.1392 5.68892 51.9271 5.01278 51.5028C4.33665 51.0786 3.80469 50.4754 3.4169 49.6932C3.02912 48.911 2.83523 47.983 2.83523 46.9091C2.83523 45.8352 3.02912 44.9072 3.4169 44.125C3.80469 43.3428 4.33665 42.7396 5.01278 42.3153C5.68892 41.8911 6.46117 41.679 7.32955 41.679C7.84328 41.679 8.32552 41.7536 8.77628 41.9027C9.23035 42.0518 9.63968 42.2706 10.0043 42.5589C10.3688 42.844 10.6738 43.192 10.919 43.603C11.1643 44.0107 11.3333 44.4763 11.4261 45ZM16.3617 52.1591C15.6723 52.1591 15.0674 51.995 14.5471 51.6669C14.03 51.3388 13.6257 50.8797 13.334 50.2898C13.0456 49.6998 12.9015 49.0104 12.9015 48.2216C12.9015 47.4261 13.0456 46.7318 13.334 46.1385C13.6257 45.5452 14.03 45.0845 14.5471 44.7564C15.0674 44.4283 15.6723 44.2642 16.3617 44.2642C17.0511 44.2642 17.6543 44.4283 18.1713 44.7564C18.6917 45.0845 19.0961 45.5452 19.3844 46.1385C19.6761 46.7318 19.8219 47.4261 19.8219 48.2216C19.8219 49.0104 19.6761 49.6998 19.3844 50.2898C19.0961 50.8797 18.6917 51.3388 18.1713 51.6669C17.6543 51.995 17.0511 52.1591 16.3617 52.1591ZM16.3617 51.1051C16.8854 51.1051 17.3162 50.9709 17.6543 50.7024C17.9924 50.4339 18.2426 50.081 18.405 49.6435C18.5674 49.206 18.6486 48.732 18.6486 48.2216C18.6486 47.7112 18.5674 47.2356 18.405 46.7947C18.2426 46.3539 17.9924 45.9976 17.6543 45.7259C17.3162 45.4541 16.8854 45.3182 16.3617 45.3182C15.838 45.3182 15.4071 45.4541 15.0691 45.7259C14.731 45.9976 14.4808 46.3539 14.3184 46.7947C14.156 47.2356 14.0748 47.7112 14.0748 48.2216C14.0748 48.732 14.156 49.206 14.3184 49.6435C14.4808 50.081 14.731 50.4339 15.0691 50.7024C15.4071 50.9709 15.838 51.1051 16.3617 51.1051ZM22.7862 47.4062V52H21.6129V44.3636H22.7464V45.5568H22.8459C23.0249 45.169 23.2966 44.8575 23.6612 44.6222C24.0258 44.3835 24.4964 44.2642 25.0732 44.2642C25.5902 44.2642 26.0426 44.3703 26.4304 44.5824C26.8182 44.7912 27.1198 45.1094 27.3352 45.5369C27.5507 45.9612 27.6584 46.4981 27.6584 47.1477V52H26.4851V47.2273C26.4851 46.6274 26.3293 46.16 26.0178 45.8253C25.7062 45.4872 25.2786 45.3182 24.7351 45.3182C24.3606 45.3182 24.0258 45.3994 23.7308 45.5618C23.4392 45.7242 23.2088 45.9612 23.0398 46.2727C22.8707 46.5843 22.7862 46.9621 22.7862 47.4062ZM35.2115 46.0739L34.1575 46.3722C34.0912 46.1965 33.9934 46.0258 33.8642 45.8601C33.7382 45.6911 33.5659 45.5518 33.3471 45.4425C33.1284 45.3331 32.8483 45.2784 32.5069 45.2784C32.0396 45.2784 31.6502 45.3861 31.3386 45.6016C31.0304 45.8137 30.8762 46.0838 30.8762 46.4119C30.8762 46.7036 30.9823 46.9339 31.1944 47.103C31.4065 47.272 31.738 47.4129 32.1887 47.5256L33.3223 47.804C34.005 47.9697 34.5138 48.2232 34.8485 48.5646C35.1833 48.9027 35.3507 49.3385 35.3507 49.8722C35.3507 50.3097 35.2247 50.7008 34.9728 51.0455C34.7243 51.3902 34.3762 51.6619 33.9288 51.8608C33.4814 52.0597 32.961 52.1591 32.3677 52.1591C31.5888 52.1591 30.9442 51.9901 30.4338 51.652C29.9234 51.3139 29.6002 50.8201 29.4643 50.1705L30.5779 49.892C30.684 50.303 30.8845 50.6113 31.1795 50.8168C31.4778 51.0223 31.8672 51.125 32.3478 51.125C32.8947 51.125 33.3289 51.009 33.6504 50.777C33.9752 50.5417 34.1376 50.2599 34.1376 49.9318C34.1376 49.6667 34.0448 49.4446 33.8592 49.2656C33.6736 49.0833 33.3886 48.9474 33.0041 48.858L31.7314 48.5597C31.032 48.3939 30.5183 48.1371 30.1902 47.7891C29.8654 47.4377 29.7029 46.9986 29.7029 46.4716C29.7029 46.0407 29.8239 45.6596 30.0659 45.3281C30.3111 44.9967 30.6442 44.7365 31.0652 44.5476C31.4894 44.3587 31.97 44.2642 32.5069 44.2642C33.2626 44.2642 33.8559 44.4299 34.2868 44.7614C34.7209 45.0928 35.0292 45.5303 35.2115 46.0739ZM41.9293 48.8778V44.3636H43.1026V52H41.9293V50.7074H41.8498C41.6708 51.0952 41.3924 51.425 41.0146 51.6967C40.6367 51.9652 40.1594 52.0994 39.5827 52.0994C39.1055 52.0994 38.6812 51.995 38.31 51.7862C37.9388 51.5741 37.6471 51.2559 37.435 50.8317C37.2229 50.4041 37.1168 49.8655 37.1168 49.2159V44.3636H38.2901V49.1364C38.2901 49.6932 38.4459 50.1373 38.7575 50.4688C39.0723 50.8002 39.4734 50.9659 39.9606 50.9659C40.2522 50.9659 40.5489 50.8913 40.8505 50.7422C41.1554 50.593 41.4106 50.3643 41.6161 50.0561C41.8249 49.7479 41.9293 49.3551 41.9293 48.8778ZM46.4249 41.8182V52H45.2516V41.8182H46.4249ZM51.8949 44.3636V45.358H47.9375V44.3636H51.8949ZM49.0909 42.5341H50.2642V49.8125C50.2642 50.1439 50.3123 50.3925 50.4084 50.5582C50.5078 50.7206 50.6338 50.83 50.7862 50.8864C50.942 50.9394 51.1061 50.9659 51.2784 50.9659C51.4077 50.9659 51.5137 50.9593 51.5966 50.946C51.6795 50.9295 51.7457 50.9162 51.7955 50.9062L52.0341 51.9602C51.9545 51.9901 51.8435 52.0199 51.701 52.0497C51.5585 52.0829 51.3778 52.0994 51.1591 52.0994C50.8277 52.0994 50.5028 52.0282 50.1847 51.8857C49.8698 51.7431 49.608 51.526 49.3991 51.2344C49.1937 50.9427 49.0909 50.5748 49.0909 50.1307V42.5341ZM55.907 52.179C55.4231 52.179 54.9839 52.0878 54.5895 51.9055C54.1951 51.7199 53.8819 51.4531 53.6499 51.1051C53.4179 50.7538 53.3018 50.3295 53.3018 49.8324C53.3018 49.3949 53.388 49.0402 53.5604 48.7685C53.7327 48.4934 53.9631 48.2779 54.2514 48.1222C54.5398 47.9664 54.858 47.8504 55.206 47.7741C55.5573 47.6946 55.9103 47.6316 56.2649 47.5852C56.7289 47.5256 57.1051 47.4808 57.3935 47.451C57.6851 47.4179 57.8973 47.3632 58.0298 47.2869C58.1657 47.2107 58.2337 47.0781 58.2337 46.8892V46.8494C58.2337 46.3589 58.0994 45.9777 57.831 45.706C57.5658 45.4342 57.1631 45.2983 56.6229 45.2983C56.0627 45.2983 55.6236 45.4209 55.3054 45.6662C54.9872 45.9115 54.7635 46.1733 54.6342 46.4517L53.5206 46.054C53.7195 45.59 53.9846 45.2287 54.3161 44.9702C54.6508 44.7083 55.0154 44.526 55.4098 44.4233C55.8075 44.3172 56.1986 44.2642 56.5831 44.2642C56.8284 44.2642 57.1101 44.294 57.4283 44.3537C57.7498 44.41 58.0597 44.5277 58.358 44.7067C58.6596 44.8857 58.9098 45.1558 59.1087 45.517C59.3075 45.8783 59.407 46.3622 59.407 46.9688V52H58.2337V50.9659H58.174C58.0945 51.1316 57.9619 51.3089 57.7763 51.4979C57.5907 51.6868 57.3438 51.8475 57.0355 51.9801C56.7273 52.1127 56.3511 52.179 55.907 52.179ZM56.0859 51.125C56.55 51.125 56.9411 51.0339 57.2592 50.8516C57.5807 50.6693 57.8227 50.4339 57.9851 50.1456C58.1508 49.8572 58.2337 49.554 58.2337 49.2358V48.1619C58.1839 48.2216 58.0746 48.2763 57.9055 48.326C57.7398 48.3724 57.5476 48.4138 57.3288 48.4503C57.1134 48.4834 56.9029 48.5133 56.6974 48.5398C56.4953 48.563 56.3312 48.5829 56.2053 48.5994C55.9003 48.6392 55.6153 48.7038 55.3501 48.7933C55.0883 48.8795 54.8762 49.0104 54.7138 49.1861C54.5547 49.3584 54.4751 49.5937 54.4751 49.892C54.4751 50.2997 54.6259 50.608 54.9276 50.8168C55.2325 51.0223 55.6186 51.125 56.0859 51.125ZM62.7218 47.4062V52H61.5485V44.3636H62.682V45.5568H62.7814C62.9604 45.169 63.2322 44.8575 63.5968 44.6222C63.9614 44.3835 64.432 44.2642 65.0087 44.2642C65.5257 44.2642 65.9782 44.3703 66.3659 44.5824C66.7537 44.7912 67.0553 45.1094 67.2708 45.5369C67.4862 45.9612 67.5939 46.4981 67.5939 47.1477V52H66.4206V47.2273C66.4206 46.6274 66.2649 46.16 65.9533 45.8253C65.6417 45.4872 65.2142 45.3182 64.6706 45.3182C64.2961 45.3182 63.9614 45.3994 63.6664 45.5618C63.3747 45.7242 63.1444 45.9612 62.9753 46.2727C62.8063 46.5843 62.7218 46.9621 62.7218 47.4062ZM73.0589 44.3636V45.358H69.1016V44.3636H73.0589ZM70.255 42.5341H71.4283V49.8125C71.4283 50.1439 71.4763 50.3925 71.5724 50.5582C71.6719 50.7206 71.7978 50.83 71.9503 50.8864C72.1061 50.9394 72.2701 50.9659 72.4425 50.9659C72.5717 50.9659 72.6778 50.9593 72.7607 50.946C72.8435 50.9295 72.9098 50.9162 72.9595 50.9062L73.1982 51.9602C73.1186 51.9901 73.0076 52.0199 72.8651 52.0497C72.7225 52.0829 72.5419 52.0994 72.3232 52.0994C71.9917 52.0994 71.6669 52.0282 71.3487 51.8857C71.0339 51.7431 70.772 51.526 70.5632 51.2344C70.3577 50.9427 70.255 50.5748 70.255 50.1307V42.5341ZM87.5114 46.9091C87.5114 47.983 87.3175 48.911 86.9297 49.6932C86.5419 50.4754 86.0099 51.0786 85.3338 51.5028C84.6577 51.9271 83.8854 52.1392 83.017 52.1392C82.1487 52.1392 81.3764 51.9271 80.7003 51.5028C80.0241 51.0786 79.4922 50.4754 79.1044 49.6932C78.7166 48.911 78.5227 47.983 78.5227 46.9091C78.5227 45.8352 78.7166 44.9072 79.1044 44.125C79.4922 43.3428 80.0241 42.7396 80.7003 42.3153C81.3764 41.8911 82.1487 41.679 83.017 41.679C83.8854 41.679 84.6577 41.8911 85.3338 42.3153C86.0099 42.7396 86.5419 43.3428 86.9297 44.125C87.3175 44.9072 87.5114 45.8352 87.5114 46.9091ZM86.3182 46.9091C86.3182 46.0275 86.1707 45.2834 85.8757 44.6768C85.584 44.0703 85.188 43.6113 84.6875 43.2997C84.1903 42.9882 83.6335 42.8324 83.017 42.8324C82.4006 42.8324 81.8421 42.9882 81.3416 43.2997C80.8445 43.6113 80.4484 44.0703 80.1534 44.6768C79.8617 45.2834 79.7159 46.0275 79.7159 46.9091C79.7159 47.7907 79.8617 48.5348 80.1534 49.1413C80.4484 49.7479 80.8445 50.2069 81.3416 50.5185C81.8421 50.83 82.4006 50.9858 83.017 50.9858C83.6335 50.9858 84.1903 50.83 84.6875 50.5185C85.188 50.2069 85.584 49.7479 85.8757 49.1413C86.1707 48.5348 86.3182 47.7907 86.3182 46.9091ZM89.5845 52V41.8182H90.7578V45.5767H90.8572C90.9434 45.4441 91.0627 45.2751 91.2152 45.0696C91.371 44.8608 91.593 44.6752 91.8814 44.5128C92.1731 44.3471 92.5675 44.2642 93.0646 44.2642C93.7076 44.2642 94.2744 44.425 94.7649 44.7464C95.2554 45.0679 95.6383 45.5237 95.9134 46.1136C96.1884 46.7036 96.326 47.3996 96.326 48.2017C96.326 49.0104 96.1884 49.7114 95.9134 50.3047C95.6383 50.8946 95.2571 51.352 94.7699 51.6768C94.2827 51.9983 93.7209 52.1591 93.0845 52.1591C92.594 52.1591 92.2012 52.0779 91.9062 51.9155C91.6113 51.7498 91.3842 51.5625 91.2251 51.3537C91.0661 51.1416 90.9434 50.9659 90.8572 50.8267H90.718V52H89.5845ZM90.7379 48.1818C90.7379 48.7585 90.8224 49.2673 90.9915 49.7081C91.1605 50.1456 91.4074 50.4886 91.7322 50.7372C92.0571 50.9825 92.4548 51.1051 92.9254 51.1051C93.416 51.1051 93.8253 50.9759 94.1534 50.7173C94.4848 50.4555 94.7334 50.1042 94.8991 49.6634C95.0682 49.2192 95.1527 48.7254 95.1527 48.1818C95.1527 47.6449 95.0698 47.161 94.9041 46.7301C94.7417 46.2959 94.4948 45.9529 94.1634 45.701C93.8352 45.4458 93.4226 45.3182 92.9254 45.3182C92.4482 45.3182 92.0471 45.4392 91.7223 45.6811C91.3975 45.9197 91.1522 46.2545 90.9865 46.6854C90.8208 47.1129 90.7379 47.6117 90.7379 48.1818ZM103.53 46.0739L102.476 46.3722C102.41 46.1965 102.312 46.0258 102.183 45.8601C102.057 45.6911 101.884 45.5518 101.665 45.4425C101.447 45.3331 101.167 45.2784 100.825 45.2784C100.358 45.2784 99.9685 45.3861 99.657 45.6016C99.3487 45.8137 99.1946 46.0838 99.1946 46.4119C99.1946 46.7036 99.3007 46.9339 99.5128 47.103C99.7249 47.272 100.056 47.4129 100.507 47.5256L101.641 47.804C102.323 47.9697 102.832 48.2232 103.167 48.5646C103.502 48.9027 103.669 49.3385 103.669 49.8722C103.669 50.3097 103.543 50.7008 103.291 51.0455C103.043 51.3902 102.695 51.6619 102.247 51.8608C101.8 52.0597 101.279 52.1591 100.686 52.1591C99.9072 52.1591 99.2625 51.9901 98.7521 51.652C98.2417 51.3139 97.9186 50.8201 97.7827 50.1705L98.8963 49.892C99.0024 50.303 99.2029 50.6113 99.4979 50.8168C99.7962 51.0223 100.186 51.125 100.666 51.125C101.213 51.125 101.647 51.009 101.969 50.777C102.294 50.5417 102.456 50.2599 102.456 49.9318C102.456 49.6667 102.363 49.4446 102.178 49.2656C101.992 49.0833 101.707 48.9474 101.322 48.858L100.05 48.5597C99.3504 48.3939 98.8366 48.1371 98.5085 47.7891C98.1837 47.4377 98.0213 46.9986 98.0213 46.4716C98.0213 46.0407 98.1423 45.6596 98.3842 45.3281C98.6295 44.9967 98.9626 44.7365 99.3835 44.5476C99.8078 44.3587 100.288 44.2642 100.825 44.2642C101.581 44.2642 102.174 44.4299 102.605 44.7614C103.039 45.0928 103.348 45.5303 103.53 46.0739ZM108.756 44.3636V45.358H104.799V44.3636H108.756ZM105.952 42.5341H107.126V49.8125C107.126 50.1439 107.174 50.3925 107.27 50.5582C107.369 50.7206 107.495 50.83 107.648 50.8864C107.803 50.9394 107.967 50.9659 108.14 50.9659C108.269 50.9659 108.375 50.9593 108.458 50.946C108.541 50.9295 108.607 50.9162 108.657 50.9062L108.895 51.9602C108.816 51.9901 108.705 52.0199 108.562 52.0497C108.42 52.0829 108.239 52.0994 108.02 52.0994C107.689 52.0994 107.364 52.0282 107.046 51.8857C106.731 51.7431 106.469 51.526 106.26 51.2344C106.055 50.9427 105.952 50.5748 105.952 50.1307V42.5341ZM113.641 52.1591C112.905 52.1591 112.27 51.9967 111.737 51.6719C111.206 51.3438 110.797 50.8864 110.509 50.2997C110.224 49.7098 110.081 49.0237 110.081 48.2415C110.081 47.4593 110.224 46.7699 110.509 46.1733C110.797 45.5734 111.198 45.1061 111.712 44.7713C112.229 44.4332 112.832 44.2642 113.521 44.2642C113.919 44.2642 114.312 44.3305 114.7 44.4631C115.088 44.5956 115.441 44.8111 115.759 45.1094C116.077 45.4044 116.33 45.7955 116.519 46.2827C116.708 46.7699 116.803 47.3698 116.803 48.0824V48.5795H110.916V47.5653H115.61C115.61 47.1345 115.523 46.75 115.351 46.4119C115.182 46.0739 114.94 45.8071 114.625 45.6115C114.314 45.416 113.946 45.3182 113.521 45.3182C113.054 45.3182 112.65 45.4342 112.308 45.6662C111.97 45.8949 111.71 46.1932 111.528 46.5611C111.346 46.929 111.254 47.3234 111.254 47.7443V48.4205C111.254 48.9972 111.354 49.486 111.553 49.8871C111.755 50.2848 112.035 50.5881 112.393 50.7969C112.751 51.0024 113.167 51.1051 113.641 51.1051C113.949 51.1051 114.227 51.062 114.476 50.9759C114.728 50.8864 114.945 50.7538 115.127 50.5781C115.31 50.3991 115.45 50.1771 115.55 49.9119L116.683 50.2301C116.564 50.6146 116.364 50.9527 116.082 51.2443C115.8 51.5327 115.452 51.758 115.038 51.9205C114.624 52.0795 114.158 52.1591 113.641 52.1591ZM121.909 44.3636V45.358H117.951V44.3636H121.909ZM119.105 42.5341H120.278V49.8125C120.278 50.1439 120.326 50.3925 120.422 50.5582C120.521 50.7206 120.647 50.83 120.8 50.8864C120.956 50.9394 121.12 50.9659 121.292 50.9659C121.421 50.9659 121.527 50.9593 121.61 50.946C121.693 50.9295 121.759 50.9162 121.809 50.9062L122.048 51.9602C121.968 51.9901 121.857 52.0199 121.715 52.0497C121.572 52.0829 121.392 52.0994 121.173 52.0994C120.841 52.0994 120.517 52.0282 120.198 51.8857C119.883 51.7431 119.622 51.526 119.413 51.2344C119.207 50.9427 119.105 50.5748 119.105 50.1307V42.5341ZM123.673 52V44.3636H124.807V45.517H124.887C125.026 45.1392 125.278 44.8326 125.642 44.5973C126.007 44.362 126.418 44.2443 126.875 44.2443C126.961 44.2443 127.069 44.246 127.198 44.2493C127.328 44.2526 127.425 44.2576 127.492 44.2642V45.4574C127.452 45.4474 127.361 45.4325 127.218 45.4126C127.079 45.3894 126.932 45.3778 126.776 45.3778C126.405 45.3778 126.073 45.4557 125.781 45.6115C125.493 45.764 125.264 45.9761 125.095 46.2479C124.93 46.5163 124.847 46.8229 124.847 47.1676V52H123.673ZM128.882 52V44.3636H130.056V52H128.882ZM129.479 43.0909C129.25 43.0909 129.053 43.013 128.887 42.8572C128.725 42.7015 128.644 42.5142 128.644 42.2955C128.644 42.0767 128.725 41.8894 128.887 41.7337C129.053 41.5779 129.25 41.5 129.479 41.5C129.708 41.5 129.903 41.5779 130.066 41.7337C130.231 41.8894 130.314 42.0767 130.314 42.2955C130.314 42.5142 130.231 42.7015 130.066 42.8572C129.903 43.013 129.708 43.0909 129.479 43.0909ZM135.307 52.1591C134.591 52.1591 133.975 51.9901 133.458 51.652C132.941 51.3139 132.543 50.8482 132.264 50.255C131.986 49.6617 131.847 48.9839 131.847 48.2216C131.847 47.446 131.989 46.7616 132.274 46.1683C132.563 45.5717 132.964 45.1061 133.477 44.7713C133.994 44.4332 134.598 44.2642 135.287 44.2642C135.824 44.2642 136.308 44.3636 136.739 44.5625C137.17 44.7614 137.523 45.0398 137.798 45.3977C138.073 45.7557 138.244 46.1733 138.31 46.6506H137.137C137.047 46.3026 136.848 45.9943 136.54 45.7259C136.235 45.4541 135.824 45.3182 135.307 45.3182C134.85 45.3182 134.449 45.4375 134.104 45.6761C133.762 45.9115 133.496 46.2446 133.303 46.6754C133.115 47.103 133.02 47.6051 133.02 48.1818C133.02 48.7718 133.113 49.2855 133.298 49.723C133.487 50.1605 133.753 50.5002 134.094 50.7422C134.439 50.9841 134.843 51.1051 135.307 51.1051C135.612 51.1051 135.889 51.0521 136.137 50.946C136.386 50.84 136.596 50.6875 136.769 50.4886C136.941 50.2898 137.064 50.0511 137.137 49.7727H138.31C138.244 50.2235 138.079 50.6295 137.818 50.9908C137.559 51.3487 137.216 51.6338 136.789 51.8459C136.364 52.0547 135.87 52.1591 135.307 52.1591ZM140.025 52V44.3636H141.198V52H140.025ZM140.622 43.0909C140.393 43.0909 140.196 43.013 140.03 42.8572C139.868 42.7015 139.786 42.5142 139.786 42.2955C139.786 42.0767 139.868 41.8894 140.03 41.7337C140.196 41.5779 140.393 41.5 140.622 41.5C140.85 41.5 141.046 41.5779 141.208 41.7337C141.374 41.8894 141.457 42.0767 141.457 42.2955C141.457 42.5142 141.374 42.7015 141.208 42.8572C141.046 43.013 140.85 43.0909 140.622 43.0909ZM145.594 52.179C145.111 52.179 144.671 52.0878 144.277 51.9055C143.883 51.7199 143.569 51.4531 143.337 51.1051C143.105 50.7538 142.989 50.3295 142.989 49.8324C142.989 49.3949 143.076 49.0402 143.248 48.7685C143.42 48.4934 143.651 48.2779 143.939 48.1222C144.227 47.9664 144.545 47.8504 144.893 47.7741C145.245 47.6946 145.598 47.6316 145.952 47.5852C146.416 47.5256 146.793 47.4808 147.081 47.451C147.373 47.4179 147.585 47.3632 147.717 47.2869C147.853 47.2107 147.921 47.0781 147.921 46.8892V46.8494C147.921 46.3589 147.787 45.9777 147.518 45.706C147.253 45.4342 146.851 45.2983 146.31 45.2983C145.75 45.2983 145.311 45.4209 144.993 45.6662C144.675 45.9115 144.451 46.1733 144.322 46.4517L143.208 46.054C143.407 45.59 143.672 45.2287 144.004 44.9702C144.338 44.7083 144.703 44.526 145.097 44.4233C145.495 44.3172 145.886 44.2642 146.271 44.2642C146.516 44.2642 146.798 44.294 147.116 44.3537C147.437 44.41 147.747 44.5277 148.045 44.7067C148.347 44.8857 148.597 45.1558 148.796 45.517C148.995 45.8783 149.094 46.3622 149.094 46.9688V52H147.921V50.9659H147.862C147.782 51.1316 147.649 51.3089 147.464 51.4979C147.278 51.6868 147.031 51.8475 146.723 51.9801C146.415 52.1127 146.039 52.179 145.594 52.179ZM145.773 51.125C146.237 51.125 146.629 51.0339 146.947 50.8516C147.268 50.6693 147.51 50.4339 147.673 50.1456C147.838 49.8572 147.921 49.554 147.921 49.2358V48.1619C147.871 48.2216 147.762 48.2763 147.593 48.326C147.427 48.3724 147.235 48.4138 147.016 48.4503C146.801 48.4834 146.59 48.5133 146.385 48.5398C146.183 48.563 146.019 48.5829 145.893 48.5994C145.588 48.6392 145.303 48.7038 145.038 48.7933C144.776 48.8795 144.564 49.0104 144.401 49.1861C144.242 49.3584 144.163 49.5937 144.163 49.892C144.163 50.2997 144.313 50.608 144.615 50.8168C144.92 51.0223 145.306 51.125 145.773 51.125ZM152.409 47.4062V52H151.236V44.3636H152.369V45.5568H152.469C152.648 45.169 152.92 44.8575 153.284 44.6222C153.649 44.3835 154.119 44.2642 154.696 44.2642C155.213 44.2642 155.666 44.3703 156.053 44.5824C156.441 44.7912 156.743 45.1094 156.958 45.5369C157.174 45.9612 157.281 46.4981 157.281 47.1477V52H156.108V47.2273C156.108 46.6274 155.952 46.16 155.641 45.8253C155.329 45.4872 154.902 45.3182 154.358 45.3182C153.984 45.3182 153.649 45.3994 153.354 45.5618C153.062 45.7242 152.832 45.9612 152.663 46.2727C152.494 46.5843 152.409 46.9621 152.409 47.4062ZM166.246 52.1392C165.577 52.1392 165 52.0166 164.516 51.7713C164.032 51.526 163.66 51.1896 163.398 50.7621C163.136 50.3345 163.005 49.8456 163.005 49.2955C163.005 48.8712 163.094 48.495 163.273 48.1669C163.456 47.8355 163.706 47.5289 164.024 47.2472C164.346 46.9621 164.715 46.6771 165.133 46.392L166.604 45.2983C166.893 45.1094 167.123 44.9072 167.295 44.6918C167.471 44.4763 167.559 44.1946 167.559 43.8466C167.559 43.5881 167.445 43.3378 167.216 43.0959C166.991 42.8539 166.694 42.733 166.326 42.733C166.067 42.733 165.839 42.7992 165.64 42.9318C165.444 43.0611 165.29 43.2268 165.178 43.429C165.068 43.6278 165.013 43.8333 165.013 44.0455C165.013 44.2841 165.078 44.526 165.207 44.7713C165.34 45.0133 165.507 45.2618 165.71 45.517C165.915 45.7689 166.127 46.0275 166.346 46.2926L171.019 52H169.607L165.749 47.3466C165.391 46.9157 165.067 46.5246 164.775 46.1733C164.483 45.822 164.251 45.4756 164.079 45.1342C163.906 44.7929 163.82 44.4233 163.82 44.0256C163.82 43.5682 163.921 43.1671 164.124 42.8224C164.329 42.4744 164.616 42.2043 164.984 42.0121C165.355 41.8165 165.789 41.7188 166.286 41.7188C166.797 41.7188 167.236 41.8182 167.604 42.017C167.972 42.2126 168.255 42.4728 168.454 42.7976C168.653 43.1191 168.752 43.4688 168.752 43.8466C168.752 44.3338 168.631 44.7564 168.389 45.1143C168.147 45.4723 167.817 45.8054 167.4 46.1136L165.371 47.625C164.914 47.9631 164.604 48.2912 164.442 48.6094C164.279 48.9276 164.198 49.1562 164.198 49.2955C164.198 49.6136 164.281 49.9103 164.447 50.1854C164.612 50.4605 164.846 50.6825 165.148 50.8516C165.449 51.0206 165.802 51.1051 166.207 51.1051C166.591 51.1051 166.966 51.0239 167.33 50.8615C167.695 50.6958 168.025 50.4571 168.32 50.1456C168.618 49.834 168.853 49.4595 169.026 49.022C169.201 48.5845 169.289 48.0923 169.289 47.5455H170.423C170.423 48.2216 170.345 48.7734 170.189 49.201C170.033 49.6286 169.857 49.9633 169.662 50.2053C169.466 50.4472 169.309 50.6278 169.19 50.7472C169.15 50.7969 169.113 50.8466 169.08 50.8963C169.047 50.946 169.011 50.9957 168.971 51.0455C168.643 51.4134 168.228 51.6884 167.728 51.8707C167.228 52.0497 166.734 52.1392 166.246 52.1392ZM184.608 45H183.375C183.302 44.6454 183.174 44.3338 182.992 44.0653C182.813 43.7969 182.594 43.5715 182.336 43.3892C182.081 43.2036 181.797 43.0644 181.486 42.9716C181.174 42.8788 180.849 42.8324 180.511 42.8324C179.895 42.8324 179.336 42.9882 178.836 43.2997C178.339 43.6113 177.943 44.0703 177.648 44.6768C177.356 45.2834 177.21 46.0275 177.21 46.9091C177.21 47.7907 177.356 48.5348 177.648 49.1413C177.943 49.7479 178.339 50.2069 178.836 50.5185C179.336 50.83 179.895 50.9858 180.511 50.9858C180.849 50.9858 181.174 50.9394 181.486 50.8466C181.797 50.7538 182.081 50.6162 182.336 50.4339C182.594 50.2483 182.813 50.0213 182.992 49.7528C183.174 49.4811 183.302 49.1695 183.375 48.8182H184.608C184.515 49.3385 184.346 49.8042 184.101 50.2152C183.855 50.6262 183.55 50.9759 183.186 51.2642C182.821 51.5492 182.412 51.7663 181.958 51.9155C181.507 52.0646 181.025 52.1392 180.511 52.1392C179.643 52.1392 178.871 51.9271 178.194 51.5028C177.518 51.0786 176.986 50.4754 176.599 49.6932C176.211 48.911 176.017 47.983 176.017 46.9091C176.017 45.8352 176.211 44.9072 176.599 44.125C176.986 43.3428 177.518 42.7396 178.194 42.3153C178.871 41.8911 179.643 41.679 180.511 41.679C181.025 41.679 181.507 41.7536 181.958 41.9027C182.412 42.0518 182.821 42.2706 183.186 42.5589C183.55 42.844 183.855 43.192 184.101 43.603C184.346 44.0107 184.515 44.4763 184.608 45ZM189.543 52.1591C188.854 52.1591 188.249 51.995 187.729 51.6669C187.212 51.3388 186.807 50.8797 186.516 50.2898C186.227 49.6998 186.083 49.0104 186.083 48.2216C186.083 47.4261 186.227 46.7318 186.516 46.1385C186.807 45.5452 187.212 45.0845 187.729 44.7564C188.249 44.4283 188.854 44.2642 189.543 44.2642C190.233 44.2642 190.836 44.4283 191.353 44.7564C191.873 45.0845 192.278 45.5452 192.566 46.1385C192.858 46.7318 193.004 47.4261 193.004 48.2216C193.004 49.0104 192.858 49.6998 192.566 50.2898C192.278 50.8797 191.873 51.3388 191.353 51.6669C190.836 51.995 190.233 52.1591 189.543 52.1591ZM189.543 51.1051C190.067 51.1051 190.498 50.9709 190.836 50.7024C191.174 50.4339 191.424 50.081 191.587 49.6435C191.749 49.206 191.83 48.732 191.83 48.2216C191.83 47.7112 191.749 47.2356 191.587 46.7947C191.424 46.3539 191.174 45.9976 190.836 45.7259C190.498 45.4541 190.067 45.3182 189.543 45.3182C189.02 45.3182 188.589 45.4541 188.251 45.7259C187.913 45.9976 187.662 46.3539 187.5 46.7947C187.338 47.2356 187.256 47.7112 187.256 48.2216C187.256 48.732 187.338 49.206 187.5 49.6435C187.662 50.081 187.913 50.4339 188.251 50.7024C188.589 50.9709 189.02 51.1051 189.543 51.1051ZM200.204 46.0739L199.15 46.3722C199.083 46.1965 198.986 46.0258 198.856 45.8601C198.73 45.6911 198.558 45.5518 198.339 45.4425C198.121 45.3331 197.84 45.2784 197.499 45.2784C197.032 45.2784 196.642 45.3861 196.331 45.6016C196.023 45.8137 195.868 46.0838 195.868 46.4119C195.868 46.7036 195.974 46.9339 196.187 47.103C196.399 47.272 196.73 47.4129 197.181 47.5256L198.314 47.804C198.997 47.9697 199.506 48.2232 199.841 48.5646C200.175 48.9027 200.343 49.3385 200.343 49.8722C200.343 50.3097 200.217 50.7008 199.965 51.0455C199.716 51.3902 199.368 51.6619 198.921 51.8608C198.474 52.0597 197.953 52.1591 197.36 52.1591C196.581 52.1591 195.936 51.9901 195.426 51.652C194.916 51.3139 194.592 50.8201 194.456 50.1705L195.57 49.892C195.676 50.303 195.877 50.6113 196.172 50.8168C196.47 51.0223 196.859 51.125 197.34 51.125C197.887 51.125 198.321 51.009 198.643 50.777C198.967 50.5417 199.13 50.2599 199.13 49.9318C199.13 49.6667 199.037 49.4446 198.851 49.2656C198.666 49.0833 198.381 48.9474 197.996 48.858L196.724 48.5597C196.024 48.3939 195.51 48.1371 195.182 47.7891C194.858 47.4377 194.695 46.9986 194.695 46.4716C194.695 46.0407 194.816 45.6596 195.058 45.3281C195.303 44.9967 195.636 44.7365 196.057 44.5476C196.482 44.3587 196.962 44.2642 197.499 44.2642C198.255 44.2642 198.848 44.4299 199.279 44.7614C199.713 45.0928 200.021 45.5303 200.204 46.0739ZM202.109 52V44.3636H203.243V45.5568H203.342C203.501 45.1491 203.758 44.8326 204.113 44.6072C204.467 44.3786 204.893 44.2642 205.39 44.2642C205.894 44.2642 206.313 44.3786 206.648 44.6072C206.986 44.8326 207.25 45.1491 207.439 45.5568H207.518C207.714 45.1624 208.007 44.8492 208.398 44.6172C208.789 44.3819 209.258 44.2642 209.805 44.2642C210.488 44.2642 211.046 44.478 211.48 44.9055C211.915 45.3298 212.132 45.991 212.132 46.8892V52H210.958V46.8892C210.958 46.3258 210.804 45.9231 210.496 45.6811C210.188 45.4392 209.825 45.3182 209.407 45.3182C208.87 45.3182 208.454 45.4806 208.159 45.8054C207.864 46.1269 207.717 46.5346 207.717 47.0284V52H206.524V46.7699C206.524 46.3357 206.383 45.986 206.101 45.7209C205.819 45.4524 205.457 45.3182 205.012 45.3182C204.708 45.3182 204.422 45.3994 204.157 45.5618C203.895 45.7242 203.683 45.9496 203.521 46.2379C203.362 46.523 203.282 46.8527 203.282 47.2273V52H202.109ZM217.479 52.1591C216.743 52.1591 216.108 51.9967 215.575 51.6719C215.044 51.3438 214.635 50.8864 214.347 50.2997C214.062 49.7098 213.919 49.0237 213.919 48.2415C213.919 47.4593 214.062 46.7699 214.347 46.1733C214.635 45.5734 215.036 45.1061 215.55 44.7713C216.067 44.4332 216.67 44.2642 217.359 44.2642C217.757 44.2642 218.15 44.3305 218.538 44.4631C218.925 44.5956 219.278 44.8111 219.597 45.1094C219.915 45.4044 220.168 45.7955 220.357 46.2827C220.546 46.7699 220.641 47.3698 220.641 48.0824V48.5795H214.754V47.5653H219.447C219.447 47.1345 219.361 46.75 219.189 46.4119C219.02 46.0739 218.778 45.8071 218.463 45.6115C218.152 45.416 217.784 45.3182 217.359 45.3182C216.892 45.3182 216.488 45.4342 216.146 45.6662C215.808 45.8949 215.548 46.1932 215.366 46.5611C215.183 46.929 215.092 47.3234 215.092 47.7443V48.4205C215.092 48.9972 215.192 49.486 215.391 49.8871C215.593 50.2848 215.873 50.5881 216.231 50.7969C216.589 51.0024 217.005 51.1051 217.479 51.1051C217.787 51.1051 218.065 51.062 218.314 50.9759C218.566 50.8864 218.783 50.7538 218.965 50.5781C219.147 50.3991 219.288 50.1771 219.388 49.9119L220.521 50.2301C220.402 50.6146 220.201 50.9527 219.92 51.2443C219.638 51.5327 219.29 51.758 218.876 51.9205C218.461 52.0795 217.996 52.1591 217.479 52.1591ZM225.746 44.3636V45.358H221.789V44.3636H225.746ZM222.942 42.5341H224.116V49.8125C224.116 50.1439 224.164 50.3925 224.26 50.5582C224.359 50.7206 224.485 50.83 224.638 50.8864C224.794 50.9394 224.958 50.9659 225.13 50.9659C225.259 50.9659 225.365 50.9593 225.448 50.946C225.531 50.9295 225.597 50.9162 225.647 50.9062L225.886 51.9602C225.806 51.9901 225.695 52.0199 225.553 52.0497C225.41 52.0829 225.229 52.0994 225.011 52.0994C224.679 52.0994 224.354 52.0282 224.036 51.8857C223.721 51.7431 223.46 51.526 223.251 51.2344C223.045 50.9427 222.942 50.5748 222.942 50.1307V42.5341ZM227.511 52V44.3636H228.685V52H227.511ZM228.108 43.0909C227.879 43.0909 227.682 43.013 227.516 42.8572C227.354 42.7015 227.273 42.5142 227.273 42.2955C227.273 42.0767 227.354 41.8894 227.516 41.7337C227.682 41.5779 227.879 41.5 228.108 41.5C228.337 41.5 228.532 41.5779 228.695 41.7337C228.86 41.8894 228.943 42.0767 228.943 42.2955C228.943 42.5142 228.86 42.7015 228.695 42.8572C228.532 43.013 228.337 43.0909 228.108 43.0909ZM233.936 52.1591C233.22 52.1591 232.604 51.9901 232.086 51.652C231.569 51.3139 231.172 50.8482 230.893 50.255C230.615 49.6617 230.476 48.9839 230.476 48.2216C230.476 47.446 230.618 46.7616 230.903 46.1683C231.192 45.5717 231.593 45.1061 232.106 44.7713C232.623 44.4332 233.227 44.2642 233.916 44.2642C234.453 44.2642 234.937 44.3636 235.368 44.5625C235.799 44.7614 236.152 45.0398 236.427 45.3977C236.702 45.7557 236.872 46.1733 236.939 46.6506H235.765C235.676 46.3026 235.477 45.9943 235.169 45.7259C234.864 45.4541 234.453 45.3182 233.936 45.3182C233.479 45.3182 233.077 45.4375 232.733 45.6761C232.391 45.9115 232.125 46.2446 231.932 46.6754C231.743 47.103 231.649 47.6051 231.649 48.1818C231.649 48.7718 231.742 49.2855 231.927 49.723C232.116 50.1605 232.381 50.5002 232.723 50.7422C233.068 50.9841 233.472 51.1051 233.936 51.1051C234.241 51.1051 234.518 51.0521 234.766 50.946C235.015 50.84 235.225 50.6875 235.398 50.4886C235.57 50.2898 235.693 50.0511 235.765 49.7727H236.939C236.872 50.2235 236.708 50.6295 236.447 50.9908C236.188 51.3487 235.845 51.6338 235.417 51.8459C234.993 52.0547 234.499 52.1591 233.936 52.1591ZM249.711 45C249.601 44.6652 249.457 44.3653 249.278 44.1001C249.103 43.8317 248.892 43.603 248.647 43.4141C248.405 43.2251 248.13 43.081 247.822 42.9815C247.513 42.8821 247.175 42.8324 246.807 42.8324C246.204 42.8324 245.656 42.9882 245.162 43.2997C244.668 43.6113 244.275 44.0703 243.983 44.6768C243.692 45.2834 243.546 46.0275 243.546 46.9091C243.546 47.7907 243.693 48.5348 243.988 49.1413C244.283 49.7479 244.683 50.2069 245.187 50.5185C245.69 50.83 246.257 50.9858 246.887 50.9858C247.47 50.9858 247.984 50.8615 248.428 50.6129C248.876 50.361 249.224 50.0064 249.472 49.549C249.724 49.0883 249.85 48.5464 249.85 47.9233L250.228 48.0028H247.165V46.9091H251.043V48.0028C251.043 48.8414 250.864 49.5705 250.506 50.1903C250.152 50.8101 249.661 51.2907 249.035 51.6321C248.412 51.9702 247.696 52.1392 246.887 52.1392C245.985 52.1392 245.193 51.9271 244.51 51.5028C243.831 51.0786 243.301 50.4754 242.92 49.6932C242.542 48.911 242.353 47.983 242.353 46.9091C242.353 46.1037 242.461 45.3795 242.676 44.7365C242.895 44.0902 243.203 43.54 243.601 43.0859C243.998 42.6319 244.469 42.2839 245.013 42.0419C245.556 41.8 246.154 41.679 246.807 41.679C247.344 41.679 247.845 41.7602 248.309 41.9226C248.776 42.0817 249.192 42.3087 249.557 42.6037C249.925 42.8954 250.231 43.245 250.476 43.6527C250.722 44.0571 250.891 44.5062 250.983 45H249.711ZM253.751 54.8636C253.553 54.8636 253.375 54.8471 253.219 54.8139C253.064 54.7841 252.956 54.7543 252.896 54.7244L253.195 53.6903C253.48 53.7633 253.732 53.7898 253.95 53.7699C254.169 53.75 254.363 53.6522 254.532 53.4766C254.704 53.3042 254.862 53.0241 255.004 52.6364L255.223 52.0398L252.399 44.3636H253.672L255.78 50.4489H255.859L257.967 44.3636H259.24L255.999 53.1136C255.853 53.508 255.672 53.8345 255.457 54.093C255.241 54.3549 254.991 54.5488 254.706 54.6747C254.424 54.8007 254.106 54.8636 253.751 54.8636ZM261.962 47.4062V52H260.789V44.3636H261.922V45.5568H262.022C262.201 45.169 262.472 44.8575 262.837 44.6222C263.202 44.3835 263.672 44.2642 264.249 44.2642C264.766 44.2642 265.218 44.3703 265.606 44.5824C265.994 44.7912 266.296 45.1094 266.511 45.5369C266.726 45.9612 266.834 46.4981 266.834 47.1477V52H265.661V47.2273C265.661 46.6274 265.505 46.16 265.194 45.8253C264.882 45.4872 264.454 45.3182 263.911 45.3182C263.536 45.3182 263.202 45.3994 262.907 45.5618C262.615 45.7242 262.385 45.9612 262.216 46.2727C262.047 46.5843 261.962 46.9621 261.962 47.4062ZM271.225 52.179C270.741 52.179 270.302 52.0878 269.908 51.9055C269.513 51.7199 269.2 51.4531 268.968 51.1051C268.736 50.7538 268.62 50.3295 268.62 49.8324C268.62 49.3949 268.706 49.0402 268.879 48.7685C269.051 48.4934 269.281 48.2779 269.57 48.1222C269.858 47.9664 270.176 47.8504 270.524 47.7741C270.876 47.6946 271.229 47.6316 271.583 47.5852C272.047 47.5256 272.423 47.4808 272.712 47.451C273.003 47.4179 273.216 47.3632 273.348 47.2869C273.484 47.2107 273.552 47.0781 273.552 46.8892V46.8494C273.552 46.3589 273.418 45.9777 273.149 45.706C272.884 45.4342 272.481 45.2983 271.941 45.2983C271.381 45.2983 270.942 45.4209 270.624 45.6662C270.306 45.9115 270.082 46.1733 269.953 46.4517L268.839 46.054C269.038 45.59 269.303 45.2287 269.634 44.9702C269.969 44.7083 270.334 44.526 270.728 44.4233C271.126 44.3172 271.517 44.2642 271.901 44.2642C272.147 44.2642 272.428 44.294 272.747 44.3537C273.068 44.41 273.378 44.5277 273.676 44.7067C273.978 44.8857 274.228 45.1558 274.427 45.517C274.626 45.8783 274.725 46.3622 274.725 46.9688V52H273.552V50.9659H273.492C273.413 51.1316 273.28 51.3089 273.095 51.4979C272.909 51.6868 272.662 51.8475 272.354 51.9801C272.046 52.1127 271.669 52.179 271.225 52.179ZM271.404 51.125C271.868 51.125 272.259 51.0339 272.578 50.8516C272.899 50.6693 273.141 50.4339 273.303 50.1456C273.469 49.8572 273.552 49.554 273.552 49.2358V48.1619C273.502 48.2216 273.393 48.2763 273.224 48.326C273.058 48.3724 272.866 48.4138 272.647 48.4503C272.432 48.4834 272.221 48.5133 272.016 48.5398C271.814 48.563 271.65 48.5829 271.524 48.5994C271.219 48.6392 270.934 48.7038 270.669 48.7933C270.407 48.8795 270.195 49.0104 270.032 49.1861C269.873 49.3584 269.794 49.5937 269.794 49.892C269.794 50.2997 269.944 50.608 270.246 50.8168C270.551 51.0223 270.937 51.125 271.404 51.125ZM280.069 52.1591C279.333 52.1591 278.698 51.9967 278.164 51.6719C277.634 51.3438 277.225 50.8864 276.936 50.2997C276.651 49.7098 276.509 49.0237 276.509 48.2415C276.509 47.4593 276.651 46.7699 276.936 46.1733C277.225 45.5734 277.626 45.1061 278.14 44.7713C278.657 44.4332 279.26 44.2642 279.949 44.2642C280.347 44.2642 280.74 44.3305 281.127 44.4631C281.515 44.5956 281.868 44.8111 282.186 45.1094C282.505 45.4044 282.758 45.7955 282.947 46.2827C283.136 46.7699 283.23 47.3698 283.23 48.0824V48.5795H277.344V47.5653H282.037C282.037 47.1345 281.951 46.75 281.779 46.4119C281.61 46.0739 281.368 45.8071 281.053 45.6115C280.741 45.416 280.373 45.3182 279.949 45.3182C279.482 45.3182 279.078 45.4342 278.736 45.6662C278.398 45.8949 278.138 46.1932 277.956 46.5611C277.773 46.929 277.682 47.3234 277.682 47.7443V48.4205C277.682 48.9972 277.782 49.486 277.98 49.8871C278.183 50.2848 278.463 50.5881 278.821 50.7969C279.179 51.0024 279.595 51.1051 280.069 51.1051C280.377 51.1051 280.655 51.062 280.904 50.9759C281.156 50.8864 281.373 50.7538 281.555 50.5781C281.737 50.3991 281.878 50.1771 281.978 49.9119L283.111 50.2301C282.992 50.6146 282.791 50.9527 282.51 51.2443C282.228 51.5327 281.88 51.758 281.466 51.9205C281.051 52.0795 280.586 52.1591 280.069 52.1591ZM288.118 52.1591C287.402 52.1591 286.785 51.9901 286.268 51.652C285.751 51.3139 285.353 50.8482 285.075 50.255C284.797 49.6617 284.657 48.9839 284.657 48.2216C284.657 47.446 284.8 46.7616 285.085 46.1683C285.373 45.5717 285.774 45.1061 286.288 44.7713C286.805 44.4332 287.408 44.2642 288.098 44.2642C288.635 44.2642 289.118 44.3636 289.549 44.5625C289.98 44.7614 290.333 45.0398 290.608 45.3977C290.883 45.7557 291.054 46.1733 291.12 46.6506H289.947C289.858 46.3026 289.659 45.9943 289.35 45.7259C289.046 45.4541 288.635 45.3182 288.118 45.3182C287.66 45.3182 287.259 45.4375 286.914 45.6761C286.573 45.9115 286.306 46.2446 286.114 46.6754C285.925 47.103 285.831 47.6051 285.831 48.1818C285.831 48.7718 285.923 49.2855 286.109 49.723C286.298 50.1605 286.563 50.5002 286.904 50.7422C287.249 50.9841 287.654 51.1051 288.118 51.1051C288.422 51.1051 288.699 51.0521 288.948 50.946C289.196 50.84 289.407 50.6875 289.579 50.4886C289.752 50.2898 289.874 50.0511 289.947 49.7727H291.12C291.054 50.2235 290.89 50.6295 290.628 50.9908C290.37 51.3487 290.027 51.6338 289.599 51.8459C289.175 52.0547 288.681 52.1591 288.118 52.1591ZM295.938 52.1591C295.248 52.1591 294.644 51.995 294.123 51.6669C293.606 51.3388 293.202 50.8797 292.91 50.2898C292.622 49.6998 292.478 49.0104 292.478 48.2216C292.478 47.4261 292.622 46.7318 292.91 46.1385C293.202 45.5452 293.606 45.0845 294.123 44.7564C294.644 44.4283 295.248 44.2642 295.938 44.2642C296.627 44.2642 297.23 44.4283 297.748 44.7564C298.268 45.0845 298.672 45.5452 298.961 46.1385C299.252 46.7318 299.398 47.4261 299.398 48.2216C299.398 49.0104 299.252 49.6998 298.961 50.2898C298.672 50.8797 298.268 51.3388 297.748 51.6669C297.23 51.995 296.627 52.1591 295.938 52.1591ZM295.938 51.1051C296.462 51.1051 296.892 50.9709 297.23 50.7024C297.569 50.4339 297.819 50.081 297.981 49.6435C298.144 49.206 298.225 48.732 298.225 48.2216C298.225 47.7112 298.144 47.2356 297.981 46.7947C297.819 46.3539 297.569 45.9976 297.23 45.7259C296.892 45.4541 296.462 45.3182 295.938 45.3182C295.414 45.3182 294.983 45.4541 294.645 45.7259C294.307 45.9976 294.057 46.3539 293.895 46.7947C293.732 47.2356 293.651 47.7112 293.651 48.2216C293.651 48.732 293.732 49.206 293.895 49.6435C294.057 50.081 294.307 50.4339 294.645 50.7024C294.983 50.9709 295.414 51.1051 295.938 51.1051ZM302.362 41.8182V52H301.189V41.8182H302.362ZM307.614 52.1591C306.924 52.1591 306.319 51.995 305.799 51.6669C305.282 51.3388 304.878 50.8797 304.586 50.2898C304.298 49.6998 304.153 49.0104 304.153 48.2216C304.153 47.4261 304.298 46.7318 304.586 46.1385C304.878 45.5452 305.282 45.0845 305.799 44.7564C306.319 44.4283 306.924 44.2642 307.614 44.2642C308.303 44.2642 308.906 44.4283 309.423 44.7564C309.944 45.0845 310.348 45.5452 310.636 46.1385C310.928 46.7318 311.074 47.4261 311.074 48.2216C311.074 49.0104 310.928 49.6998 310.636 50.2898C310.348 50.8797 309.944 51.3388 309.423 51.6669C308.906 51.995 308.303 52.1591 307.614 52.1591ZM307.614 51.1051C308.137 51.1051 308.568 50.9709 308.906 50.7024C309.244 50.4339 309.495 50.081 309.657 49.6435C309.819 49.206 309.901 48.732 309.901 48.2216C309.901 47.7112 309.819 47.2356 309.657 46.7947C309.495 46.3539 309.244 45.9976 308.906 45.7259C308.568 45.4541 308.137 45.3182 307.614 45.3182C307.09 45.3182 306.659 45.4541 306.321 45.7259C305.983 45.9976 305.733 46.3539 305.57 46.7947C305.408 47.2356 305.327 47.7112 305.327 48.2216C305.327 48.732 305.408 49.206 305.57 49.6435C305.733 50.081 305.983 50.4339 306.321 50.7024C306.659 50.9709 307.09 51.1051 307.614 51.1051ZM315.947 55.0227C315.381 55.0227 314.893 54.9498 314.486 54.804C314.078 54.6615 313.738 54.4725 313.466 54.2372C313.198 54.0052 312.984 53.7566 312.825 53.4915L313.76 52.8352C313.866 52.9744 314 53.1335 314.162 53.3125C314.325 53.4948 314.547 53.6522 314.829 53.7848C315.114 53.9207 315.487 53.9886 315.947 53.9886C316.564 53.9886 317.073 53.8395 317.474 53.5412C317.875 53.2429 318.075 52.7756 318.075 52.1392V50.5881H317.976C317.89 50.7273 317.767 50.8996 317.608 51.1051C317.452 51.3073 317.227 51.4879 316.932 51.647C316.64 51.8028 316.246 51.8807 315.748 51.8807C315.132 51.8807 314.578 51.7348 314.088 51.4432C313.601 51.1515 313.215 50.7273 312.93 50.1705C312.648 49.6136 312.507 48.9375 312.507 48.142C312.507 47.3598 312.644 46.6787 312.92 46.0987C313.195 45.5154 313.577 45.0646 314.068 44.7464C314.559 44.425 315.125 44.2642 315.768 44.2642C316.265 44.2642 316.66 44.3471 316.952 44.5128C317.247 44.6752 317.472 44.8608 317.628 45.0696C317.787 45.2751 317.909 45.4441 317.996 45.5767H318.115V44.3636H319.248V52.2188C319.248 52.875 319.099 53.4086 318.801 53.8196C318.506 54.2339 318.108 54.5372 317.608 54.7294C317.111 54.925 316.557 55.0227 315.947 55.0227ZM315.907 50.8267C316.378 50.8267 316.776 50.719 317.101 50.5036C317.425 50.2881 317.672 49.9782 317.841 49.5739C318.01 49.1695 318.095 48.6856 318.095 48.1222C318.095 47.572 318.012 47.0864 317.846 46.6655C317.681 46.2446 317.435 45.9148 317.111 45.6761C316.786 45.4375 316.385 45.3182 315.907 45.3182C315.41 45.3182 314.996 45.4441 314.665 45.696C314.336 45.9479 314.09 46.286 313.924 46.7102C313.761 47.1345 313.68 47.6051 313.68 48.1222C313.68 48.6525 313.763 49.1214 313.929 49.5291C314.098 49.9335 314.346 50.2517 314.675 50.4837C315.006 50.7124 315.417 50.8267 315.907 50.8267ZM321.396 52V44.3636H322.569V52H321.396ZM321.993 43.0909C321.764 43.0909 321.567 43.013 321.401 42.8572C321.239 42.7015 321.157 42.5142 321.157 42.2955C321.157 42.0767 321.239 41.8894 321.401 41.7337C321.567 41.5779 321.764 41.5 321.993 41.5C322.221 41.5 322.417 41.5779 322.579 41.7337C322.745 41.8894 322.828 42.0767 322.828 42.2955C322.828 42.5142 322.745 42.7015 322.579 42.8572C322.417 43.013 322.221 43.0909 321.993 43.0909ZM330.127 46.0739L329.074 46.3722C329.007 46.1965 328.909 46.0258 328.78 45.8601C328.654 45.6911 328.482 45.5518 328.263 45.4425C328.044 45.3331 327.764 45.2784 327.423 45.2784C326.956 45.2784 326.566 45.3861 326.255 45.6016C325.946 45.8137 325.792 46.0838 325.792 46.4119C325.792 46.7036 325.898 46.9339 326.11 47.103C326.323 47.272 326.654 47.4129 327.105 47.5256L328.238 47.804C328.921 47.9697 329.43 48.2232 329.765 48.5646C330.099 48.9027 330.267 49.3385 330.267 49.8722C330.267 50.3097 330.141 50.7008 329.889 51.0455C329.64 51.3902 329.292 51.6619 328.845 51.8608C328.397 52.0597 327.877 52.1591 327.284 52.1591C326.505 52.1591 325.86 51.9901 325.35 51.652C324.839 51.3139 324.516 50.8201 324.38 50.1705L325.494 49.892C325.6 50.303 325.801 50.6113 326.096 50.8168C326.394 51.0223 326.783 51.125 327.264 51.125C327.811 51.125 328.245 51.009 328.566 50.777C328.891 50.5417 329.054 50.2599 329.054 49.9318C329.054 49.6667 328.961 49.4446 328.775 49.2656C328.59 49.0833 328.305 48.9474 327.92 48.858L326.647 48.5597C325.948 48.3939 325.434 48.1371 325.106 47.7891C324.781 47.4377 324.619 46.9986 324.619 46.4716C324.619 46.0407 324.74 45.6596 324.982 45.3281C325.227 44.9967 325.56 44.7365 325.981 44.5476C326.405 44.3587 326.886 44.2642 327.423 44.2642C328.179 44.2642 328.772 44.4299 329.203 44.7614C329.637 45.0928 329.945 45.5303 330.127 46.0739ZM335.354 44.3636V45.358H331.396V44.3636H335.354ZM332.55 42.5341H333.723V49.8125C333.723 50.1439 333.771 50.3925 333.867 50.5582C333.967 50.7206 334.093 50.83 334.245 50.8864C334.401 50.9394 334.565 50.9659 334.737 50.9659C334.867 50.9659 334.973 50.9593 335.056 50.946C335.138 50.9295 335.205 50.9162 335.254 50.9062L335.493 51.9602C335.414 51.9901 335.302 52.0199 335.16 52.0497C335.017 52.0829 334.837 52.0994 334.618 52.0994C334.287 52.0994 333.962 52.0282 333.644 51.8857C333.329 51.7431 333.067 51.526 332.858 51.2344C332.653 50.9427 332.55 50.5748 332.55 50.1307V42.5341Z" fill="#282828"/>
<path d="M10.9091 29H4.00852V8.63636H11.0483C13.0701 8.63636 14.8068 9.04403 16.2585 9.85938C17.7169 10.6681 18.8371 11.8314 19.6193 13.3494C20.4015 14.8674 20.7926 16.6837 20.7926 18.7983C20.7926 20.9195 20.3982 22.7424 19.6094 24.267C18.8272 25.7917 17.697 26.9616 16.2188 27.777C14.7472 28.5923 12.9773 29 10.9091 29ZM7.69744 25.8082H10.7301C12.1487 25.8082 13.3319 25.5497 14.2798 25.0327C15.2277 24.509 15.9403 23.7301 16.4176 22.696C16.8949 21.6553 17.1335 20.3561 17.1335 18.7983C17.1335 17.2405 16.8949 15.9479 16.4176 14.9205C15.9403 13.8864 15.2344 13.1141 14.2997 12.6037C13.3717 12.0866 12.2183 11.8281 10.8395 11.8281H7.69744V25.8082ZM24.1385 29V13.7273H27.6286V16.2727H27.7876C28.0661 15.3911 28.5433 14.7116 29.2195 14.2344C29.9022 13.7505 30.6811 13.5085 31.5561 13.5085C31.755 13.5085 31.977 13.5185 32.2223 13.5384C32.4742 13.5516 32.683 13.5748 32.8487 13.608V16.919C32.6963 16.866 32.4543 16.8196 32.1229 16.7798C31.7981 16.7334 31.4832 16.7102 31.1783 16.7102C30.522 16.7102 29.9321 16.8527 29.4084 17.1378C28.8913 17.4162 28.4837 17.804 28.1854 18.3011C27.8871 18.7983 27.7379 19.3717 27.7379 20.0213V29H24.1385ZM35.7074 29.2188C35.1042 29.2188 34.5871 29.0066 34.1562 28.5824C33.7254 28.1581 33.5133 27.6411 33.5199 27.0312C33.5133 26.4347 33.7254 25.9242 34.1562 25.5C34.5871 25.0758 35.1042 24.8636 35.7074 24.8636C36.2907 24.8636 36.7978 25.0758 37.2287 25.5C37.6662 25.9242 37.8883 26.4347 37.8949 27.0312C37.8883 27.4356 37.7822 27.8035 37.5767 28.1349C37.3778 28.4664 37.1127 28.7315 36.7812 28.9304C36.4564 29.1226 36.0985 29.2188 35.7074 29.2188ZM61.7287 15.1392C61.563 14.6023 61.3343 14.1217 61.0426 13.6974C60.7576 13.2666 60.4129 12.8987 60.0085 12.5938C59.6108 12.2888 59.1534 12.0601 58.6364 11.9077C58.1193 11.7486 57.5559 11.669 56.946 11.669C55.8523 11.669 54.8778 11.9441 54.0227 12.4943C53.1676 13.0445 52.4948 13.8532 52.0043 14.9205C51.5204 15.9811 51.2784 17.2737 51.2784 18.7983C51.2784 20.3362 51.5204 21.6387 52.0043 22.706C52.4882 23.7732 53.161 24.5852 54.0227 25.142C54.8845 25.6922 55.8854 25.9673 57.0256 25.9673C58.0597 25.9673 58.9545 25.7685 59.7102 25.3707C60.4725 24.973 61.0592 24.4096 61.4702 23.6804C61.8812 22.9446 62.0866 22.0829 62.0866 21.0952L62.9219 21.2244H57.3935V18.3409H65.6562V20.7869C65.6562 22.5303 65.285 24.0384 64.5426 25.3111C63.8002 26.5838 62.7794 27.5649 61.4801 28.2543C60.1809 28.937 58.6894 29.2784 57.0057 29.2784C55.1297 29.2784 53.4825 28.8575 52.0639 28.0156C50.652 27.1671 49.5483 25.964 48.7528 24.4062C47.964 22.8419 47.5696 20.9858 47.5696 18.8381C47.5696 17.1941 47.8016 15.7259 48.2656 14.4332C48.7363 13.1406 49.3925 12.0436 50.2344 11.142C51.0762 10.2339 52.0639 9.54451 53.1974 9.07386C54.331 8.59659 55.5639 8.35795 56.8963 8.35795C58.0232 8.35795 59.0739 8.52367 60.0483 8.85511C61.0227 9.17992 61.8878 9.64394 62.6435 10.2472C63.4058 10.8504 64.0322 11.5663 64.5227 12.3949C65.0133 13.2235 65.3348 14.1383 65.4872 15.1392H61.7287ZM71.2816 29.2188C70.6784 29.2188 70.1613 29.0066 69.7305 28.5824C69.2996 28.1581 69.0875 27.6411 69.0941 27.0312C69.0875 26.4347 69.2996 25.9242 69.7305 25.5C70.1613 25.0758 70.6784 24.8636 71.2816 24.8636C71.8649 24.8636 72.372 25.0758 72.8029 25.5C73.2404 25.9242 73.4625 26.4347 73.4691 27.0312C73.4625 27.4356 73.3564 27.8035 73.1509 28.1349C72.9521 28.4664 72.6869 28.7315 72.3555 28.9304C72.0307 29.1226 71.6727 29.2188 71.2816 29.2188ZM100.395 8.63636V29H97.114L87.5188 15.1293H87.3498V29H83.6609V8.63636H86.962L96.5472 22.517H96.7262V8.63636H100.395ZM104.256 29V13.7273H107.855V29H104.256ZM106.065 11.5597C105.495 11.5597 105.005 11.3707 104.594 10.9929C104.183 10.6084 103.977 10.1477 103.977 9.61079C103.977 9.06723 104.183 8.60653 104.594 8.22869C105.005 7.84422 105.495 7.65199 106.065 7.65199C106.642 7.65199 107.133 7.84422 107.537 8.22869C107.948 8.60653 108.153 9.06723 108.153 9.61079C108.153 10.1477 107.948 10.6084 107.537 10.9929C107.133 11.3707 106.642 11.5597 106.065 11.5597ZM114.838 24.2074L114.828 19.8622H115.404L120.893 13.7273H125.099L118.348 21.2443H117.602L114.838 24.2074ZM111.556 29V8.63636H115.156V29H111.556ZM121.142 29L116.17 22.0497L118.596 19.5142L125.447 29H121.142ZM127.498 29V13.7273H131.097V29H127.498ZM129.308 11.5597C128.737 11.5597 128.247 11.3707 127.836 10.9929C127.425 10.6084 127.219 10.1477 127.219 9.61079C127.219 9.06723 127.425 8.60653 127.836 8.22869C128.247 7.84422 128.737 7.65199 129.308 7.65199C129.884 7.65199 130.375 7.84422 130.779 8.22869C131.19 8.60653 131.396 9.06723 131.396 9.61079C131.396 10.1477 131.19 10.6084 130.779 10.9929C130.375 11.3707 129.884 11.5597 129.308 11.5597ZM138.398 8.63636V29H134.799V8.63636H138.398ZM146.494 29.3082C145.527 29.3082 144.655 29.1359 143.879 28.7912C143.11 28.4399 142.5 27.9228 142.05 27.2401C141.606 26.5573 141.384 25.7154 141.384 24.7145C141.384 23.8527 141.543 23.1402 141.861 22.5767C142.179 22.0133 142.613 21.5625 143.163 21.2244C143.714 20.8864 144.333 20.6312 145.023 20.4588C145.719 20.2798 146.438 20.1506 147.18 20.071C148.075 19.9782 148.801 19.8954 149.358 19.8224C149.915 19.7429 150.319 19.6236 150.571 19.4645C150.83 19.2988 150.959 19.0436 150.959 18.6989V18.6392C150.959 17.8902 150.737 17.3101 150.293 16.8991C149.848 16.4882 149.209 16.2827 148.374 16.2827C147.492 16.2827 146.793 16.4749 146.276 16.8594C145.765 17.2438 145.42 17.6979 145.241 18.2216L141.881 17.7443C142.146 16.8163 142.583 16.0407 143.193 15.4176C143.803 14.7879 144.549 14.3172 145.43 14.0057C146.312 13.6875 147.286 13.5284 148.354 13.5284C149.089 13.5284 149.822 13.6146 150.551 13.7869C151.28 13.9593 151.946 14.2443 152.55 14.642C153.153 15.0331 153.637 15.5668 154.001 16.2429C154.373 16.919 154.558 17.7642 154.558 18.7784V29H151.098V26.902H150.979C150.76 27.3262 150.452 27.724 150.054 28.0952C149.663 28.4598 149.169 28.7547 148.572 28.9801C147.982 29.1989 147.29 29.3082 146.494 29.3082ZM147.429 26.6634C148.152 26.6634 148.778 26.5208 149.308 26.2358C149.839 25.9441 150.246 25.5597 150.531 25.0824C150.823 24.6051 150.969 24.0848 150.969 23.5213V21.7216C150.856 21.8144 150.664 21.9006 150.392 21.9801C150.127 22.0597 149.829 22.1293 149.497 22.1889C149.166 22.2486 148.838 22.3016 148.513 22.348C148.188 22.3944 147.906 22.4342 147.668 22.4673C147.131 22.5402 146.65 22.6596 146.226 22.8253C145.802 22.991 145.467 23.223 145.222 23.5213C144.976 23.813 144.854 24.1908 144.854 24.6548C144.854 25.3177 145.096 25.8182 145.58 26.1562C146.063 26.4943 146.68 26.6634 147.429 26.6634ZM165.282 29V8.63636H172.918C174.483 8.63636 175.795 8.90814 176.856 9.4517C177.923 9.99526 178.728 10.7576 179.272 11.7386C179.822 12.7131 180.097 13.8499 180.097 15.1491C180.097 16.455 179.819 17.5885 179.262 18.5497C178.712 19.5043 177.9 20.2434 176.826 20.767C175.752 21.2841 174.433 21.5426 172.869 21.5426H167.43V18.4801H172.371C173.286 18.4801 174.035 18.3542 174.619 18.1023C175.202 17.8437 175.633 17.4692 175.911 16.9787C176.196 16.4815 176.339 15.8717 176.339 15.1491C176.339 14.4266 176.196 13.8101 175.911 13.2997C175.626 12.7827 175.192 12.3916 174.609 12.1264C174.025 11.8546 173.273 11.7188 172.352 11.7188H168.971V29H165.282ZM175.802 19.7727L180.843 29H176.727L171.775 19.7727H175.802ZM189.876 29.2983C188.345 29.2983 187.023 28.9801 185.909 28.3438C184.802 27.7008 183.95 26.7926 183.354 25.6193C182.757 24.4394 182.459 23.0507 182.459 21.4531C182.459 19.8821 182.757 18.5033 183.354 17.3168C183.957 16.1236 184.799 15.1955 185.879 14.5327C186.96 13.8632 188.229 13.5284 189.688 13.5284C190.629 13.5284 191.517 13.6809 192.352 13.9858C193.194 14.2841 193.937 14.7481 194.58 15.3778C195.229 16.0076 195.74 16.8097 196.111 17.7841C196.482 18.7519 196.668 19.9053 196.668 21.2443V22.348H184.149V19.9219H193.217C193.211 19.2325 193.062 18.6193 192.77 18.0824C192.478 17.5388 192.071 17.1113 191.547 16.7997C191.03 16.4882 190.427 16.3324 189.737 16.3324C189.001 16.3324 188.355 16.5114 187.798 16.8693C187.241 17.2206 186.807 17.6847 186.496 18.2614C186.191 18.8314 186.035 19.4579 186.028 20.1406V22.2585C186.028 23.1468 186.191 23.9091 186.516 24.5455C186.84 25.1752 187.295 25.6591 187.878 25.9972C188.461 26.3286 189.144 26.4943 189.926 26.4943C190.45 26.4943 190.924 26.4214 191.348 26.2756C191.772 26.1231 192.14 25.901 192.452 25.6094C192.763 25.3177 192.999 24.9564 193.158 24.5256L196.518 24.9034C196.306 25.7917 195.902 26.5672 195.305 27.2301C194.715 27.8864 193.96 28.3968 193.038 28.7614C192.117 29.1193 191.063 29.2983 189.876 29.2983ZM205.38 29.2685C204.181 29.2685 203.107 28.9602 202.159 28.3438C201.211 27.7273 200.462 26.8324 199.912 25.6591C199.361 24.4858 199.086 23.0606 199.086 21.3835C199.086 19.6866 199.365 18.2547 199.922 17.0881C200.485 15.9148 201.244 15.0298 202.199 14.4332C203.153 13.83 204.217 13.5284 205.39 13.5284C206.285 13.5284 207.021 13.6809 207.598 13.9858C208.174 14.2841 208.632 14.6454 208.97 15.0696C209.308 15.4872 209.57 15.8816 209.755 16.2528H209.904V8.63636H213.514V29H209.974V26.5938H209.755C209.57 26.965 209.301 27.3594 208.95 27.777C208.599 28.188 208.135 28.5393 207.558 28.831C206.981 29.1226 206.255 29.2685 205.38 29.2685ZM206.385 26.3153C207.147 26.3153 207.797 26.1098 208.333 25.6989C208.87 25.2812 209.278 24.7012 209.556 23.9588C209.835 23.2164 209.974 22.3513 209.974 21.3636C209.974 20.3759 209.835 19.5175 209.556 18.7884C209.285 18.0592 208.88 17.4924 208.343 17.0881C207.813 16.6837 207.16 16.4815 206.385 16.4815C205.583 16.4815 204.913 16.6903 204.376 17.108C203.839 17.5256 203.435 18.1023 203.163 18.8381C202.891 19.5739 202.755 20.4157 202.755 21.3636C202.755 22.3182 202.891 23.17 203.163 23.919C203.441 24.6615 203.849 25.2481 204.386 25.679C204.93 26.1032 205.596 26.3153 206.385 26.3153ZM223.017 29.2685C221.817 29.2685 220.743 28.9602 219.795 28.3438C218.848 27.7273 218.098 26.8324 217.548 25.6591C216.998 24.4858 216.723 23.0606 216.723 21.3835C216.723 19.6866 217.001 18.2547 217.558 17.0881C218.122 15.9148 218.881 15.0298 219.835 14.4332C220.79 13.83 221.854 13.5284 223.027 13.5284C223.922 13.5284 224.658 13.6809 225.234 13.9858C225.811 14.2841 226.268 14.6454 226.607 15.0696C226.945 15.4872 227.206 15.8816 227.392 16.2528H227.541V8.63636H231.151V29H227.611V26.5938H227.392C227.206 26.965 226.938 27.3594 226.587 27.777C226.235 28.188 225.771 28.5393 225.195 28.831C224.618 29.1226 223.892 29.2685 223.017 29.2685ZM224.021 26.3153C224.784 26.3153 225.433 26.1098 225.97 25.6989C226.507 25.2812 226.915 24.7012 227.193 23.9588C227.472 23.2164 227.611 22.3513 227.611 21.3636C227.611 20.3759 227.472 19.5175 227.193 18.7884C226.921 18.0592 226.517 17.4924 225.98 17.0881C225.45 16.6837 224.797 16.4815 224.021 16.4815C223.219 16.4815 222.55 16.6903 222.013 17.108C221.476 17.5256 221.071 18.1023 220.8 18.8381C220.528 19.5739 220.392 20.4157 220.392 21.3636C220.392 22.3182 220.528 23.17 220.8 23.919C221.078 24.6615 221.486 25.2481 222.023 25.679C222.566 26.1032 223.232 26.3153 224.021 26.3153ZM237.223 34.7273C236.733 34.7273 236.279 34.6875 235.861 34.608C235.45 34.535 235.122 34.4489 234.877 34.3494L235.712 31.5455C236.236 31.6979 236.703 31.7708 237.114 31.7642C237.525 31.7576 237.886 31.6283 238.198 31.3764C238.516 31.1312 238.784 30.7202 239.003 30.1435L239.311 29.3182L233.773 13.7273H237.591L241.111 25.2614H241.27L244.8 13.7273H248.628L242.513 30.8494C242.228 31.6581 241.85 32.3509 241.38 32.9276C240.909 33.5109 240.332 33.955 239.65 34.2599C238.973 34.5715 238.165 34.7273 237.223 34.7273Z" fill="#695FA3"/>
</svg>
