<svg width="52" height="52" viewBox="0 0 52 52" fill="none" xmlns="http://www.w3.org/2000/svg">
<path d="M41.1413 4.85333L40.8426 4.06933C40.3786 2.832 39.1786 2 37.856 2H14.144C12.8213 2 11.616 2.832 11.152 4.06933L10.8586 4.848C8.33595 11.5093 5.19995 19.8027 5.19995 29.2C5.19995 36.976 6.76262 43.0987 10.1173 48.48C10.7146 49.4347 11.7333 50 12.848 50H39.1573C40.2719 50 41.2906 49.4293 41.8879 48.48C45.2373 43.0987 46.7999 36.9707 46.7999 29.2C46.7999 19.808 43.6639 11.5147 41.1413 4.85333ZM40.0746 47.3493C39.8719 47.6747 39.5253 47.8667 39.1573 47.8667H27.0666V37.1093L34.2186 29.9573C34.6346 29.5413 34.6346 28.864 34.2186 28.448C33.8026 28.032 33.1253 28.032 32.7093 28.448L25.9999 35.1573L19.2853 28.448C18.8693 28.032 18.192 28.032 17.776 28.448C17.36 28.864 17.36 29.5413 17.776 29.9573L24.9333 37.1093V47.8667H12.8426C12.4693 47.8667 12.128 47.6747 11.9253 47.3493C8.79462 42.3253 7.33328 36.5547 7.33328 29.2C7.33328 20.1973 10.3946 12.1067 12.8533 5.60533L13.1466 4.82133C13.3066 4.40533 13.696 4.13333 14.144 4.13333H37.856C38.304 4.13333 38.6933 4.4 38.8533 4.82133L39.152 5.61067C41.6053 12.1067 44.6666 20.1973 44.6666 29.2C44.6666 36.5547 43.2053 42.3253 40.0746 47.3493Z" fill="#E11D48"/>
<path d="M22.0586 8.98666C21.8613 8.69866 21.5306 8.53333 21.184 8.53333C20.8373 8.53333 20.512 8.70399 20.3093 8.98666L16.1706 14.9067C14.464 17.344 14.7573 20.64 16.8586 22.7413C18.016 23.8987 19.552 24.5333 21.184 24.5333C22.816 24.5333 24.3573 23.8987 25.5093 22.7413C27.6106 20.64 27.904 17.344 26.1973 14.9067L22.0586 8.98666ZM24 21.2267C22.448 22.7787 19.9146 22.7787 18.3626 21.2267C16.992 19.856 16.8053 17.712 17.9146 16.1227L21.1786 11.456L24.4426 16.1227C25.5626 17.712 25.3706 19.8613 24 21.2267Z" fill="#E11D48"/>
<path d="M33.2586 8.98666C33.0613 8.70399 32.7306 8.53333 32.3839 8.53333C32.0373 8.53333 31.7119 8.70399 31.5093 8.98666L29.2799 12.1707C28.2239 13.68 28.4053 15.7173 29.7066 17.0187C30.4426 17.7547 31.4133 18.128 32.3839 18.128C33.3546 18.128 34.3253 17.76 35.0613 17.0187C36.3626 15.7173 36.5439 13.68 35.4879 12.1707L33.2586 8.98666ZM33.5519 15.5093C32.9279 16.1333 31.8399 16.1333 31.2106 15.5093C30.6399 14.9387 30.5653 14.048 31.0239 13.392L32.3786 11.456L33.7333 13.392C34.2026 14.0533 34.1226 14.944 33.5519 15.5093Z" fill="#E11D48"/>
</svg>
