<svg width="52" height="52" viewBox="0 0 52 52" fill="none" xmlns="http://www.w3.org/2000/svg">
<path d="M3.39492 45.5257C3.07842 45.5257 2.80779 45.2918 2.76651 44.9684C1.14503 30.7944 2.29176 20.2378 4.38113 4.53199C4.427 4.18568 4.74579 3.93799 5.09209 3.99073C5.4384 4.0366 5.67922 4.35539 5.63335 4.70169C3.56007 20.3135 2.41557 30.7991 4.02561 44.8334C4.06689 45.1797 3.8146 45.4916 3.46829 45.5329C3.44765 45.526 3.42015 45.5257 3.39492 45.5257Z" fill="#E11D48"/>
<path d="M16.1422 39.3538C16.0138 39.3538 15.8831 39.3125 15.773 39.2299C14.7225 38.4616 13.8051 37.5396 13.0437 36.4869C12.8373 36.2048 12.9038 35.8126 13.1836 35.6062C13.4657 35.3998 13.8579 35.4663 14.0643 35.7461C14.7524 36.691 15.5734 37.5189 16.5184 38.2116C16.8005 38.418 16.8578 38.8102 16.6537 39.0923C16.5298 39.2666 16.3372 39.3538 16.1422 39.3538Z" fill="#E11D48"/>
<path d="M11.8925 33.4754C11.6288 33.4754 11.3765 33.3057 11.294 33.0351C10.8995 31.8149 10.7 30.5329 10.7 29.237C10.7 28.8907 10.9821 28.5972 11.3329 28.5972C11.6861 28.5972 11.9659 28.8678 11.9659 29.2187V29.2416C11.9659 30.409 12.1471 31.5558 12.5003 32.6521C12.6058 32.9869 12.4246 33.3401 12.0944 33.4456C12.021 33.464 11.9567 33.4754 11.8925 33.4754Z" fill="#E11D48"/>
<path d="M11.9037 26.219C11.8395 26.219 11.7753 26.2075 11.711 26.1892C11.3831 26.0837 11.1996 25.7259 11.3051 25.3911C11.711 24.1571 12.3028 23.0012 13.0734 21.9439C13.2798 21.6618 13.6719 21.6045 13.9541 21.8086C14.2362 22.015 14.2935 22.4072 14.0894 22.6893C13.4013 23.6343 12.8693 24.6732 12.5046 25.7832C12.4197 26.0493 12.1743 26.219 11.9037 26.219Z" fill="#E11D48"/>
<path d="M32.5771 22.974C32.3845 22.974 32.1895 22.8868 32.0657 22.7148C31.3776 21.7699 30.552 20.942 29.6117 20.2539C29.3296 20.0475 29.2654 19.6553 29.4718 19.3732C29.6782 19.0911 30.0703 19.0269 30.3525 19.2333C31.4029 19.997 32.3249 20.919 33.0886 21.9695C33.295 22.2516 33.2285 22.6437 32.9487 22.8502C32.834 22.9327 32.7056 22.974 32.5771 22.974Z" fill="#E11D48"/>
<path d="M16.1839 20.3594C15.9912 20.3594 15.7962 20.2723 15.6724 20.1003C15.466 19.8182 15.5325 19.426 15.8123 19.2196C16.8696 18.4558 18.0255 17.8641 19.264 17.465C19.5988 17.3595 19.9521 17.5407 20.0576 17.871C20.1631 18.199 19.9819 18.559 19.6516 18.6646C18.5416 19.0223 17.5026 19.5521 16.5509 20.2379C16.4431 20.3182 16.3123 20.3594 16.1839 20.3594Z" fill="#E11D48"/>
<path d="M26.7106 18.6984C26.6464 18.6984 26.5822 18.687 26.518 18.6686C25.4148 18.3108 24.2566 18.1274 23.0892 18.1274C22.7429 18.1274 22.4608 17.8453 22.4608 17.4944C22.4608 17.1481 22.7429 16.866 23.0938 16.866C24.3965 16.866 25.6832 17.0724 26.917 17.4714C27.245 17.5769 27.4285 17.9347 27.323 18.265C27.2221 18.5333 26.9744 18.6984 26.7106 18.6984Z" fill="#E11D48"/>
<path d="M23.8987 7.5247H22.2428C21.8965 7.5247 21.6099 7.2426 21.6099 6.89171C21.6099 6.53852 21.8965 6.26331 22.2428 6.26331H23.8987C24.2451 6.26331 24.5317 6.54541 24.5317 6.89629C24.5317 7.24949 24.245 7.5247 23.8987 7.5247Z" fill="#E11D48"/>
<path d="M49.7924 9.60259C49.6043 9.19664 49.2695 8.88012 48.8819 8.65766L47.5379 7.88247C46.5334 7.30222 45.249 7.64853 44.6733 8.65079L42.7193 12.0337C42.4326 9.64386 42.1092 7.16 41.7629 4.52483C41.717 4.17852 41.3982 3.9377 41.0519 3.98357C40.7056 4.02943 40.4648 4.34823 40.5107 4.69453C40.9442 7.95358 41.3317 10.9763 41.662 13.8661L34.8894 25.5906C34.8711 25.5309 34.8596 25.4736 34.8435 25.414C34.738 25.086 34.3803 24.8979 34.05 25.008C33.722 25.1135 33.5385 25.4713 33.644 25.8016C33.7908 26.2488 33.8963 26.7006 33.9835 27.1571L30.924 32.4596L23.7017 44.996V33.0766C24.775 32.923 25.7566 32.3771 26.4607 31.5263L28.9743 28.4736C29.1968 28.203 29.1555 27.804 28.8872 27.5861C28.6166 27.3636 28.2175 27.4049 27.9996 27.6732L25.486 30.7258C25.0273 31.2832 24.3989 31.6593 23.7016 31.7992V30.4185C23.7016 30.0722 23.4195 29.7855 23.0687 29.7855C22.7155 29.7855 22.4357 30.0676 22.4357 30.4185V31.7992C21.743 31.6593 21.1146 31.2831 20.6513 30.7258L18.1377 27.6732C17.9152 27.4026 17.5207 27.3682 17.2501 27.5861C16.9795 27.8085 16.9451 28.203 17.163 28.4736L19.6766 31.5263C20.3761 32.3771 21.3623 32.9184 22.4356 33.0766V40.3289C21.4678 40.2762 20.516 40.1064 19.6055 39.806C19.2706 39.6936 18.9174 39.8771 18.8073 40.2119C18.7018 40.5399 18.8784 40.9 19.2133 41.0101C20.2591 41.3495 21.3394 41.5445 22.4356 41.5972V47.4341C22.4356 47.863 22.8829 48.1451 23.2705 47.9685L30.5339 44.604C30.6509 44.5512 30.7518 44.4572 30.816 44.3448L33.7929 39.1844C34.0223 38.7854 34.1163 38.322 34.0567 37.8634L33.9168 36.79C33.8939 36.602 33.9283 36.4139 34.0223 36.2442L34.6393 35.1525C34.7218 35.1639 34.7975 35.1708 34.8801 35.1708C35.6071 35.1708 36.3135 34.7947 36.7011 34.1204L42.5953 23.9096C43.0426 30.7555 42.9761 37.285 42.1137 44.8285C42.0724 45.1748 42.3247 45.4867 42.671 45.528C42.694 45.528 42.7169 45.5349 42.7421 45.5349C43.0586 45.5349 43.3293 45.301 43.3705 44.9776C44.3223 36.652 44.3109 29.5653 43.7237 21.9626L49.7189 11.5821C50.0607 10.9651 50.0974 10.2494 49.7924 9.60259ZM32.9282 35.6085C32.6989 36.0075 32.6048 36.4777 32.6645 36.9295L32.8044 38.0212C32.8273 38.2024 32.7929 38.3905 32.6989 38.5487L29.8228 43.5325L24.6143 45.9452L31.701 33.6477L33.4624 34.6638L32.9282 35.6085ZM48.6223 10.9371L35.6044 33.4819C35.375 33.8809 34.8636 34.0162 34.4645 33.7869L33.1893 33.053L32.3269 32.553L45.7599 9.28552C45.9893 8.88645 46.5007 8.75114 46.9044 8.98049L48.3125 9.79695C48.5052 9.90934 48.6474 10.0905 48.7001 10.3084C48.7644 10.5125 48.7346 10.7422 48.6223 10.9371Z" fill="#E11D48"/>
</svg>
