<svg width="52" height="52" viewBox="0 0 52 52" fill="none" xmlns="http://www.w3.org/2000/svg">
<path d="M27.085 21.4338C27.2686 21.4806 27.46 21.5041 27.6553 21.5002C28.4796 21.4611 29.2842 21.2111 29.9873 20.7736C31.6553 19.8127 32.4443 18.4806 31.8975 17.5353V17.5314C31.5147 16.9533 30.8077 16.6837 30.1358 16.8556C29.4288 16.9572 28.7491 17.1994 28.1358 17.5666C27.214 18.0197 26.4913 18.7971 26.1124 19.7541C25.9992 20.1056 26.0421 20.4884 26.2296 20.8088C26.4132 21.1252 26.7217 21.3556 27.085 21.4338ZM28.8858 18.8635C29.3702 18.551 29.9288 18.3674 30.5069 18.3361C30.1905 18.8166 29.753 19.2111 29.2374 19.4728V19.4767C28.753 19.7892 28.1944 19.9689 27.6163 20.0041C27.9366 19.5197 28.3741 19.1291 28.8858 18.8635ZM23.0889 26.1526C23.2061 26.1526 23.3194 26.1487 23.4366 26.133C24.1397 26.0315 24.8194 25.7932 25.4327 25.426C27.1007 24.4612 27.8858 23.1291 27.3429 22.1877C26.796 21.2463 25.2491 21.258 23.5773 22.219C21.9093 23.1838 21.1242 24.5198 21.6711 25.4612V25.4572C21.9758 25.9377 22.5225 26.2073 23.0889 26.1526ZM24.3311 23.5159C24.8155 23.2034 25.3741 23.0237 25.9522 22.9885C25.6319 23.469 25.1983 23.8635 24.6827 24.1291C24.1983 24.4416 23.6397 24.6213 23.0616 24.6565C23.3819 24.1721 23.8155 23.7815 24.3311 23.5159ZM16.5303 31.0354C19.9092 29.9963 23.1553 28.5549 26.1944 26.7463C29.2842 25.0197 32.1553 22.9299 34.7452 20.5197C37.1163 18.2033 37.964 16.4064 37.2569 15.1799L33.003 7.81657C32.296 6.59387 30.3194 6.42597 27.1241 7.32438H27.128C24.6475 8.06657 22.2452 9.04708 19.9561 10.2541L17.1592 5.83608C17.0733 5.69936 16.9405 5.59389 16.7881 5.5392L7.51864 2.047C7.3038 1.96887 7.06552 1.9884 6.8663 2.10559L2.3624 4.81649C2.12021 4.96493 1.97959 5.23446 2.00302 5.51571C2.02255 5.80087 2.20224 6.04696 2.46396 6.15243L12.644 10.3243L14.5542 13.4063C12.5425 14.7071 10.6519 16.1915 8.90966 17.8399C6.53856 20.1602 5.69086 21.9532 6.39796 23.1797L10.648 30.5391V30.543H10.6558C11.2261 31.3282 12.1792 31.7344 13.1402 31.6016C14.2925 31.5665 15.4288 31.3752 16.5303 31.0354ZM13.792 9.32837C13.7061 9.19165 13.585 9.09009 13.4366 9.02759L4.41315 5.33229L7.32726 3.57839L16.0265 6.85179L18.6281 10.9573C18.2413 11.1682 17.8507 11.387 17.4601 11.6135C16.9015 11.9378 16.3546 12.2659 15.8156 12.5979L13.792 9.32837ZM10.9053 27.9844L7.69833 22.4297C7.56552 22.1953 7.71004 21.1094 9.96002 18.9102C11.8038 17.1758 13.8155 15.6211 15.96 14.2813L15.9717 14.2735C15.9835 14.2656 15.9913 14.2617 15.9991 14.2539C16.71 13.7969 17.4444 13.3516 18.2061 12.9101H18.21C21.1397 11.164 24.2686 9.77342 27.5303 8.76562C30.5615 7.91796 31.5733 8.33203 31.7061 8.5664L34.9131 14.1211C33.7139 14.1406 32.5225 14.332 31.3779 14.6875C27.9951 15.7266 24.749 17.168 21.7099 18.9766C18.624 20.7032 15.7529 22.7969 13.163 25.2032C12.2802 26.0157 11.5225 26.9532 10.9053 27.9844ZM11.9483 29.793C11.8155 29.5625 11.96 28.4766 14.21 26.2774V26.2735C16.71 23.9532 19.4795 21.9415 22.46 20.2774C25.3897 18.5274 28.5225 17.1368 31.7842 16.129C32.7491 15.8282 33.753 15.6563 34.7647 15.6212C35.5499 15.6212 35.8858 15.8008 35.96 15.9297C36.0928 16.1641 35.9483 17.25 33.6983 19.4492C31.1944 21.7695 28.4249 23.7851 25.4483 25.4492C22.5147 27.1953 19.3858 28.5859 16.1241 29.5937C13.0968 30.4414 12.085 30.0234 11.9483 29.793ZM16.7842 27.7735C16.8975 27.7735 17.0147 27.7657 17.128 27.7539C17.835 27.6524 18.5147 27.4102 19.128 27.043C20.796 26.0782 21.5811 24.7461 21.0382 23.8008C20.4913 22.8594 18.9444 22.875 17.2765 23.836C15.6085 24.8008 14.8234 26.1368 15.3703 27.0782H15.3664C15.6711 27.5586 16.2178 27.8282 16.7842 27.7735ZM18.0225 25.1329C18.5108 24.8243 19.0694 24.6407 19.6475 24.6055C19.3272 25.086 18.8897 25.4805 18.378 25.7461C17.8936 26.0586 17.335 26.2422 16.7569 26.2735C17.0733 25.793 17.5108 25.3985 18.0225 25.1329ZM49.2495 20.8204C48.8355 20.8204 48.4995 21.1563 48.4995 21.5704V27.1524L41.0425 28.1836C41.0816 27.2929 40.5855 26.4609 39.7808 26.0781C38.9761 25.6913 38.0152 25.8281 37.3472 26.4179L34.6206 28.8398L29.1089 29.3554V29.3593C28.9527 29.375 28.8003 29.4375 28.6831 29.5429L22.1245 35.371V35.3749C21.5074 35.9218 21.2066 36.7421 21.3238 37.5624C21.441 38.3788 21.9605 39.0819 22.7027 39.4374L18.8043 42.9022L13.1324 47.9452C12.9449 48.1093 12.855 48.3554 12.8863 48.6015C12.9175 48.8437 13.0699 49.0585 13.2886 49.1718C14.3003 49.7069 15.4214 49.9882 16.562 49.9999C18.5229 49.9257 20.394 49.1718 21.8628 47.871L21.8902 47.8476L23.9879 45.9843C24.0972 45.8866 24.1754 45.7616 24.2144 45.621L24.7847 43.5312L25.5777 42.8281C25.9683 43.9922 27.1597 44.6914 28.3668 44.4609C28.4762 45.1015 28.8316 45.6797 29.3629 46.0586C29.8941 46.4375 30.5504 46.5898 31.1949 46.4804C31.3668 47.6288 32.3199 48.4999 33.4801 48.5702C33.5309 48.5742 33.5817 48.5742 33.6285 48.5742H33.6324C34.234 48.5742 34.8121 48.3554 35.2613 47.9531L40.1363 43.6172V43.6211C41.6988 43.8554 43.2925 43.5351 44.6441 42.7148C44.6676 42.7031 44.6949 42.6875 44.7184 42.6679L48.4996 39.8007V44.5273C48.4996 44.9414 48.8355 45.2773 49.2496 45.2773C49.6636 45.2773 49.9996 44.9414 49.9996 44.5273V21.5703C49.9996 21.3711 49.9214 21.1797 49.7808 21.0391C49.6402 20.8985 49.4488 20.8204 49.2495 20.8204ZM38.3435 27.5391C38.5623 27.3438 38.8787 27.3008 39.1404 27.4297C39.4021 27.5586 39.5623 27.832 39.5467 28.1211C39.5349 28.3164 39.449 28.4961 39.3045 28.6211L34.9295 32.5117H32.7498L35.406 30.1523C35.4294 30.1328 35.4489 30.1132 35.4685 30.0937L38.3435 27.5391ZM24.3945 37.9341C23.9961 38.2817 23.3906 38.2466 23.0429 37.8481C22.6914 37.4536 22.7265 36.8481 23.121 36.4965L29.496 30.8285L32.7305 30.5238L30.496 32.5121H29.5937C28.7851 32.5121 28.0234 32.8676 27.5039 33.4848C26.9844 34.102 26.7617 34.9145 26.8984 35.7075L24.3984 37.9302L24.3945 37.9341ZM28.8789 37.8911L26.2734 40.2075L26.2383 40.2388L23.918 42.2974L22.2227 41.8677L27.5821 37.1021H27.586C27.9336 37.481 28.3828 37.7544 28.8789 37.8911ZM22.8281 45.0122L20.914 46.7153C18.8906 48.3364 16.957 48.8481 15.0312 48.2661L19.5234 44.2739L19.7695 44.0551L20.8711 43.0747L23.1992 43.6606L22.8281 45.0122ZM43.8481 41.4458C42.7075 42.1333 41.352 42.3599 40.0551 42.0864C39.8247 42.0396 39.5864 42.106 39.4106 42.2622L34.2661 46.8325C33.8716 47.1841 33.2661 47.1489 32.9106 46.7544C32.559 46.3599 32.5942 45.7544 32.9848 45.3989L35.4106 43.2427L35.4145 43.2388C35.7231 42.9653 35.7505 42.4927 35.477 42.1841C35.2036 41.8755 34.7309 41.8481 34.4223 42.1216L31.9926 44.2778L31.434 44.7739C31.0395 45.1254 30.4301 45.0942 30.0785 44.6957C29.7231 44.3012 29.7582 43.6957 30.1528 43.3402L30.1567 43.3363L34.0864 39.8441C34.391 39.5668 34.4184 39.098 34.145 38.7894C33.8715 38.4808 33.3989 38.4496 33.0903 38.723L29.1605 42.2191L29.1566 42.223L28.5473 42.766V42.7621C28.1527 43.1137 27.5512 43.0824 27.1996 42.6918C26.8441 42.3012 26.8675 41.6996 27.2542 41.3402L27.3519 41.2542L27.3714 41.2347L31.0316 37.9808H35.3636L35.3597 37.9847C36.5042 39.4456 38.0081 40.5863 39.723 41.2894C40.1019 41.4574 40.5433 41.2855 40.7074 40.9066C40.8754 40.5277 40.7035 40.0863 40.3246 39.9183C38.7465 39.3011 37.3832 38.2308 36.4066 36.848C36.2699 36.6215 36.0277 36.4848 35.766 36.4848H29.5941C28.9105 36.4848 28.3558 35.9301 28.3558 35.2465C28.3558 34.5668 28.9105 34.0121 29.5941 34.0121H35.2152C35.266 34.0042 35.3207 34.0042 35.3714 34.0121H41.1722C41.5863 34.0121 41.9222 33.6761 41.9222 33.2621C41.9222 32.848 41.5863 32.5121 41.1722 32.5121H37.1839L40.223 29.809L48.5003 28.6645V37.9223L43.8481 41.4458Z" fill="#E11D48"/>
</svg>
