<svg width="52" height="52" viewBox="0 0 52 52" fill="none" xmlns="http://www.w3.org/2000/svg">
<path d="M27.4775 30.4112L34.9625 2.45089L33.2781 2L25.8126 29.8864C24.6199 29.9832 23.679 30.9709 23.679 32.1881C23.679 33.4695 24.7183 34.51 26.0008 34.51C27.2833 34.51 28.3216 33.4701 28.3216 32.1881C28.3216 31.4713 27.9882 30.8376 27.4775 30.4112Z" fill="#E11D48"/>
<path d="M43.7861 34.8227L43.9438 33.5245L31.3397 31.9929C31.3386 31.5599 31.2826 31.1411 31.1836 30.7376L43.0589 26.2352L42.5955 25.012L30.7224 29.5127C30.5239 29.1369 30.2797 28.7893 30.0001 28.4733L38.4228 18.9656L37.4438 18.0986L29.0244 27.6026C28.9765 27.5699 28.9265 27.5406 28.8775 27.5096L28.2667 29.7906C28.9031 30.3922 29.3023 31.2428 29.3023 32.1876C29.3023 34.0118 27.824 35.4895 26.0009 35.4895C24.1767 35.4895 22.6984 34.0112 22.6984 32.1876C22.6984 30.5934 23.8286 29.2631 25.3319 28.9541L25.9448 26.6654C25.7496 26.6682 25.5571 26.6801 25.3678 26.7024L22.3296 14.3768L21.0596 14.6901L24.0978 27.0173C23.6997 27.1691 23.3217 27.3649 22.9757 27.6026L14.5563 18.0981L13.5773 18.965L21.9995 28.4728C21.7199 28.7888 21.4757 29.1363 21.2772 29.5122L9.40349 25.0115L8.9401 26.2347L20.8165 30.737C20.7181 31.1406 20.6604 31.5594 20.6593 31.9923L8.05627 33.5239L8.214 34.8222L20.8219 33.2906C20.9247 33.7067 21.0738 34.1032 21.2679 34.4746L10.822 41.6844L11.5655 42.7608L22.0141 35.5483C22.2959 35.8637 22.6103 36.1476 22.9583 36.3891L17.0555 47.6303L18.2134 48.2383L24.1174 36.9956C24.5073 37.143 24.9185 37.2474 25.3466 37.2996V50H26.6541V37.2991C27.0816 37.2468 27.4933 37.1424 27.8833 36.995L33.7867 48.2378L34.9446 47.6297L29.0423 36.3897C29.3904 36.1482 29.7053 35.8643 29.9865 35.5488L40.4346 42.7614L41.1781 41.685L30.7322 34.4746C30.9258 34.1032 31.0743 33.7067 31.1771 33.2906L43.7861 34.8227Z" fill="#E11D48"/>
</svg>
