<svg width="52" height="52" viewBox="0 0 52 52" fill="none" xmlns="http://www.w3.org/2000/svg">
<path d="M43.3616 30.5957C43.0553 25.7957 41.7276 22.2213 40.5531 19.0553C39.685 16.7574 38.9191 14.5617 38.6127 12.2638C38.3063 9.71064 38.3574 8.02553 38.5106 6.08511C38.5616 5.06383 38.6127 4.04255 38.6127 2.76596C38.6127 2.35745 38.3063 2 37.8467 2C37.4382 2 37.0808 2.30638 37.0808 2.76596C37.0808 3.99149 37.0297 5.01277 36.9787 5.98298C36.8765 7.9234 36.7744 9.7617 37.1319 12.417C37.4382 14.6128 38.1021 16.6553 38.868 18.7489C37.7957 19.0553 36.7744 19.3617 35.9063 19.617C33.9659 20.1787 32.3829 20.6894 31.0553 21.0468C30.1361 19.1064 28.6042 17.3191 27.3787 15.8894C27.0723 15.5319 26.7659 15.1745 26.5106 14.8681C26.3574 14.7149 26.1531 14.6128 25.9489 14.6128C25.7446 14.6128 25.4893 14.7149 25.3872 14.8681C25.1319 15.1745 24.8255 15.5319 24.5191 15.8894C24.0085 16.5021 23.3957 17.217 22.834 17.9319L21.3021 15.8383C21.0468 15.4809 20.5872 15.4298 20.2808 15.6851C19.9233 15.9404 19.8723 16.4 20.1276 16.7064L21.9659 19.2085C21.5574 19.8213 21.1999 20.434 20.8936 21.0468C19.617 20.6894 18.085 20.2298 16.1957 19.7191C15.2765 19.4638 14.2553 19.1574 13.1319 18.8C13.8978 16.7064 14.5616 14.6638 14.868 12.4681C15.2255 9.81277 15.1233 7.97447 15.0212 6.03404C14.9702 5.06383 14.9191 4.04255 14.9191 2.81702C14.9191 2.40851 14.5616 2.05106 14.1531 2.05106C13.7446 2.05106 13.3872 2.40851 13.3872 2.81702C13.3872 4.04255 13.4382 5.11489 13.4893 6.13617C13.5914 8.0766 13.6936 9.7617 13.3872 12.3149C13.0808 14.6638 12.2638 16.8085 11.4468 19.1064C10.2723 22.2723 8.94462 25.8468 8.63824 30.6468C8.28079 36.1106 9.30207 42.2383 11.7531 49.4383C11.8553 49.7447 12.1616 49.9489 12.468 49.9489C12.5702 49.9489 12.6212 49.9489 12.7233 49.8979C13.1319 49.7447 13.3361 49.3362 13.1829 48.9277C11.0893 42.6979 10.2212 37.7957 10.1191 33.7617C12.8765 32.434 16.0425 32.1277 19.7702 32.8426C19.8723 32.8936 19.9744 32.8936 20.0255 32.8936C21.6595 33.2 23.3446 33.7106 25.1829 34.3745C25.1319 40.9106 24.5191 45.8128 23.3957 48.9277C23.2425 49.3362 23.4468 49.7447 23.8553 49.8979C23.9574 49.9489 24.0085 49.9489 24.1106 49.9489C24.417 49.9489 24.7233 49.7447 24.8255 49.4383C25.285 48.1617 25.6425 46.5787 25.9489 44.7915C26.2553 46.6298 26.6127 48.1617 27.0723 49.4383C27.1744 49.7447 27.4808 49.9489 27.7872 49.9489C27.8893 49.9489 27.9404 49.9489 28.0425 49.8979C28.451 49.7447 28.6553 49.3362 28.5021 48.9277C27.3787 45.8128 26.817 40.9106 26.7148 34.3745C33.0468 32.0766 37.9489 31.8723 41.9319 33.8638C41.8297 37.8979 40.9616 42.7489 38.868 48.9787C38.7148 49.3872 38.9702 49.7957 39.3276 49.9489C39.4297 50 39.4808 50 39.5829 50C39.8893 50 40.1957 49.7957 40.2978 49.4894C42.6978 42.1872 43.7191 36.0085 43.3616 30.5957ZM25.6425 16.8085C25.7446 16.7064 25.8468 16.6043 25.9489 16.4511C26.051 16.5532 26.1531 16.6553 26.2553 16.8085C28.0936 18.9532 30.5957 21.966 30.4936 24.7745C30.4425 25.7957 30.1872 26.6128 29.7276 27.2766L23.7531 19.1574C24.3659 18.3404 25.0808 17.5234 25.6425 16.8085ZM28.6042 28.3489C27.7872 28.9106 26.868 29.166 25.9489 29.1149C23.8553 29.166 21.6085 27.8383 21.4553 24.7745C21.4042 23.3447 22.017 21.8638 22.885 20.4851L28.6042 28.3489ZM25.9489 32.9957C23.9574 32.2809 22.1191 31.7191 20.3829 31.3617C20.0255 30.9021 19.668 30.3915 19.8212 29.1149C19.8723 28.7064 19.5659 28.3489 19.1574 28.2979C18.7489 28.2468 18.3914 28.5532 18.3404 28.9617C18.2382 29.8809 18.3404 30.5447 18.4936 31.0553C17.9319 31.0043 17.3702 30.9532 16.8085 30.9021C16.5021 30.4426 15.9404 29.4213 15.8382 28.6553C15.7361 27.9915 16.5021 27.5319 16.5531 27.5319C16.9106 27.3277 17.0638 26.9191 16.8595 26.5106C16.6553 26.1532 16.2468 26 15.8382 26.2043C15.2765 26.4596 14.4595 27.1745 14.3063 28.2468C13.7957 28.4511 13.1829 28.6043 12.0595 28.1957C11.651 28.0426 11.2425 28.2468 11.0893 28.6043C10.9361 29.0128 11.1404 29.4213 11.4978 29.5745C12.2638 29.8809 12.8765 29.983 13.3872 29.983C13.8468 29.983 14.2042 29.8809 14.5616 29.7787C14.7148 30.1872 14.9191 30.5957 15.0723 30.9532C13.285 31.0553 11.5999 31.4128 10.068 32.0766C10.1191 28.7574 10.7319 26 11.4468 23.6L11.4978 23.5489C11.4978 23.4979 12.0085 22.783 12.6723 22.9362C13.5404 23.1404 14.6127 23.9574 14.9191 24.2638C15.0723 24.366 15.2255 24.4681 15.4297 24.4681C15.634 24.4681 15.8382 24.366 15.9914 24.2128C16.2468 23.9064 16.2468 23.4468 15.9404 23.1404C15.7872 22.9872 14.4085 21.8128 13.0297 21.5064C12.7233 21.4553 12.417 21.4043 12.1616 21.4553C12.3148 21.0468 12.468 20.5872 12.6212 20.1787C13.7446 20.5362 14.817 20.8426 15.7361 21.0979C17.5233 21.6085 19.0042 22.0681 20.2808 22.4255C20.0255 23.2426 19.8723 24.0596 19.9233 24.8766C20.0765 28.7574 23.0382 30.6979 25.8978 30.6468C25.9489 30.6468 25.9999 30.6468 26.051 30.6468C27.2765 30.6468 28.451 30.2894 29.4723 29.5745L30.5957 31.0553C30.7489 31.2596 30.9531 31.3617 31.2085 31.3617C31.3616 31.3617 31.5148 31.3106 31.668 31.2085C32.0255 30.9532 32.0765 30.4936 31.8212 30.1872L30.5957 28.5532C31.3616 27.634 31.8723 26.4085 31.9233 24.8766C31.9744 24.0596 31.8212 23.2426 31.5659 22.4255C32.8936 22.0681 34.4255 21.6085 36.2638 21.0468C37.1829 20.7915 38.2042 20.4851 39.3276 20.1277C39.634 21.0468 39.9914 21.966 40.2978 22.9362C38.817 23.3957 38.3063 24.2128 37.9489 24.7745V24.8255C37.7446 25.183 37.7957 25.6426 38.1531 25.8468C38.2553 25.9489 38.4085 25.9489 38.5616 25.9489C38.817 25.9489 39.0212 25.8468 39.1744 25.5915V25.5404C39.4808 25.0809 39.7872 24.6213 40.7063 24.3149C41.3191 26.5617 41.8297 29.1149 41.8808 32.1277C41.268 31.8723 40.6553 31.6681 39.9914 31.4638C39.9404 31.3617 39.8382 31.3106 39.7361 31.2596C39.7361 31.2596 38.6127 30.5957 37.285 29.0128C36.7233 28.3489 36.7233 28.0936 36.7233 28.0936C36.7233 28.0426 36.8255 27.9404 36.8765 27.8894C37.7957 26.7149 37.6936 25.5404 34.5276 22.2723C34.2212 21.966 33.7616 21.966 33.4553 22.2723C33.1489 22.5787 33.1489 23.0383 33.4553 23.3447C33.9148 23.8043 34.2723 24.2128 34.5787 24.5702C33.9659 24.9277 33.8127 25.4894 33.7106 25.9489C33.5574 26.5617 33.3531 27.2255 32.0765 27.8894C31.7191 28.0936 31.5659 28.5021 31.7702 28.9106C31.9233 29.166 32.1787 29.3191 32.434 29.3191C32.5361 29.3191 32.6893 29.2681 32.7914 29.217C34.6808 28.2468 34.9872 27.1234 35.1914 26.3574C35.3446 25.8979 35.3446 25.8468 35.5489 25.7957C35.7021 26.0511 35.8042 26.2553 35.8553 26.4085C35.9574 26.6638 35.9063 26.7149 35.7021 26.9702C35.0893 27.7362 34.9361 28.5021 36.1106 29.983C36.417 30.3915 36.7744 30.6979 37.0297 31.0043C33.9148 30.7489 30.2382 31.4128 25.9489 32.9957Z" fill="#E11D48"/>
</svg>
